<svg id="background" xmlns="http://www.w3.org/2000/svg" xmlns:xlink="http://www.w3.org/1999/xlink" viewBox="0 0 448.52 134"><defs><style>.cls-1{fill:url(#linear-gradient);}.cls-2,.cls-6{fill:none;stroke-width:1.53px;}.cls-2{stroke:#92eaff;stroke-linecap:round;stroke-linejoin:round;}.cls-3{fill:#fff922;}.cls-4{fill:#92eaff;}.cls-5{fill:url(#linear-gradient-2);}.cls-6{stroke:#f0a;stroke-linecap:square;stroke-linejoin:bevel;}.cls-7{fill:url(#linear-gradient-3);}.cls-13,.cls-8{fill:#f0a;}.cls-9{fill:#fff;}.cls-10,.cls-11{fill:#1595ff;}.cls-11{fill-rule:evenodd;}.cls-12,.cls-13{opacity:0.66;}.cls-13{isolation:isolate;}</style><linearGradient id="linear-gradient" x1="133" y1="420.52" x2="148.68" y2="346.22" gradientTransform="matrix(1, 0, 0, -1, 0, 425.21)" gradientUnits="userSpaceOnUse"><stop offset="0" stop-color="#45a2ff"/><stop offset="0.15" stop-color="#469eff"/><stop offset="0.29" stop-color="#4994ff"/><stop offset="0.42" stop-color="#4f81ff"/><stop offset="0.52" stop-color="#556eff"/><stop offset="0.78" stop-color="#3e3ed6"/><stop offset="1" stop-color="#f0a"/></linearGradient><linearGradient id="linear-gradient-2" x1="332.7" y1="399.3" x2="342.98" y2="313.42" gradientTransform="matrix(1, 0, 0, -1, 0, 425.21)" gradientUnits="userSpaceOnUse"><stop offset="0" stop-color="#f0a"/><stop offset="1" stop-color="#2445ea"/></linearGradient><linearGradient id="linear-gradient-3" x1="332.94" y1="397.82" x2="340.1" y2="316.54" gradientTransform="matrix(1, 0, 0, -1, 0, 425.21)" gradientUnits="userSpaceOnUse"><stop offset="0" stop-color="#fff922"/><stop offset="0.12" stop-color="#ffbf41" stop-opacity="0.77"/><stop offset="0.25" stop-color="#ff8d5d" stop-opacity="0.57"/><stop offset="0.37" stop-color="#ff6275" stop-opacity="0.39"/><stop offset="0.5" stop-color="#ff3f88" stop-opacity="0.25"/><stop offset="0.62" stop-color="#ff2397" stop-opacity="0.14"/><stop offset="0.75" stop-color="#ff10a1" stop-opacity="0.06"/><stop offset="0.87" stop-color="#ff04a8" stop-opacity="0.02"/><stop offset="1" stop-color="#f0a" stop-opacity="0"/></linearGradient></defs><title>Hacktoberfest-Header</title><path class="cls-1" d="M160.23,20.76l-8,.92-.67-6L139.22,31.23l6-.7,4.1,35.84,4.42,3.54,3.51-4.42,5.29-6.66-2.23-1.77-3.54,4.43-3.58-31.85ZM202,22l-1.8-15.93L193.57.82l-5.32,6.66L192.68,11l5.22,45.8,8.86,7L212,57.21l-6.63-5.31Zm0,0,6.66,5.28,3.42,29.86,7.05-8.88-3-25.89-8.89-7ZM47.87,73.49l-4.67-3.7L37.74,21.68l-7-5.56-5.58,7,4.67,3.7L31,37.22,21.8,48.82,19,23.81l-7-5.55,0,0,0,0L.79,32.24l2.39,1.89,5.55-7L11.05,29l6,52.24,4.67,3.7,3.69-4.64L22.81,57.82,32,46.22l3.26,28.7,9.32,7.42,9.28-11.63-2.32-1.86Zm124.29-48-7,8.89,3,25.89,8.86,7.05,5.28-6.66-6.66-5.31Zm0,0,6.66,5.28,3.39,29.86,7-8.88-3-25.89-8.89-7Zm73.16-6.38-8.83-7-5.28,6.65L237.8,24l-5.25,6.59-1.34-11.85-7.05,8.89,3,25.89,8.85,7,3.54-4.43,1.78-2.22,5.28-6.66-2.23-1.77-5.28,6.66-4.43-3.55-1.59-14Zm-182,18.78L56.3,46.71,59.23,72.6l8.88,7.05L73.4,73l-6.66-5.28Zm14.17.39-8.89-7-5.28,6.66L70,43.14,73.4,73l6.65,5.28,5.28-6.66-4.42-3.51ZM102.4,67.69,98,64.14,94.58,34.29l-7,8.88,3,25.89,8.86,7,3.54-4.42,1.77-2.23,5.28-6.66L107.71,61ZM94.55,34.25l6.66,5.29,5.28-6.66L99.84,27.6Zm31.85-9.61-5.28,6.65,6.65,5.29,5.28-6.66Zm.49,22.1,2.5,21.89,4.43,3.54,3.54-4.42-3-25.89-6.66-5.28-5.28,6.65Zm-7.61-31.38-6.65-5.29-5.28,6.66,4.42,3.54L117.45,70l4.43,3.54,3.54-4.43-3-25.89-1.37-11.94ZM266.35,8.67,261,15.33l6.65,5.28L273,14Zm-17.25,8,4.43,3.54,3.85,33.83,4.42,3.54,3.51-4.43L261,15.33,254.38,10Z"/><path class="cls-2" d="M160.2,20.7l-8,.92-.67-6L139.22,31.14l6-.67,4.1,35.84,4.42,3.54,3.51-4.42,5.29-6.66L160.29,57l-3.51,4.43-3.64-31.88ZM202,22,200.16,6.05,193.53.76l-5.28,6.66,4.43,3.51,5.22,45.8,8.85,7.05L212,57.12l-6.66-5.31Zm0,0,6.66,5.28L212,57.12l7.05-8.88-2.93-25.86-8.86-7ZM47.84,73.43l-4.67-3.7-5.5-48.11-7-5.56-5.52,7,4.67,3.69L31,37.13,21.8,48.73l-2.87-25-7-5.58,0,0,0,0L.76,32.18l2.38,1.89,5.56-7L11,28.94l6,52.24,4.67,3.7,3.69-4.68L22.78,57.73,32,46.13l3.26,28.7,9.31,7.42,9.29-11.63-2.32-1.86ZM172.16,25.37l-7,8.85,3,25.9,8.86,7.05,5.28-6.66-6.66-5.28Zm0,0,6.66,5.28,3.39,29.86,7-8.88-3-25.89-8.89-7.06ZM245.28,19l-8.82-7-5.28,6.65,6.59,5.26-5.25,6.59-1.34-11.85-7.05,8.89,3,25.89,8.85,7,3.54-4.43,1.77-2.22,5.29-6.66-2.23-1.77L239,52.05l-4.43-3.54-1.59-14ZM63.32,37.8l-7,8.88,3,25.89,8.85,7.05L73.37,73l-6.66-5.28Zm14.17.39-8.89-7L63.32,37.8,70,43.08l3.39,29.86L80,78.22l5.28-6.66L80.88,68ZM102.4,67.6,98,64.05,94.58,34.19l-7,8.89,3,25.89,8.89,7,3.51-4.43,1.77-2.22L110,62.71l-2.23-1.77ZM94.55,34.16l6.66,5.29,5.28-6.66-6.65-5.28Zm31.82-9.61-5.28,6.65,6.65,5.28L133,29.83Zm.52,22.13,2.5,21.89,4.43,3.54,3.54-4.42-3-25.89-6.66-5.29-5.31,6.63Zm-7.64-31.41L112.6,10l-5.28,6.66,4.42,3.51,5.68,49.77,4.43,3.54L125.39,69l-3-25.86-1.38-11.94ZM266.32,8.61,261,15.27l6.65,5.28L273,13.89Zm-17.25,8,4.46,3.54L257.37,54l4.43,3.54,3.51-4.43L261,15.27,254.38,10Z"/><path class="cls-3" d="M203,88.45,201.2,76.63l-3.94.61-.4-2.62,6.84-1.07L206,88l4-.64.4,2.62-11.18,1.74-.39-2.62Z"/><path class="cls-3" d="M222.94,76.39a9.18,9.18,0,0,1-1.26,5.46l-3.35,6.9-3.39.52,3.33-6.75a2.4,2.4,0,0,1-.71.19A5.55,5.55,0,0,1,211,77.94c-.55-3.63,1.89-6.1,5-6.59A5.87,5.87,0,0,1,222.94,76.39ZM216.49,74A3.05,3.05,0,1,0,220,76.54v0A3,3,0,0,0,216.65,74,.36.36,0,0,1,216.49,74Z"/><path class="cls-3" d="M178,89.67l.28,1.86-11,1.68-.09-.58c-.55-3.51.21-6,3.54-8.7l1.22-1c1.65-1.34,2.69-2.62,2.41-4.43a3.06,3.06,0,0,0-3.72-2.62,3.54,3.54,0,0,0-3.09,4l-2,.3a5.47,5.47,0,0,1,4.76-6.1c2.84-.43,5.5,1,6,4.12.36,2.38-.74,4.21-3.21,6.23l-1.31,1.07a6.34,6.34,0,0,0-2.72,5.58Z"/><path class="cls-3" d="M185.14,71.75c4.55-.7,7.17,3.57,7.88,8.27s-.52,9.59-5,10.29-7.18-3.63-7.88-8.3S180.59,72.45,185.14,71.75ZM182,81.7a14.18,14.18,0,0,0,.68,2.75l6.9-8.58a4.1,4.1,0,0,0-4.16-2.32C182.48,74,181.35,77.33,182,81.7Zm8.4-4-6.84,8.55a4,4,0,0,0,4.12,2.2c2.93-.46,4-3.79,3.36-8.15A14.11,14.11,0,0,0,190.42,77.73Z"/><path class="cls-4" d="M216.93,57.36l-6.81,1.12.32,2,6.81-1.11Z"/><path class="cls-4" d="M222.54,56.35l-3.16.52.32,2,3.16-.52Z"/><path class="cls-4" d="M237.62,36.77l-4,.65.32,2,4-.65Z"/><path class="cls-4" d="M251.29,25.21l-5,.82.32,2,5-.82Z"/><path class="cls-4" d="M241.41,26.75l-3.65.6.32,2,3.65-.6Z"/><path class="cls-4" d="M262.09,23.72l-1.9.3.32,2,1.9-.3Z"/><path class="cls-4" d="M273.94,21.22l-1.9.3.32,2,1.89-.31Z"/><path class="cls-4" d="M225.56,44.41l-3.13.51.32,2,3.13-.51Z"/><path class="cls-4" d="M266.65,27.15l-4,.65.32,2,4-.65Z"/><path class="cls-4" d="M278,25.27l-8.71,1.42.32,2,8.71-1.42Z"/><path class="cls-4" d="M282.48,24.43l-2.2.36.32,2,2.2-.36Z"/><path class="cls-4" d="M254.8,33.72l-4,.65.32,2,4-.65Z"/><path class="cls-5" d="M290.41,40.12a33.77,33.77,0,0,0,4.79-1.83,19.86,19.86,0,0,0,2.26-2.23c-.3-.64.31-1.16.58-1.41l.92-.15a4.45,4.45,0,0,0-.34-1.07l-1.1-.06-.7.09c-.12,0-.24-.09-.37-.12a1.39,1.39,0,0,1-.21.21l-1.28.19c-.06-.25-.22-.55-.12-.61s.45-.25.36-.4h.46l2.44-.28c-.24-.45-.49-.88-.76-1.31l-.58,0-2.87.31-1.13-.16-.82.1a9.54,9.54,0,0,0-.95-.31c-.25-.06-2.08.76-3.08.06-3.82.67-17,2.9-20.8,3.21a102.52,102.52,0,0,0-11.93,1.8c-.16.24-.31.46-.43.67a144.14,144.14,0,0,1-6.66,15.36c-.85,0-1.74-.06-2.62-.12a15.56,15.56,0,0,1-3,.61c-2,.12-3.61,2.16-2.75,4a12.75,12.75,0,0,0,3,4.24c.28.21.55.43.82.61a11,11,0,0,0-.82,3.39c-.06.88.58,1.8.34,2.62a6.19,6.19,0,0,1-1.9,3c-1.86,1.34-1.89,3.17-2.5,4.88s-.24,3.64-2.35,5c-.55.34-.18,2.14-.25,3.3,0,.58.22,1.55,0,1.65l.43.21c2.32-1,4.64-2,7-3a1.4,1.4,0,0,1,1.23,0c.85-.31,1.74-.61,2.59-.89a.33.33,0,0,1,.15,0c.06-.27.13-.55.19-.82a9.76,9.76,0,0,1,1-3.64c.74-1.13,2.6-1.64,1.35-3.48-.28-.39.82-1.89,1.49-2.78a31.27,31.27,0,0,0,4.22-8.48,1.51,1.51,0,0,1,.91-.52,177,177,0,0,1,22.63-3.18,6.06,6.06,0,0,1,3.45-3.32,4.85,4.85,0,0,1,1.13-.34.43.43,0,0,0,.06-.18,4,4,0,0,1-.77-.65c-.46-.24-.85-.45-.58-.79A4.86,4.86,0,0,1,282,50.8c-.36-.09-.73-.18-1.1-.24a5.41,5.41,0,0,0-2.13-.31c-3.73,1.16-7.58.86-11.39.74a48.85,48.85,0,0,1-7.24,1.1c.89-1.75,1.83-3.45,2.75-5.2a2.68,2.68,0,0,1,1.71-1.22c8-2,16.58-3,23.57-4.88h.34l2.07-.18ZM434.48,17.28a4.64,4.64,0,0,0-2.1-1.19,2.38,2.38,0,0,1-.86.67c0-.24-.12-.67,0-.7a2.39,2.39,0,0,1,.77-.18c-.1-.92,3.66-1.84.27-2.26a14.37,14.37,0,0,0-4.89.18,100.8,100.8,0,0,1-12.82,1.77,123.25,123.25,0,0,0-16,2.75,23.41,23.41,0,0,1-5.43.21,4.88,4.88,0,0,0-1.89.28l-1.87.06-1.71.49-1.61-.13-1.16-.06-.8.4a1.46,1.46,0,0,0-.73-.18,22.31,22.31,0,0,0-4.4,0c-.49.06-2.56.73-3.05.79a15.67,15.67,0,0,1-3.11.21c-3.24.92-3.76,1.65-7,2.63-1.55.46-3.08,1-4.61,1.5a2.16,2.16,0,0,1-1.22,1c-6.62,1.29-1.46-.3-6.65,2.84l-.37.31c-2.59.73-5.07,1.31-7.08,3.14-.34.7-.7,1.44-1.13,2.17a2.57,2.57,0,0,0-.06,3.18c1.43,2.07.79,2.59,3.08,4.36.18.15.12.52,0,.95.95.58,1.89,1.1,2.84,1.59a2.34,2.34,0,0,0-.15.91,4.81,4.81,0,0,0,1.71,1c1.95.52,3.75,1.59,5.83,1.62,1.13,0,2.26.58,3.33.33s.46-.3.09-.27l.33,0c.1,0,.19,0,.28,0a10.48,10.48,0,0,1,1.77.64c1.71.52.58.46,1.5.49.09.09.15.18.24.18,3-.37,4.27,1.22,7.08,1.71-5,3.21-7.35,6.69-12,9-.65-.52-1.26-.77-1.87.09a3.15,3.15,0,0,0-.42.91.88.88,0,0,1-.28-.06l-.67.46.76,0a1.1,1.1,0,0,1-.33.49,2.27,2.27,0,0,1-1.83.67c-1.17-.31-1.87.73-2.75,1.4s-1.53,2-2.75,1.56c-.31-.12-.92,1.16-1.37,1.8-.25.34-.55,1-.65,1-1.71-1-2.62,2.72-4.33,1.74-.09-.06-.61.79-.58,1,.79,3.08-.58,2.13-1.53,1.8-1.19-.46-1.89.7-2.53,1.8-.25.43,0,1.4-.15,2a6.65,6.65,0,0,1-.86,1.58,7.42,7.42,0,0,0,1.19-.73,2.47,2.47,0,0,0,1-1.25,3.08,3.08,0,0,1,.85-1.41s.22.28.34.43a9.85,9.85,0,0,1-.67.89c-.09.09-.28,0-.52.06.73,1.34,1.19.46,1.62.06,1.22-1.1,2.44-2.23,3.66-3.33l1.4.49,1.53-.4a2.13,2.13,0,0,0-.33.4,7,7,0,0,0-.37,1.53,3.4,3.4,0,0,0,1.1.06c1.65-.4,4.09.06,5.46-1.41a5.17,5.17,0,0,1,1.77-1.55c.68-.25,1.53.58,1.84-1.26,0-.06,0-.09.06-.15.27-.15.55-.3.82-.43l.7-.18c1.56-.34.95-1.56,2.35-2.56,3-1.38,4.74-2.54,7-3.45a1,1,0,0,1,.06-.4c2.62-1.47,5.22-3.7,7.84-4s4-2.54,6-3.7a4.86,4.86,0,0,0,.36-1.49c1.1-1.56.46-4.67-.27-6.72a14.42,14.42,0,0,0-2.2-.7c-1.07-.21-1.62-.67-1.83-2.05s-1.1-2.07-2.35-1.52c-.28.36-.55.76-.83,1.13a2.84,2.84,0,0,0-.79-.71,1.42,1.42,0,0,1-.55-.39c.15-.09.4-.31.43-.28s.3-.12.4.09l.76-.3c0-.52-.37-.89-1.34-1a28.39,28.39,0,0,1-4.19-1,1,1,0,0,1-.3,0,27.2,27.2,0,0,1-4.22-1l.07-1.31c-1.41.09-.77.45-2.14.48-1.44-.42-2.84-.85-4.25-1.31a1.67,1.67,0,0,1-.39.64,6.83,6.83,0,0,0-2.78-.79,4.78,4.78,0,0,0-.92.09c.19-1.74,2.08-1.13,2.84-2a.56.56,0,0,1,.19-.16c3-.85,4-1.83,6.93-2.44,5.13-1,2.16-.64,7.11-2.41a14.48,14.48,0,0,1,4-.7h.06l1-.1c.55-.06,1.62-.06,2.81-.24.06.06.24,0,.58-.09l.09,0a5.14,5.14,0,0,0,1-.28l.67-.12h0l1.1.34-.06.61.55.21L391,27.84l.09,0c.43,0,.79-.06,1-.06.52,0,1.95,1.16,2.47,1.13,3.11-.12,4,2.08,2.63,5.13s-2.9,3.45-3.06,6.81A3.06,3.06,0,0,0,394.4,42c-.55,1.1-1.07,2.17-1.62,3.27a2.61,2.61,0,0,1,.06.7c-1.59,1.22-1.62,2.84-2.14,4.4a9.93,9.93,0,0,0-.3,1.31c-.4.94-.8,1.86-1.13,2.75a5.59,5.59,0,0,1-.61.48c-.31.22-.28.92-.22,1.68-1,2.75-.33,2.84-.94,5.65a2.82,2.82,0,0,1-1.35,1.31c-.15.07-.09,1.35.16,1.41a4.62,4.62,0,0,1,.58.21c-.16.86-.31,1.74-.46,2.66-.18.09-.34.21-.49.3-1.83,1.2-1.71,2.87-1.59,4.43.06.61,1.19,1,1.53,1.62l1.16.18a2.8,2.8,0,0,0,.09-2,3.45,3.45,0,0,1-.18-.8c.24-.21.52-.42.82-.64a5.83,5.83,0,0,1-.06.73c0,.19-.37.34-.55.68,2,0,1.83-1.19,2-2,.06-.24.12-.52.18-.76a13.42,13.42,0,0,0,1-1.19,2.14,2.14,0,0,1-.06-1.07c.21,0,.64-.06.64,0a5,5,0,0,1-.31,1c.86,0-.67,4.48,1.83.55a28.64,28.64,0,0,0,2.9-5.74c.16-.43.34-.89.52-1.32l0,0a11.21,11.21,0,0,0,1.41-1.34c1.68-2.35,1.13-2.44,1.59-5.19a8.61,8.61,0,0,1,.85-3.3c.61-.94,2.17-1.46,1.28-3,.43-.94.89-1.92,1.29-2.87,2.29-3.14,2.53-4.52,3.75-7.94a90.88,90.88,0,0,1,5.28-11.41A2.48,2.48,0,0,1,413,25.65c7-.55,11.3-1.5,16.91-4q2.76-2,5.59-3.85A1.55,1.55,0,0,1,434.48,17.28ZM336.82,61.37l-1.77-.46-2.66-.31L323.6,62c-.68-.31-1.32-.52-1.62-.28-2.05,1.5-3.7.49-5.47.49s-3.48-.58-5.43.67a6.32,6.32,0,0,1-3.51.74c-.83,0-1.44-1-2.26-1.2a8.29,8.29,0,0,0-1.22-.27,65.55,65.55,0,0,0,3-7.05,2,2,0,0,1,.58.24l.34,0a1.89,1.89,0,0,1,1.13-.61,212.12,212.12,0,0,1,24.42-2.84,6.45,6.45,0,0,1,3.82-3.2,6.22,6.22,0,0,1,1.22-.31.21.21,0,0,0,.09-.18,4.17,4.17,0,0,1-.79-.64c-.49-.25-.92-.46-.62-.77a4.39,4.39,0,0,1-.55-2.75c-.39-.09-.76-.18-1.16-.24a5.73,5.73,0,0,0-2.29-.34c-4,1.1-8.15.77-12.27.58a59.94,59.94,0,0,1-9,1.07c.95-1.62,1.9-3.23,2.87-4.85.31-.52,1.35-2.26,1.9-2.29,7-.52,11.57-1.41,17.09-3.54l4.1-.49h.42l2.11-.18-.21-.61-2.08-.19.09-.4c.37-.3.73-.64,1.07-1l3.08-.7h.06c0-.46.07-.92.1-1.38l-1-.15.15-.15c-.12-.13-.24-.22-.36-.37l1.22-.18c0-.43,0-.86,0-1.29V27L339,27.2l.71-.52,2.38-.67c-.09-.12-.22-.24-.31-.36l-.94-1.07-9.53.88c-3.85.64-7.72,1.1-11.51,1.41a111,111,0,0,0-12,1.74c-.15.21-.3.45-.46.67A169.05,169.05,0,0,1,300.09,45l-2.66-.15a14.94,14.94,0,0,1-3.24.55c-2.1.12-3.93,2.11-3.05,3.94a12.66,12.66,0,0,0,3.12,4.18c.27.24.42,1.53.7,1.71A11.47,11.47,0,0,0,293.74,59c-.09.86.49,1.78.21,2.57a7.51,7.51,0,0,1-.76,1.56,3.61,3.61,0,0,1-.86-.1l-.46.07a6,6,0,0,1,.65.88,3.89,3.89,0,0,1-.61.55c-1.93,1.31-2.05,3.08-2.75,4.76s-.43,3.58-2.6,4.89c-.55.33-.3,2.11-.39,3.2-.07.55.12,1.53-.1,1.62l.43.22c2.35-1,4.7-2,7.08-2.9a1.33,1.33,0,0,1,1.2,0c.88-.31,1.74-.61,2.62-.89a1.3,1.3,0,0,0,.15,0c.06-.28.16-.55.22-.82s.15-.68.24-1a31.1,31.1,0,0,0,9.4-1c1-.31,2.84-.82,3.12-.46,1.19,1.77,2.41.22,3.69-.06a10,10,0,0,1,3.7.28,20.43,20.43,0,0,0,9.1-.4,13.73,13.73,0,0,0,2-1,6.51,6.51,0,0,0-1.1-1.28l.52-.49.67-.88,2.69.94,4.46-1.89.76-.67h.09a.11.11,0,0,1,0-.09l1.31-1.13.65-2.2-1.16-1.1Z"/><path class="cls-6" d="M290,40.54a32,32,0,0,0,4.8-1.83,19.86,19.86,0,0,0,2.26-2.23c-.31-.64.3-1.13.58-1.4l.91-.15a3.38,3.38,0,0,0-.36-1.07l-1.07-.06-.71.09a1.69,1.69,0,0,0-.36-.12,1.12,1.12,0,0,1-.22.21l-1.28.18c-.06-.24-.21-.55-.12-.61s.46-.24.37-.39h.45l2.45-.28c-.25-.46-.49-.88-.77-1.31l-.58,0-2.87.34-1.13-.16-.82.06c-.31-.12-.64-.21-.95-.3s-2.07.76-3.08.06c-3.82.67-17,2.9-20.79,3.21a102.69,102.69,0,0,0-11.94,1.8c-.15.24-.3.45-.43.67a146.14,146.14,0,0,1-6.65,15.36c-.89,0-1.74-.07-2.63-.13a14.05,14.05,0,0,1-3,.61c-2,.16-3.6,2.2-2.75,4a12.54,12.54,0,0,0,3,4.22c.28.21.55.42.83.61a10.88,10.88,0,0,0-.86,3.36c-.06.88.58,1.8.34,2.62a6.21,6.21,0,0,1-1.89,3c-1.87,1.35-1.9,3.18-2.51,4.89s-.24,3.63-2.35,5c-.55.33-.18,2.13-.24,3.29,0,.58.21,1.56,0,1.65l.43.22,7-3a1.45,1.45,0,0,1,1.22,0c.85-.3,1.74-.61,2.59-.88a1.57,1.57,0,0,0,.16,0l.18-.83a9.72,9.72,0,0,1,1-3.63c.73-1.13,2.59-1.65,1.34-3.48-.27-.4.82-1.89,1.5-2.78A31.44,31.44,0,0,0,255.33,63a1.54,1.54,0,0,1,.92-.51,177.12,177.12,0,0,1,22.62-3.18,6,6,0,0,1,3.45-3.33,5.4,5.4,0,0,1,1.13-.33.24.24,0,0,0,.06-.19,3.35,3.35,0,0,1-.76-.64c-.46-.24-.86-.46-.58-.79a4.8,4.8,0,0,1-.58-2.78c-.37-.09-.74-.18-1.07-.24a5.28,5.28,0,0,0-2.14-.31c-3.72,1.16-7.57.86-11.39.73a47.63,47.63,0,0,1-7.23,1.1c.88-1.74,1.83-3.45,2.74-5.19a2.64,2.64,0,0,1,1.71-1.22c8-2,16.58-3,23.57-4.88h.34L290.2,41ZM434.12,17.71A4.68,4.68,0,0,0,432,16.52a2.35,2.35,0,0,1-.85.67c0-.25-.13-.64,0-.7a2.3,2.3,0,0,1,.76-.19c-.09-.91,3.66-1.83.27-2.26a14.58,14.58,0,0,0-4.88.19A103.15,103.15,0,0,1,414.46,16a117.82,117.82,0,0,0-16,2.75,22.38,22.38,0,0,1-5.44.18,5.07,5.07,0,0,0-1.89.27l-1.86.06-1.71.49-1.62-.12-1.16-.06L384,20a1.41,1.41,0,0,0-.74-.19,23.85,23.85,0,0,0-4.39,0c-.49.06-2.57.74-3.06.8a16.41,16.41,0,0,1-3.11.21c-3.24.92-3.76,1.65-7,2.63-1.56.49-3.08,1-4.61,1.49a2.21,2.21,0,0,1-1.22,1c-6.63,1.28-1.47-.3-6.66,2.84l-.36.31c-2.6.73-5.07,1.31-7.09,3.14-.33.67-.7,1.43-1.13,2.17a2.57,2.57,0,0,0-.06,3.17c1.44,2.08.8,2.6,3.09,4.37.18.15.12.52,0,.95.94.58,1.89,1.09,2.83,1.58a2.4,2.4,0,0,0-.15.92,5,5,0,0,0,1.71,1c2,.52,3.76,1.58,5.83,1.61,1.13,0,2.26.61,3.33.34s.46-.27.09-.27l.34,0c.09,0,.18,0,.27,0a10.54,10.54,0,0,1,1.77.65c1.71.51.58.45,1.5.48.09.07.15.19.24.19,3-.37,4.28,1.22,7.09,1.71-5,3.2-7.36,6.68-12,9-.64-.52-1.25-.76-1.86.09a3.18,3.18,0,0,0-.43.89,1,1,0,0,1-.28-.06l-.67.46.77,0a1.09,1.09,0,0,1-.34.48,2.28,2.28,0,0,1-1.83.68c-1.16-.31-1.86.73-2.75,1.4s-1.53,2-2.75,1.56c-.3-.12-.91,1.16-1.37,1.8-.24.34-.55,1-.64,1-1.71-1-2.63,2.71-4.34,1.74-.09-.06-.61.79-.58,1,.8,3.09-.58,2.14-1.52,1.81-1.19-.46-1.9.7-2.54,1.8-.24.42,0,1.4-.15,2a6.38,6.38,0,0,1-.86,1.59,8,8,0,0,0,1.2-.73,2.49,2.49,0,0,0,.94-1.25,3,3,0,0,1,.86-1.41s.21.28.3.43a9.71,9.71,0,0,1-.67.88c-.09.1-.27,0-.52.1.73,1.34,1.19.45,1.62.06,1.22-1.1,2.44-2.23,3.66-3.33l1.41.49,1.52-.4a1.85,1.85,0,0,0-.33.4,6.62,6.62,0,0,0-.37,1.52,3.14,3.14,0,0,0,1.1.06c1.65-.39,4.09.07,5.47-1.4a5.68,5.68,0,0,1,1.77-1.56c.67-.24,1.52.58,1.83-1.25,0-.06,0-.09.06-.15.27-.15.55-.31.82-.43l.71-.18c1.55-.34.94-1.56,2.35-2.57,3-1.37,4.73-2.53,7-3.45a.93.93,0,0,1,.06-.39c2.63-1.47,5.22-3.7,7.85-4s4-2.54,6-3.7a4.73,4.73,0,0,0,.37-1.49c1.1-1.56.46-4.67-.28-6.72A13.09,13.09,0,0,0,381,47c-1.06-.19-1.61-.67-1.83-2.05s-1.1-2.07-2.35-1.52L376,44.57a3.17,3.17,0,0,0-.8-.7,1.5,1.5,0,0,1-.55-.39c.16-.1.4-.31.43-.28s.31-.12.4.09l.76-.3c0-.52-.36-.89-1.34-1a26.81,26.81,0,0,1-4.18-1,1.12,1.12,0,0,1-.31,0,26.77,26.77,0,0,1-4.21-1l.06-1.32c-1.41.1-.77.46-2.14.49-1.43-.39-2.84-.85-4.24-1.31a2.21,2.21,0,0,1-.4.67,6.68,6.68,0,0,0-2.78-.79,4.68,4.68,0,0,0-.91.09c.18-1.74,2.07-1.13,2.84-2a.8.8,0,0,1,.18-.15c3-.85,4-1.83,6.93-2.44,5.13-1,2.17-.64,7.11-2.41a14.9,14.9,0,0,1,4-.71H377l1-.09c.55-.06,1.62-.06,2.81-.24.06.06.24,0,.58-.09l.09,0a5.89,5.89,0,0,0,1-.28l.67-.12h0l1.1.34-.06.61.55.21,5.8-2.14.09,0c.43,0,.8-.06,1-.06.52,0,1.95,1.16,2.47,1.13,3.12-.12,4,2.08,2.63,5.13s-2.9,3.45-3,6.81A3.24,3.24,0,0,0,394,42.5c-.55,1.1-1.07,2.17-1.62,3.27a2.61,2.61,0,0,1,.06.7c-1.58,1.22-1.62,2.84-2.13,4.39a8.18,8.18,0,0,0-.31,1.32c-.4.94-.79,1.86-1.13,2.74a4.09,4.09,0,0,1-.61.49c-.31.22-.27.92-.21,1.68-1,2.75-.34,2.84-.95,5.65a2.79,2.79,0,0,1-1.34,1.31c-.16.06-.1,1.35.15,1.41a4.1,4.1,0,0,1,.58.21c-.15.86-.31,1.74-.46,2.66-.18.09-.33.21-.49.3-1.83,1.19-1.71,2.87-1.58,4.43.06.61,1.19,1,1.52,1.62l1.16.18a2.75,2.75,0,0,0,.09-2,3.45,3.45,0,0,1-.18-.8,5.82,5.82,0,0,1,.82-.61,5.83,5.83,0,0,1-.06.73c0,.19-.36.34-.55.68,2,0,1.84-1.19,2-2,.06-.24.12-.52.18-.76a15,15,0,0,0,1-1.19,2.14,2.14,0,0,1-.06-1.07c.21,0,.64-.06.64.06a5,5,0,0,1-.3.95c.85,0-.68,4.48,1.83.55a29.73,29.73,0,0,0,2.9-5.74c.15-.43.33-.89.52-1.32l0,0A10.48,10.48,0,0,0,397,61c1.68-2.35,1.13-2.44,1.59-5.19a8.61,8.61,0,0,1,.85-3.3c.61-.94,2.17-1.46,1.29-3,.42-.95.88-1.92,1.28-2.87,2.29-3.17,2.53-4.52,3.75-8A90.32,90.32,0,0,1,411,27.29a2.4,2.4,0,0,1,1.52-1.13c7-.54,11.3-1.49,16.92-4q2.74-2,5.58-3.85A1.75,1.75,0,0,1,434.12,17.71ZM336.45,61.79l-1.77-.45L332,61l-8.79,1.37c-.67-.27-1.31-.51-1.62-.27-2,1.5-3.69.52-5.49.49s-3.48-.58-5.44.67a6.3,6.3,0,0,1-3.51.73c-.82,0-1.43-.94-2.26-1.19a8,8,0,0,0-1.22-.27,63.74,63.74,0,0,0,3-7.06,2.16,2.16,0,0,1,.58.25l.34,0a1.84,1.84,0,0,1,1.13-.61,212.12,212.12,0,0,1,24.42-2.84A6.48,6.48,0,0,1,337,49a7,7,0,0,1,1.22-.3.23.23,0,0,0,.09-.19,3.76,3.76,0,0,1-.79-.64c-.49-.24-.92-.46-.61-.76a4.32,4.32,0,0,1-.55-2.75c-.4-.09-.77-.18-1.16-.24a5.6,5.6,0,0,0-2.29-.34c-4,1.1-8.15.73-12.28.58a60,60,0,0,1-9,1.07c.94-1.62,1.89-3.24,2.87-4.85.3-.52,1.34-2.26,1.89-2.29,7-.52,11.57-1.41,17.1-3.58l4.09-.45H338l2.07-.19-.21-.61-2.08-.18.09-.4c.37-.33.74-.64,1.07-1l3.09-.71h.06l.09-1.37-1-.15.15-.16a4.07,4.07,0,0,1-.36-.36l1.22-.19c0-.42,0-.85,0-1.25v-.3l-3.6.18.73-.49,2.38-.67c-.09-.12-.21-.24-.3-.37-.31-.36-.64-.7-.95-1.06l-9.53.88c-3.84.67-7.72,1.1-11.51,1.41a110.81,110.81,0,0,0-12,1.74c-.16.21-.31.45-.46.67a170.36,170.36,0,0,1-7.33,15.69c-.88,0-1.77-.09-2.66-.15a14.72,14.72,0,0,1-3.26.55c-2.11.12-3.94,2.1-3.06,3.94A12.94,12.94,0,0,0,293.83,54c.27.21.43,1.52.7,1.71a11.47,11.47,0,0,0-1.22,3.75c-.09.89.49,1.77.21,2.57a6.76,6.76,0,0,1-.76,1.55,4.09,4.09,0,0,1-.85-.09l-.46,0a6.06,6.06,0,0,1,.64.89,3.49,3.49,0,0,1-.61.55c-1.93,1.31-2.05,3.08-2.75,4.76s-.43,3.57-2.59,4.89c-.55.33-.31,2.1-.4,3.2-.06.55.12,1.53-.09,1.62l.42.21c2.35-.94,4.71-2,7.09-2.9a1.38,1.38,0,0,1,1.19,0c.88-.3,1.74-.61,2.62-.88a1.57,1.57,0,0,0,.16,0c.06-.28.15-.55.21-.83s.15-.67.24-1a31.48,31.48,0,0,0,9.41-1c1-.34,2.84-.83,3.11-.46,1.19,1.77,2.38.21,3.7-.09a10,10,0,0,1,3.69.27,20.42,20.42,0,0,0,9.1-.39,16.22,16.22,0,0,0,2-.95,5.94,5.94,0,0,0-1.1-1.28l.52-.49.67-.89,2.69,1,4.46-1.89.76-.64h.09a.26.26,0,0,1,0-.13L338,65.79l.64-2.19-1.16-1.1Z"/><path class="cls-7" d="M236.46,86.8l-.7,0-.43-.22V85a.66.66,0,0,0-.4.52,3.32,3.32,0,0,0,0-.55,8.28,8.28,0,0,1-.06-.86c0-.3,0-.67,0-1.07-.06-1.22-.15-2.41.67-2.93,1.2-.76,1.38-1.74,1.62-3a9.49,9.49,0,0,1,.4-1.59c.12-.36.24-.76.34-1.16a6.47,6.47,0,0,1,2.47-4.12,5.39,5.39,0,0,0,1.59-2.56,2,2,0,0,0-.16-1,5.06,5.06,0,0,1-.24-1.5,9.84,9.84,0,0,1,.67-3c-.12-.09-.24-.18-.34-.27a13.61,13.61,0,0,1-3.23-4.52,3.4,3.4,0,0,1,.21-3.24,4.23,4.23,0,0,1,3.27-2,13.65,13.65,0,0,0,2.84-.58l.27,0,2.05.09a143.36,143.36,0,0,0,6.35-14.75l.06-.15c.09-.12.15-.28.24-.4a2.33,2.33,0,0,0,.19-.27l.58-.4a115.76,115.76,0,0,1,12.06-1.83c3.63-.31,16.45-2.44,20.7-3.21l.64.16c.4.27,1.46,0,1.89-.1a1.7,1.7,0,0,1,.95-.09c.33.09.61.19.85.28l.64-.06h.22l1,.15,2.83-.31.58,0,.77.4a15.37,15.37,0,0,1,.79,1.37l-.3.55h.09l.73.52a4.65,4.65,0,0,1,.4,1.28l-.7,1-.65.09a1.7,1.7,0,0,0-.21.28v-.06l-.12.94a20.65,20.65,0,0,1-1.59,1.65c-.18.19-.43.37-.73.67l-.22.16a30.79,30.79,0,0,1-4.54,1.74l-.4.61-2.2.18H288c-3.67,1-7.7,1.71-12,2.5-3.79.71-7.73,1.44-11.51,2.35l-.12,0a1.94,1.94,0,0,0-1,.79l-.37.7c-.55,1-1.07,2-1.62,3a47,47,0,0,0,5.53-.94l.21,0,1.19,0c3.45.12,6.72.24,9.93-.73a3.26,3.26,0,0,1,2,.15c.22.06.4.12.55.15.31.06.61.12.95.21l.18,0,.67.92a4,4,0,0,0,.46,2.29l0,.31a2.7,2.7,0,0,0,.27.15l.25.18a5.07,5.07,0,0,0,.61.52l.4.76a1.16,1.16,0,0,1-.28.71l-.39.24a3.89,3.89,0,0,1-.55.12l-.4.09-.18.1a5.12,5.12,0,0,0-3,2.87l-.73.51a184.16,184.16,0,0,0-22.53,3.15,1.14,1.14,0,0,0-.37.18A31.37,31.37,0,0,1,251.85,72a10,10,0,0,0-1.31,2c1.06,1.8-.13,2.87-.83,3.51a3.29,3.29,0,0,0-.64.7,7,7,0,0,0-.76,2.65,5.39,5.39,0,0,1-.12.68c-.07.27-.1.52-.16.79v.06l-.64.67-.12,0c-.86.28-1.74.58-2.57.89l-.67,0a.53.53,0,0,0-.52,0c-1.1.46-2.16.91-3.26,1.4C238.93,85.76,237.68,86.28,236.46,86.8Zm0-5.28a5.7,5.7,0,0,0,0,1.43,8.52,8.52,0,0,1,0,1.22,4.5,4.5,0,0,0,0,.64v.07c1-.4,1.93-.83,2.9-1.23s2.2-.94,3.3-1.4a2.52,2.52,0,0,1,1.56-.12c.64-.25,1.34-.46,2-.7,0-.1,0-.22.06-.31s.06-.43.1-.64a8.74,8.74,0,0,1,1-3.3,5.23,5.23,0,0,1,1-1c.76-.7.88-.82.43-1.49s-.13-1.65,1.52-3.79a29.22,29.22,0,0,0,4.09-8.24l.19-.31a2.6,2.6,0,0,1,1.37-.79,181.91,181.91,0,0,1,22.23-3.15,6.89,6.89,0,0,1,3.48-3.23,1.31,1.31,0,0,1-.55-.8.62.62,0,0,1,0-.33,5.71,5.71,0,0,1-.52-2.17l-.37-.06a6.56,6.56,0,0,1-.7-.18,2.21,2.21,0,0,0-1-.16c-3.48,1.07-7,1-10.5.8l-1.07,0a48.92,48.92,0,0,1-7.23,1.1l-.86-1.26c.77-1.49,1.59-3,2.38-4.48l.4-.71A3.56,3.56,0,0,1,264,45.19c3.82-.92,7.72-1.65,11.54-2.36,4.28-.79,8.31-1.52,12-2.5l.24,0h.31l1.46-.12.25-.49A36.63,36.63,0,0,0,294.38,38l.64-.58a14.11,14.11,0,0,0,1.16-1.16,2.15,2.15,0,0,1,.67-1.56l-.27,0-.31,0-.27.12-1.29.19-1-.7a.42.42,0,0,0-.06-.19,1,1,0,0,1,.36-1.34c.06,0,.09-.06.15-.06a.66.66,0,0,0-.12.85l.52-.91-1,.12h-.18l-1-.15-.73.06-.43-.06a4.17,4.17,0,0,0-.67-.25l-.18.06a4.64,4.64,0,0,1-3,.06c-3.67.65-16.7,2.84-20.58,3.18a98.69,98.69,0,0,0-11.48,1.71l-.18.27A147.4,147.4,0,0,1,248.46,53l-.79.49c-.83,0-1.65-.06-2.48-.12a15.13,15.13,0,0,1-3.05.61,2.42,2.42,0,0,0-1.89,1.19,1.67,1.67,0,0,0-.12,1.62,11.68,11.68,0,0,0,2.8,3.94l.74.54.33,1a9.33,9.33,0,0,0-.76,3.12,2.46,2.46,0,0,0,.18.91,3.55,3.55,0,0,1,.15,1.9,7.1,7.1,0,0,1-2.19,3.48,5.09,5.09,0,0,0-1.84,3.17c-.12.43-.24.86-.39,1.28a9.87,9.87,0,0,0-.34,1.35A5.76,5.76,0,0,1,236.49,81.52Zm46.38-27.63-.06.64a.56.56,0,0,0,.12-.43A.76.76,0,0,0,282.87,53.89Zm3.57,26.53-.7,0-.4-.22,0-1.55a.67.67,0,0,0-.4.48v-.51a4.12,4.12,0,0,1,0-.86,8.21,8.21,0,0,0,0-1c0-1.19,0-2.35.79-2.84a3.83,3.83,0,0,0,1.77-2.93,11.12,11.12,0,0,1,.46-1.55c.15-.37.27-.74.39-1.13a7.06,7.06,0,0,1,2.63-4c-.06-.06-.09-.13-.15-.16l-.22-.45.77-1,.24,0,.22,0h.24l.24,0a7.43,7.43,0,0,0,.43-.95,2.36,2.36,0,0,0-.09-.91,4.1,4.1,0,0,1-.15-1.47,10.67,10.67,0,0,1,1.1-3.6,4.07,4.07,0,0,1-.22-.7,2.17,2.17,0,0,0-.15-.49A13.39,13.39,0,0,1,290,50.1a3.18,3.18,0,0,1,.19-3.05,4.49,4.49,0,0,1,3.6-2.11,16.94,16.94,0,0,0,3.08-.52l.25,0,2.13.12a160.69,160.69,0,0,0,6.87-14.8l.22-.46c.09-.12.18-.28.27-.4l.22-.27.54-.37a108.15,108.15,0,0,1,12.06-1.77c4.22-.34,8-.79,11.45-1.37H331l9.53-.89.73.31.61.7.34.36.21.25.13.15-.22.7h0l.92.86v.3c0,.43,0,.86,0,1.29l-.37.42.34.43c0,.49-.06,1-.09,1.44l-.71.76h-.06l-2.41.55h.12l.73.58.22.61L340.27,35l-2.2.21h-.37l-4,.49c-5.4,2.08-9.89,3-17.13,3.57a8.26,8.26,0,0,0-1.31,1.83l0,.07c-.76,1.25-1.4,2.35-2,3.45a54.54,54.54,0,0,0,7.29-1l.22,0,1.28.06c3.72.18,7.23.33,10.75-.61a3.88,3.88,0,0,1,2,.18,6,6,0,0,0,.61.15c.34.07.67.16,1,.22l.18,0,.67,1a3.43,3.43,0,0,0,.43,2.19l0,.31a2,2,0,0,0,.28.15l.24.15a4.81,4.81,0,0,0,.67.52l.4.8a1.14,1.14,0,0,1-.34.7l-.39.24a4.93,4.93,0,0,1-.58.13l-.46.09-.19.09A5.6,5.6,0,0,0,334,52.76l-.71.49A212.82,212.82,0,0,0,309,56.08a1.18,1.18,0,0,0-.64.34l-.58.31-.34,0-.15,0c-.15.36-.3.76-.46,1.19a41.74,41.74,0,0,1-1.74,4.18l.16,0a3.73,3.73,0,0,1,1.28.73,1.5,1.5,0,0,0,.79.43,5.39,5.39,0,0,0,3-.61,6.76,6.76,0,0,1,4.71-.89c.39,0,.79.06,1.19.06a7.46,7.46,0,0,1,1.62.19,3.92,3.92,0,0,0,3.35-.49,2.26,2.26,0,0,1,2.23.09l8.55-1.34h.25l2.77.33,1.77.46.28.12,1.19.83,1.16,1.1.24.85-.64,2.2-.27.43-1.31,1.13-.1-.09-.12.09.09.12-.76.64-.21.15-4.46,1.9-.61,0-2.08-.74-.27.34.24.34a2.64,2.64,0,0,0,.31.39l-.28,1.32c-.21.09-.39.21-.58.3a7.4,7.4,0,0,1-1.52.7,21.05,21.05,0,0,1-9.47.43l-.64-.12a6.91,6.91,0,0,0-2.72-.18,4.52,4.52,0,0,0-.88.36c-.89.43-2.32,1.16-3.54-.43a11.32,11.32,0,0,0-2.32.55,29.76,29.76,0,0,1-9,1.07c0,.12-.06.25-.09.34l-.19.73,0,.09-.67.61-.09,0c-.88.28-1.8.58-2.59.86l-.68,0a.66.66,0,0,0-.48,0l-3.33,1.37C288.94,79.38,287.69,79.93,286.44,80.42Zm.31-5.16a6.58,6.58,0,0,0-.07,1.4c0,.4,0,.83,0,1.19v.61c1-.39,1.93-.79,2.9-1.19l3.33-1.37a2.36,2.36,0,0,1,1.53-.12l2.07-.71c0-.09.07-.21.1-.3s.09-.43.15-.64l.09-.34.86-.67a30.61,30.61,0,0,0,9.15-1c2.6-.79,3.61-.82,4.1-.09s.51.58,1.49.09a5.51,5.51,0,0,1,1.31-.52,8.5,8.5,0,0,1,3.42.19c.22,0,.43.09.61.12a19.41,19.41,0,0,0,8.71-.37,3.57,3.57,0,0,0,.91-.42,1.27,1.27,0,0,0-.3-.31L327,69.46l.45-.43.61-.82,1-.31,2.35.82,4-1.71.67-.58.06,0,.07-.06,1.12-1,.43-1.47-.73-.7-.92-.61-1.55-.4-2.48-.27-8.67,1.34L323,63.2a4.37,4.37,0,0,0-.88-.31,5.61,5.61,0,0,1-4.55.74,8.75,8.75,0,0,0-1.34-.16c-.46,0-.89,0-1.32-.06a5.34,5.34,0,0,0-3.63.61,7.19,7.19,0,0,1-4,.89,3.22,3.22,0,0,1-1.71-.77,3.18,3.18,0,0,0-.76-.45c-.37-.09-.73-.19-1.1-.25l-.61-1.28a36.39,36.39,0,0,0,2.2-5c.27-.7.52-1.4.76-2l1-.49c.15,0,.27.09.4.12a3.07,3.07,0,0,1,1.25-.55,211.46,211.46,0,0,1,24.06-2.81,7.23,7.23,0,0,1,3.87-3.11,1.2,1.2,0,0,1-.52-.79.65.65,0,0,1,0-.34,5.5,5.5,0,0,1-.48-2.08l-.43-.09a6,6,0,0,1-.73-.18,3.82,3.82,0,0,0-1.17-.18c-3.75,1-7.57.82-11.26.67l-1.16-.06a61.34,61.34,0,0,1-9.07,1.07L311,45.09c.91-1.55,1.8-3.05,2.87-4.85l0-.06c1.16-1.93,1.8-2.63,2.53-2.66C323.6,37,328,36.06,333.3,34l.22-.06,3.85-.43-.28-.39.09-.4.28-.43c.36-.3.7-.64,1.07-.95l.39-.21,2.35-.52h0l-.18-.52-.12.16-.09-.1a2.18,2.18,0,0,1-.31-.3l.21-.64v0l0,0,.25-.71-2.17.1L338.31,27l.7-.52.28-.12,1.1-.31-.06-.09-9.07.83c-3.51.61-7.3,1.06-11.57,1.4a103.55,103.55,0,0,0-11.51,1.65v0l-.22.27-.12.28a160.86,160.86,0,0,1-7.2,15.42l-.8.42c-.85,0-1.68-.09-2.53-.12a17.21,17.21,0,0,1-3.33.58A2.85,2.85,0,0,0,291.75,48a1.62,1.62,0,0,0-.12,1.44,11.06,11.06,0,0,0,2.9,3.88,2.34,2.34,0,0,1,.61,1.25,4.4,4.4,0,0,0,.18.55l-.18-.19.31,1.13a9.93,9.93,0,0,0-1.13,3.45,3,3,0,0,0,.12.89,3.13,3.13,0,0,1,0,1.89,8.56,8.56,0,0,1-.86,1.71l-.67.34-.06.61a4.06,4.06,0,0,1-.76.67,5.37,5.37,0,0,0-2,3.14,12.86,12.86,0,0,1-.45,1.26,8,8,0,0,0-.4,1.31A6.1,6.1,0,0,1,286.75,75.26Zm50.83-28.15-.09.7a.57.57,0,0,0,.15-.43A.88.88,0,0,0,337.58,47.11ZM338.86,79l-1.19-1.16a4.59,4.59,0,0,1,.34-.52,3.05,3.05,0,0,0,.45-.88,4.9,4.9,0,0,0,0-.76,2.75,2.75,0,0,1,.21-1.53c.64-1.07,1.71-2.87,3.57-2.17a1.92,1.92,0,0,1,.37.15l.21.1a5.85,5.85,0,0,0-.21-1c-.19-.73.61-1.71.82-1.89a.92.92,0,0,1,1-.07c.18.13.4,0,1.1-.73a3.07,3.07,0,0,1,2.47-1.28c.09-.15.18-.31.28-.46a4,4,0,0,0,.39-.64c.52-.89,1.07-1.83,2-1.5.27.13.49,0,1.13-.7a9.45,9.45,0,0,1,.79-.76c.18-.12.37-.31.55-.46a3.07,3.07,0,0,1,2.93-1.07,1.57,1.57,0,0,0,.89-.36l-.22-.65.67-.45h.13a3.15,3.15,0,0,1,.36-.64,1.85,1.85,0,0,1,2.54-.65s.06,0,.09.07a31.52,31.52,0,0,0,5.8-4.28c1.25-1.1,2.53-2.2,4.06-3.33-.4-.15-.76-.3-1.13-.42a6.9,6.9,0,0,0-3.82-.74,1,1,0,0,1-.7-.18.92.92,0,0,1-.67-.28,6.44,6.44,0,0,0-.7-.24c-.28-.09-.52-.18-.8-.3a2.56,2.56,0,0,0-.48-.22,6.55,6.55,0,0,1-.71.25,5.11,5.11,0,0,1-2.38-.13,8,8,0,0,0-1.19-.18,12.51,12.51,0,0,1-4.15-1c-.64-.24-1.25-.46-1.89-.64a5.8,5.8,0,0,1-2.05-1.16,1,1,0,0,1-.3-1.13c-.8-.43-1.59-.85-2.32-1.31l-.4-.92a1.36,1.36,0,0,1,.06-.24,6.15,6.15,0,0,1-2.14-2.72,8.85,8.85,0,0,0-.91-1.65,3.44,3.44,0,0,1,0-4.12c.39-.67.73-1.34,1-2l0-.1.21-.27c2-1.77,4.24-2.41,6.65-3.11l.59-.19.33-.27c2-1.22,2.35-1.65,2.44-1.8.34-.46.64-.49,1.41-.61.55-.1,1.43-.22,3.08-.55a1.64,1.64,0,0,0,.64-.64l.49-.37,1.5-.49c1-.34,2.07-.67,3.11-1a24.32,24.32,0,0,0,3.3-1.25A25.62,25.62,0,0,1,372.26,20h.49a16,16,0,0,0,2.75-.25c.18,0,.82-.21,1.31-.36a16.47,16.47,0,0,1,1.77-.46,23,23,0,0,1,4.55,0l.61.09.43-.21.43-.09,1.16.06,1.49.12,1.56-.43.21,0,1.74-.06a6,6,0,0,1,2.05-.28c.49,0,1,0,1.5,0a14.14,14.14,0,0,0,3.78-.22,122.17,122.17,0,0,1,16.12-2.78,97.68,97.68,0,0,0,12.73-1.77,15.72,15.72,0,0,1,5.16-.21c1,.12,2,.3,2.17,1.16s-.52,1.31-1.13,1.71l-.06.06a4.59,4.59,0,0,1,1.5,1.07,4.86,4.86,0,0,0,.64.58l-.06,1.4c-1.78,1.16-3.61,2.41-5.56,3.82l-.15.09c-5.59,2.5-10,3.51-17.19,4.09a1.8,1.8,0,0,0-.83.67l-.45.86a82.87,82.87,0,0,0-4.8,10.44c-.18.49-.3.92-.46,1.31a21.39,21.39,0,0,1-3.35,6.78c-.37.83-.74,1.68-1.1,2.44a2.38,2.38,0,0,1-.95,2.81,3.89,3.89,0,0,0-.55.61,6.71,6.71,0,0,0-.64,2.38c0,.22-.06.4-.09.61-.12.71-.15,1.23-.22,1.68a6.35,6.35,0,0,1-1.52,3.88,7.4,7.4,0,0,1-1.07,1.1c-.12.09-.25.21-.37.31l-.09.24c-.09.27-.21.52-.3.79a29.75,29.75,0,0,1-3,5.93c-.88,1.37-1.49,2.23-2.38,2-.55-.15-.7-.61-.76-1.1l-.09.34a1.28,1.28,0,0,0-.06.33,2.36,2.36,0,0,1-1.81,2.23,5.49,5.49,0,0,1-.27,1.56l-1,.58L385,75.75l-.64-.46a2.26,2.26,0,0,0-.52-.46,2.17,2.17,0,0,1-1.1-1.5c-.12-1.58-.3-3.72,2-5.22l.18-.12c.09-.55.18-1,.28-1.56a1.58,1.58,0,0,1-.68-1.43c-.06-.61,0-1.25.55-1.53a1.94,1.94,0,0,0,.92-.82,9.57,9.57,0,0,0,.27-2.29,8.61,8.61,0,0,1,.62-3.18c-.07-.85-.1-1.83.61-2.29a1.44,1.44,0,0,0,.33-.27c.34-.86.67-1.65,1-2.47a8.55,8.55,0,0,1,.31-1.35,9.79,9.79,0,0,0,.3-1,6.48,6.48,0,0,1,1.8-3.48l0-.12.06-.58c.49-1,1-2,1.47-3a3.76,3.76,0,0,1-.19-1.16,7.87,7.87,0,0,1,1.71-4.73,16.53,16.53,0,0,0,1.41-2.38c.61-1.38.73-2.57.27-3.21a2.36,2.36,0,0,0-2.07-.7,3.66,3.66,0,0,1-1.74-.7,8.21,8.21,0,0,0-.83-.43,5.34,5.34,0,0,0-.82.06l-5.74,2.14h-.61l-.55-.22-.46-.76-.3-.09-.4.09a7.3,7.3,0,0,1-1.07.28h-.06a1.92,1.92,0,0,1-.92.15c-.76.09-1.46.15-2,.18-.28,0-.49,0-.67.06l-1,.09v-.06l-.06-.06v.12h-.22a12.28,12.28,0,0,0-3.6.64,19.61,19.61,0,0,0-3.11,1.29c-.8.42-1.13.55-4.16,1.16a15.44,15.44,0,0,0-3.66,1.22,27.74,27.74,0,0,1-3,1.13,2.62,2.62,0,0,1-1.07.64,9.08,9.08,0,0,1,1.07.4l.92-.43c1.52.49,2.86.91,4.09,1.25a.94.94,0,0,0,.55-.12,2.61,2.61,0,0,1,1.46-.37l.92.92,0,.61c.39.09.7.21,1,.3a12.58,12.58,0,0,0,2.42.52h.42l1.35.37a12,12,0,0,0,2.68.61c1.41.09,1.9.76,2.05,1.28a2.28,2.28,0,0,1,1.68.19,2.76,2.76,0,0,1,1.31,2.16c.15,1,.49,1.19,1.13,1.32a15.21,15.21,0,0,1,2.38.73l.49.52c.31.82,1.71,5,.31,7.32-.25,1.44-.4,1.71-.77,1.93a13.22,13.22,0,0,0-1.83,1.37,8.61,8.61,0,0,1-4.52,2.44c-1.68.22-3.48,1.38-5.22,2.51-.7.46-1.4.91-2.14,1.31l-.36.55c-1.16.49-2.26,1-3.36,1.62s-2.14,1.13-3.54,1.77a2.49,2.49,0,0,0-.7,1,2.48,2.48,0,0,1-1.93,1.65c-.21,0-.39.09-.55.12l-.42.21c-.37,1.56-1.29,1.71-2.08,1.65h-.24a4.1,4.1,0,0,0-1.1,1c-.1.12-.22.21-.31.33-1.16,1.25-2.81,1.38-4.27,1.47a13.56,13.56,0,0,0-1.59.18,3.38,3.38,0,0,1-1.1,0l-.28,0-.79-1,.09-.45v-.07h-.36l-.92-.3c-1,1-2.14,2-3.3,3-.06,0-.09.09-.15.15a1.66,1.66,0,0,1-1.47.71,1.72,1.72,0,0,1-.42-.13,4.7,4.7,0,0,1-.58.52,8.31,8.31,0,0,1-.95.58Zm2.69-5c.43.06.61.36.82.64l.09.15V75l1-.88a3.27,3.27,0,0,1-1.43-.34l-.31-.12c-.4-.15-.7.12-1.4,1.25a3.28,3.28,0,0,1,.55-.64Zm7-1.77.79,1.46a.3.3,0,0,0-.12.15,1.74,1.74,0,0,0-.12.34,11.42,11.42,0,0,1,1.77-.21c1.25-.1,2.44-.19,3.15-.92.09-.09.18-.21.27-.31a4.62,4.62,0,0,1,1.83-1.46,2.66,2.66,0,0,1,1-.09h.15a1.47,1.47,0,0,0,.12-.52,1.6,1.6,0,0,1,.22-.52l.27-.24c.28-.16.55-.31.86-.46l.15-.06.76-.19c.43-.09.49-.18.71-.67a4.11,4.11,0,0,1,1.31-1.74l.15-.09c1.41-.64,2.47-1.19,3.54-1.77a32.81,32.81,0,0,1,3.09-1.53.92.92,0,0,1,.42-.52c.74-.42,1.5-.91,2.26-1.37,1.9-1.22,3.88-2.5,5.93-2.75a7.08,7.08,0,0,0,3.6-2,16.51,16.51,0,0,1,1.83-1.41c0-.15.12-.49.21-1l.16-.36c.76-1.07.39-3.54-.28-5.56a10.89,10.89,0,0,0-1.68-.52,2.88,2.88,0,0,1-2.53-2.75,1.43,1.43,0,0,0-.43-.94.77.77,0,0,0-.52,0l-.67.91-1.34.06a2.15,2.15,0,0,0-.52-.48,2.16,2.16,0,0,1-.83-.61l.16-1.23a21,21,0,0,1-2.39-.61c-.39-.12-.73-.21-1.12-.3h-.37a12.22,12.22,0,0,1-2.72-.58,16.45,16.45,0,0,0-1.62-.43l-.67-.88V39.9a3.18,3.18,0,0,1-1.22.22l-.27,0c-1.1-.31-2.29-.68-3.61-1.1a1.94,1.94,0,0,1-.24.27l-.92.15-.21-.09a5.55,5.55,0,0,0-2.2-.61,3,3,0,0,0-.73.09l-1.07-.91a2.52,2.52,0,0,1,2.26-2.2,1.84,1.84,0,0,0,.79-.31,2.09,2.09,0,0,0,.19-.21l0,0,.33-.21a20.66,20.66,0,0,0,3-1.13,17.54,17.54,0,0,1,4-1.32c2.9-.58,3.09-.67,3.67-1a21.61,21.61,0,0,1,3.33-1.38,15.32,15.32,0,0,1,4.06-.73l.21,0h.06l1-.09c.18,0,.46,0,.73-.06.58,0,1.28-.09,2-.19l.64.16a.75.75,0,0,0-.43-.13L381,29l.22-.06a8.6,8.6,0,0,0,.94-.24l.1,0c.21-.06.42-.09.67-.15h.33l.12,0,1.1.33.43.64,5.56-2.07h.09c.49,0,.82-.06,1.07-.06a3.55,3.55,0,0,1,1.65.67,5.36,5.36,0,0,0,.85.46A3.82,3.82,0,0,1,397.63,30c.8,1.19.77,2.93-.15,4.89a14.63,14.63,0,0,1-1.56,2.65,6.23,6.23,0,0,0-1.4,3.85,2.31,2.31,0,0,0,.15.79l0,.12-.06.65c-.49,1-1,2-1.49,3v.61l-.34.64a4.42,4.42,0,0,0-1.5,2.81,9.8,9.8,0,0,1-.33,1.16,8.54,8.54,0,0,0-.28,1.19l-.06.18c-.4.89-.76,1.77-1.13,2.72l-.18.31c-.18.18-.4.33-.58.48a3.79,3.79,0,0,0,0,1l-.06.37a7.39,7.39,0,0,0-.58,2.84A13.22,13.22,0,0,1,387.8,63l-.06.22a3.91,3.91,0,0,1-1.31,1.46v.19l.27.09.52.94c-.15.83-.3,1.68-.46,2.63l-.39.61a3.29,3.29,0,0,0-.46.28c-1.31.85-1.34,1.89-1.22,3.54.12.12.27.21.4.33a4.46,4.46,0,0,1,.76.68,1.16,1.16,0,0,0-.06-.71l0-.09a4.4,4.4,0,0,1-.25-1l.31-.76c.27-.21.55-.46.85-.67l1,.52a.18.18,0,0,1,0-.12l.09-.46.18-.76.22-.4a8.91,8.91,0,0,0,.7-.8,3.29,3.29,0,0,1,0-.94l.89-.77H390a1.21,1.21,0,0,1,1,.31l.21.73a2.45,2.45,0,0,1-.18.64c0,.1.06.22.09.31a0,0,0,0,1,0,0A28.69,28.69,0,0,0,394,63.38c.09-.27.21-.55.3-.82a4.77,4.77,0,0,1,.22-.52l.46,0-.25-.25c.15-.15.34-.3.52-.45a4.86,4.86,0,0,0,.8-.77,4.55,4.55,0,0,0,1.22-3c0-.46.09-1,.21-1.8,0-.18.06-.37.09-.58a8.21,8.21,0,0,1,.86-3,4.07,4.07,0,0,1,.85-.95c.67-.64.67-.7.43-1.1l0-.79,1.28-2.87.09-.16a19.16,19.16,0,0,0,3.18-6.41c.15-.43.3-.85.46-1.34a80.16,80.16,0,0,1,4.88-10.66L410,27a3.18,3.18,0,0,1,2.2-1.59c7-.55,11.2-1.53,16.54-3.91,1.62-1.16,3.12-2.19,4.61-3.2a3.77,3.77,0,0,0-1.25-.8,2.64,2.64,0,0,1-.67.43l-1.28-.7a.38.38,0,0,0,0-.18,1.15,1.15,0,0,1,.46-1.32,1.62,1.62,0,0,1,.55-.18,3.27,3.27,0,0,1,.67-.67,13.79,13.79,0,0,0-4.49.18,107,107,0,0,1-12.95,1.8,115,115,0,0,0-15.9,2.75,14.57,14.57,0,0,1-4.22.24c-.45,0-.94,0-1.4,0a3.91,3.91,0,0,0-1.59.22l-.27.06-1.77.06-1.59.43-.31,0-1.61-.12-.89-.07-.58.31-1-.12a.16.16,0,0,0,.13.06,1.75,1.75,0,0,0-.34-.06,21.93,21.93,0,0,0-4.21,0c-.19,0-1,.24-1.5.39a11.08,11.08,0,0,1-1.53.4,18.82,18.82,0,0,1-3.17.25,23.79,23.79,0,0,0-3.27,1.22,27.35,27.35,0,0,1-3.51,1.34c-1,.31-2.08.67-3.08,1l-1.22.39a2.89,2.89,0,0,1-1.62,1.16c-1.68.34-2.6.46-3.15.55l-.36.06a10.87,10.87,0,0,1-2.78,2.08l-.28.24-.33.19-.8.21a14.78,14.78,0,0,0-5.86,2.63,21.13,21.13,0,0,1-1.1,2.07c-.58,1-.61,1.5-.09,2.23a11.71,11.71,0,0,1,1.07,1.93,4.89,4.89,0,0,0,1.83,2.26,1.34,1.34,0,0,1,.46,1.19c.73.42,1.5.85,2.29,1.25l.43,1a1.51,1.51,0,0,0-.06.31,4.34,4.34,0,0,0,1,.58c.71.18,1.38.46,2,.7a11,11,0,0,0,3.57.92,8.54,8.54,0,0,1,1.53.21,3.56,3.56,0,0,0,1.59.12l.24-.06v-.24l.34,0H362a4.17,4.17,0,0,1,1.35.43,4.17,4.17,0,0,0,.58.24,3.9,3.9,0,0,1,1.13.46h.12l.4.15a8.69,8.69,0,0,1,4.39.89,12.22,12.22,0,0,0,2.63.85l.33,1.59a45.28,45.28,0,0,0-5.43,4.24,30.57,30.57,0,0,1-6.63,4.76l-.91-.09a1.17,1.17,0,0,0-.46-.27,1.3,1.3,0,0,0-.18.21,2.92,2.92,0,0,0-.31.64l0,.06-.3.22.15.21a2.12,2.12,0,0,1-.55.8,3.17,3.17,0,0,1-2.6.85c-.39-.09-.7.12-1.34.7-.21.19-.43.37-.67.55s-.4.37-.58.55a3,3,0,0,1-2.47,1.25l-.4.61c-.15.28-.31.52-.46.77l-.24.39c-.28.46-.46.83-.89.92l-.67-.09c-.18-.12-.34-.06-1.1.73A3,3,0,0,1,344.36,71a4.59,4.59,0,0,1,.15,2l.7-.67.86-.19,1.16.4Zm9.74-12.12h0Zm3-12.64a.87.87,0,0,0-.3.76.88.88,0,0,0,.33.58Zm13.34-3.82A1.1,1.1,0,0,0,375,44l-.18-.27Z"/><path class="cls-8" d="M253.65,59.6l-4.72.81.43,2.5,4.72-.81Z"/><path class="cls-8" d="M244.37,70.93l-4.72.81.43,2.5,4.72-.81Z"/><path class="cls-8" d="M376.6,54.07l-4.73.81.43,2.5,4.73-.81Z"/><path class="cls-8" d="M372.05,57.58l-4.72.82.42,2.49,4.73-.81Z"/><path class="cls-8" d="M248.41,58l-2.77.45.4,2.44,2.77-.45Z"/><path class="cls-8" d="M316,47.75l-16.42,2.69.39,2.38,16.42-2.69Z"/><path class="cls-8" d="M300,52.88l-4.73.81.43,2.5,4.73-.81Z"/><path class="cls-8" d="M322.56,47.68l-2.77.45.39,2.44,2.77-.45Z"/><path class="cls-3" d="M428.72,17.9,421,19.16l.36,2.2,7.68-1.26Z"/><path class="cls-3" d="M415.58,16l-4.49.73.36,2.2,4.49-.74Z"/><path class="cls-3" d="M448.16,9.7l-8.65,1.41.36,2.2,8.65-1.41Z"/><path class="cls-3" d="M437.15,11.5l-2.32.38.36,2.2,2.32-.38Z"/><path class="cls-3" d="M441.41,15.72l-2.32.38.35,2.2,2.32-.38Z"/><path class="cls-9" d="M30,15l.67-5.53L31,15l2.84,1-2.9.79-.64,5.53L30,16.76l-2.84-1Z"/><path class="cls-9" d="M29.68,15.78,21.13,8.52l9.52,6.35,1.9-1.62-.89,2.69,8.21,7.29-9-6.53-2.48,1.8Z"/><path class="cls-3" d="M305.64,30.87l-5.21.85.36,2.2,5.21-.85Z"/><path class="cls-3" d="M314.46,24.21l-5.21.86.36,2.2,5.21-.86Z"/><path class="cls-3" d="M268.09,32l-4.52.74.36,2.2,4.52-.74Z"/><path class="cls-3" d="M298.72,27.57,290,29l.36,2.2,8.68-1.4Z"/><path class="cls-3" d="M286.85,28.88l-2.32.38.36,2.19,2.32-.37Z"/><path class="cls-3" d="M306.61,26.22l-2.32.37.36,2.2,2.32-.37Z"/><path class="cls-8" d="M242.6,61.74l-5.21.85.36,2.2,5.21-.85Z"/><path class="cls-3" d="M232.52,63.29l-5.21.86.36,2.2,5.21-.86Z"/><path class="cls-3" d="M216.47,66.64l-8.68,1.41.36,2.2,8.68-1.41Z"/><path class="cls-8" d="M399.48,66.7l-2.32.38.36,2.2,2.32-.38Z"/><path class="cls-3" d="M224.36,65.29l-2.32.38.35,2.2,2.33-.38Z"/><path class="cls-3" d="M159,79l-5.22.86.36,2.2,5.21-.86Z"/><path class="cls-4" d="M152.48,73.37l-8.65,1.41.36,2.2,8.65-1.41Z"/><path class="cls-4" d="M180.74,68.66l-5.33.87.36,2.2,5.33-.87Z"/><path class="cls-4" d="M197.57,65.73l-5.34.87.36,2.2,5.34-.87Z"/><path class="cls-4" d="M173,70,158.1,72.42l.36,2.2,14.86-2.43Z"/><path class="cls-4" d="M141.5,75.17l-2.32.38.36,2.2,2.32-.38Z"/><path class="cls-4" d="M189,67.26l-2.32.38.36,2.2,2.32-.38Z"/><path class="cls-3" d="M150.6,81l-2.33.37.36,2.2,2.32-.37Z"/><path class="cls-10" d="M136.3,127.6v-3.92a6.27,6.27,0,0,0,5.83-8.53,6.05,6.05,0,0,0-3.52-3.52,6.27,6.27,0,0,0-8.53,5.82h-3.93a10.21,10.21,0,0,1,13.39-9.66,9.82,9.82,0,0,1,6.43,6.43A10.2,10.2,0,0,1,136.3,127.6Z"/><path class="cls-11" d="M136.3,123.68h-3.92v-3.92h3.92Z"/><path class="cls-11" d="M132.38,126.68h-3v-3h3Z"/><path class="cls-11" d="M129.39,123.68h-2.51v-2.55h2.51Z"/><path class="cls-10" d="M162.31,113.17A7.42,7.42,0,0,0,158,112h-3.68v11.69H158a7.09,7.09,0,0,0,4.29-1.29,4.69,4.69,0,0,0,1.5-1.86,6.49,6.49,0,0,0,.52-2.75,6.24,6.24,0,0,0-.52-2.71A4.09,4.09,0,0,0,162.31,113.17Zm-5.82.72h1.17a5.74,5.74,0,0,1,3.15.77,3.28,3.28,0,0,1,1.34,3,3.45,3.45,0,0,1-1.34,3.15,5.41,5.41,0,0,1-3.11.77h-1.17v-7.73Z"/><path class="cls-10" d="M166.88,111.79a1.17,1.17,0,0,0-.89.37,1.18,1.18,0,0,0-.36.89,1.21,1.21,0,0,0,.36.89,1.26,1.26,0,0,0,.89.36,1.2,1.2,0,0,0,.89-.36,1.28,1.28,0,0,0,.36-.89,1.18,1.18,0,0,0-.36-.89A1.17,1.17,0,0,0,166.88,111.79Z"/><path class="cls-10" d="M167.89,115.39h-2.06v8.21h2.06Z"/><path class="cls-10" d="M175.41,116.08a3,3,0,0,0-2.06-.89,3.78,3.78,0,0,0-2.83,1.17,4.19,4.19,0,0,0-1.13,3,4.23,4.23,0,0,0,1.09,3,3.81,3.81,0,0,0,2.83,1.17,3,3,0,0,0,2-.65v.2a2.32,2.32,0,0,1-.52,1.58,2,2,0,0,1-1.5.57,2.53,2.53,0,0,1-2.26-1.38l-1.42,1.34,0,0a5.16,5.16,0,0,0,1.38,1.25,4,4,0,0,0,2.3.61,3.92,3.92,0,0,0,3-1.13,4.14,4.14,0,0,0,1.1-3v-7.48h-2v.69Zm-.56,4.85a1.78,1.78,0,0,1-1.42.61,1.76,1.76,0,0,1-1.41-.61,2.73,2.73,0,0,1,0-3.23,1.76,1.76,0,0,1,1.41-.61,1.78,1.78,0,0,1,1.42.61,2.36,2.36,0,0,1,.52,1.61A2.13,2.13,0,0,1,174.85,120.93Z"/><path class="cls-10" d="M181.28,115.39h-2.06v8.21h2.06Z"/><path class="cls-10" d="M180.27,111.79a1.16,1.16,0,0,0-.89.37,1.19,1.19,0,0,0-.37.89,1.22,1.22,0,0,0,.37.89,1.25,1.25,0,0,0,.89.36,1.21,1.21,0,0,0,.89-.36,1.28,1.28,0,0,0,.36-.89,1.25,1.25,0,0,0-1.25-1.26Z"/><path class="cls-10" d="M185.81,113.17h-2v2.22h-1.18v1.9h1.18v3.4a3.17,3.17,0,0,0,.64,2.26,3,3,0,0,0,2.23.65,8.53,8.53,0,0,0,1,0h.08v-1.9l-.73,0a1.42,1.42,0,0,1-1-.24,1.67,1.67,0,0,1-.24-1.09v-3.12h1.94v-1.86h-1.94Z"/><path class="cls-10" d="M199.52,112h-2.06v11.69h2.06Z"/><path class="cls-10" d="M220.43,120.69a7.3,7.3,0,0,1-1.05,1,1.84,1.84,0,0,1-1.09.28,1.82,1.82,0,0,1-1.5-.68,2.58,2.58,0,0,1-.61-1.74,2.54,2.54,0,0,1,.61-1.74,1.92,1.92,0,0,1,1.5-.69,2.76,2.76,0,0,1,2,1.13l1.37-1.29a4,4,0,0,0-3.39-1.7,4,4,0,0,0-2.92,1.21,4.51,4.51,0,0,0,0,6.15,4,4,0,0,0,2.92,1.21,4.07,4.07,0,0,0,3.51-1.82Z"/><path class="cls-10" d="M228.92,116.52a3,3,0,0,0-1.17-1,3.8,3.8,0,0,0-1.7-.36,3.5,3.5,0,0,0-2.79,1.25,4.71,4.71,0,0,0-1,3.08,4.24,4.24,0,0,0,1.13,3.07,4,4,0,0,0,3,1.17,4.14,4.14,0,0,0,3.4-1.66l0,0-1.33-1.29a5,5,0,0,1-.45.48,2.61,2.61,0,0,1-.6.45,2.3,2.3,0,0,1-1.06.24,2.08,2.08,0,0,1-1.41-.48,2.21,2.21,0,0,1-.61-1.26h5.5v-.77a6.41,6.41,0,0,0-.2-1.53A6.84,6.84,0,0,0,228.92,116.52Zm-4.53,1.94a2,2,0,0,1,.53-1,1.47,1.47,0,0,1,1.09-.4,1.77,1.77,0,0,1,1.17.4,1.51,1.51,0,0,1,.41,1Z"/><path class="cls-10" d="M236.85,116a4,4,0,0,0-2.59-.81,4.28,4.28,0,0,0-1.9.44A3.67,3.67,0,0,0,231,117l0,0,1.33,1.25a2,2,0,0,1,1.94-1.17,1.44,1.44,0,0,1,1.05.36,1.09,1.09,0,0,1,.41.89v.41a5.17,5.17,0,0,0-1.54-.25,4.15,4.15,0,0,0-2.51.73,2.43,2.43,0,0,0-.93,2.07,2.4,2.4,0,0,0,.81,1.86,3.07,3.07,0,0,0,2,.68,3.52,3.52,0,0,0,2.19-.85v.69h2v-5.34A2.63,2.63,0,0,0,236.85,116Zm-3.68,4.49a1.66,1.66,0,0,1,1-.25,4.5,4.5,0,0,1,1.58.29v.81a2.61,2.61,0,0,1-1.78.64,1.14,1.14,0,0,1-.81-.24.73.73,0,0,1-.28-.61A.78.78,0,0,1,233.17,120.49Z"/><path class="cls-10" d="M245.79,116.16a3.06,3.06,0,0,0-2.43-1,2.84,2.84,0,0,0-2,.69v-.49h-2v8.21h2.06v-4.53a2.27,2.27,0,0,1,.44-1.46,1.46,1.46,0,0,1,1.22-.52,1.33,1.33,0,0,1,1.09.48,1.94,1.94,0,0,1,.4,1.3v4.77h2.07v-4.81A4,4,0,0,0,245.79,116.16Z"/><path class="cls-10" d="M194.83,116a4,4,0,0,0-2.59-.81,4.25,4.25,0,0,0-1.9.44,3.77,3.77,0,0,0-1.42,1.34l0,0,1.34,1.25a2,2,0,0,1,1.94-1.17,1.45,1.45,0,0,1,1,.36,1.12,1.12,0,0,1,.41.89v.41a5.22,5.22,0,0,0-1.54-.25,4.15,4.15,0,0,0-2.51.73,2.41,2.41,0,0,0-.93,2.07,2.36,2.36,0,0,0,.81,1.86,3,3,0,0,0,2,.68,3.52,3.52,0,0,0,2.19-.85v.69h2v-5.34A2.63,2.63,0,0,0,194.83,116Zm-3.64,4.49a1.64,1.64,0,0,1,1-.25,4.54,4.54,0,0,1,1.58.29v.81A2.63,2.63,0,0,1,192,122a1.14,1.14,0,0,1-.81-.24.73.73,0,0,1-.29-.61A.63.63,0,0,1,191.19,120.49Z"/><path class="cls-10" d="M207,123.8a6,6,0,1,1,6-6A6,6,0,0,1,207,123.8Zm0-9.91a3.89,3.89,0,1,0,3.89,3.89A3.89,3.89,0,0,0,207,113.89Z"/><g class="cls-12"><g class="cls-12"><path class="cls-13" d="M35.8,128.86l-.2-.37v-.24l0-.28a28.4,28.4,0,0,1,.56-5.3l0-.12v-.2l.12-.77v-.25c0-.08,0-.08,0-.08s-.08.21-.32.41l-.16.24-.2.16a5.54,5.54,0,0,0-1.06.65c-.16,0-.24-.12-.24-.32a2.21,2.21,0,0,1,.69-.81,1.19,1.19,0,0,1,.44-.45l.08-.2a3.75,3.75,0,0,1,.65-.85l.16-.12,0-.08.08-.2.25-.41.28-.36.4-.69.53-1,.08,0,.16-.36.29-.61.08-.12.08,0v-.12l.08-.17.2-.16.12-.16c0-.08.08-.08.12-.08a.47.47,0,0,1,.41.52,2.3,2.3,0,0,1-.24,1.06l-.13.36-.24.81-.28.85-.2.48,0,.21-.13.36-.12.16v.16l0,.25-.08.08,0,.28-.28,1-.16.61-.13.52-.2.85-.12.53,0,.24,0,0,0,.12v.08a12.92,12.92,0,0,0-.32,2.07v.12h0l.08-.24v-.17l0,0,0-.16v-.4l0-.12.08-.29.12-.16v-.24l.16-.2,0-.13.08-.2v-.2l.17-.44.08-.33,0-.12v-.12l.24-.81,0-.2.24-.77.33-.77a3.93,3.93,0,0,1,.32-.69l0-.08.08-.32.12-.12v-.16a1,1,0,0,1,.77-.41c.37,0,.57.24.73.73l.2.36.2.29.13.24.08.2.12.24a.59.59,0,0,0,.64.45,10.44,10.44,0,0,0,1.1-.81h.28a.43.43,0,0,1,0,.2A4.33,4.33,0,0,1,41.46,123l-.36,0-.21,0-.24-.08-.2-.2-.16-.24c-.12-.12-.24-.29-.41-.45l-.2-.28-.2-.28-.16.08h-.16l-.13.2-.12.08-.08.2c-.2.61-.44,1-.56,1.5l-.13.08,0,.36-.2.53-.32,1.05-.08.16,0,.33-.21.68-.12.13V127l-.2.48a.76.76,0,0,0-.08.33l-.36.76a.66.66,0,0,0-.08.25.45.45,0,0,1-.37.2A.29.29,0,0,1,35.8,128.86Z"/><path class="cls-13" d="M42.67,122.1c-.28,0-.36.29-.56.37l-.16.12a1.26,1.26,0,0,0-.49.32.15.15,0,0,1-.12,0l0,0v0c0-.2.24-.44.48-.89l.13-.12c.32-.08.28-.36.52-.57a.35.35,0,0,1,.24-.28l.37-.4v-.17l.6-.68.13,0,0-.09,0-.2.16-.24,0,0v-.16l-.08-.25v0c0-.2.36-.64.89-.8l.2-.13.2,0h.45v0h.12l.2.09.08.12.16.12.21,0c.4.36.8.52.93.81l.24.24,0,.08v.16l.08.12,0,.17a2,2,0,0,1,.08.48,11.16,11.16,0,0,1-.65,2.59h.13l.2-.16h.12l.65-.49h.12l.08-.2.28-.24.16-.08.08-.08.21-.21.12-.08a3.27,3.27,0,0,1,1.09-.48c.08,0,.16,0,.16.12a1.78,1.78,0,0,1-.36.61l-.2.24a4.17,4.17,0,0,0-.45.52l-.08.12-.2,0v0l-.12.13-.21.08-.2.24-.08.16-.24,0-.08.12a2.65,2.65,0,0,1-.61.45l-.2.16a.27.27,0,0,0-.28.16l-.29.24h-.16a.42.42,0,0,0-.2.17l-.61,0-.12,0h-.08c-.2,0-.24-.13-.24-.33a2.07,2.07,0,0,1,.2-.73l0-.16.12-.2v-.12l.28-1,0-.08v-.16a5.11,5.11,0,0,0,0-.69A.91.91,0,0,0,46,120l0-.16a1.27,1.27,0,0,1-.61-.33l-.2,0-.12.21-.4.24-.17.2-.12.12-.2.24-.16.29-.41.4-.08.12-.2.08,0,.09-.2.28a.27.27,0,0,1-.28.2Z"/><path class="cls-13" d="M49.79,121.9l-.24.16-.12.09-.2.2a1.94,1.94,0,0,1-.37.2l-.12.08-.2.08c-.08.16-.2.2-.41.2s-.12,0-.16-.16.08-.2.2-.28v-.2l.41-.41.12-.2.12,0a.6.6,0,0,1,.41-.36l0-.13.24-.16.2-.16a.21.21,0,0,0,.08-.16v-.08l.08-.16,0-.13,0-.16a2.59,2.59,0,0,1,.33-.93l.12-.08,0-.12a6,6,0,0,1,1.33-1.54h.08l.08-.08h.09l0-.12a1.5,1.5,0,0,1,.93-.36h.24l.08,0,.36.12.12.16h0a1.61,1.61,0,0,1,.12.41v.16l0,.12v.2l-.08.24v.29l0,.2a3.16,3.16,0,0,1-.45.56l0,.13A9.57,9.57,0,0,1,52,120.69l-.17,0,0,.12-.32.2-.12.16c-.08,0-.08.05-.08.09a1.21,1.21,0,0,0,.12.44l.08.12,0,.2a1.45,1.45,0,0,0,.85.33,1.55,1.55,0,0,0,.65-.2l.12,0,.32-.21h.25l0-.16.56-.48.16-.09.13-.16a1.24,1.24,0,0,1,.52-.24.54.54,0,0,1,.41-.28l.16-.16a.7.7,0,0,1,.24,0c.12,0,.2,0,.2.16a.57.57,0,0,1-.08.24l0,.12a3.27,3.27,0,0,1-.53.57v0c0,.16,0,.2-.24.2a2.42,2.42,0,0,1-.73.73l-.16.12-.08,0a2.59,2.59,0,0,1-.36.32l-.12.12-.21.17a2.18,2.18,0,0,1-1.29.6h-.08l-.2,0-.08,0h-.25a1.08,1.08,0,0,1-.89-.28h-.12l-.2-.2-.12-.2-.08-.09a1.58,1.58,0,0,1-.25-.48l-.08-.36Zm2.59-2.67c0-.16.16-.24.16-.52,0-.12,0-.16-.08-.16h0l-.12.08-.36.32-.33.32-.28.41a.89.89,0,0,0-.12.4,0,0,0,0,0,0,0,.15.15,0,0,0,.12,0h.16s.08,0,.12-.08l.08-.16.17-.16.36-.33Z"/><path class="cls-13" d="M54.65,122.14h-.09a.65.65,0,0,1-.4.29l-.2.16-.16.08c-.08.08-.21.12-.25.2l-.2.08c-.12,0-.2-.08-.2-.2a.24.24,0,0,1,0-.16l.2-.16v-.16c.16-.17.24-.29.37-.45l.12-.2.16,0a.9.9,0,0,1,.36-.41l.16-.2.69-.56.25-.17.08-.2.4-.44.12,0,.12-.21.85-.85.12,0,0-.08.73-.77c.29-.32.45-.48.81-.48a1.77,1.77,0,0,1,.57.16l.12.08.16.2a.84.84,0,0,1,.08.29.24.24,0,0,1,0,.16v.08a2.13,2.13,0,0,1-.12.69l0,.2-.08.4a8.45,8.45,0,0,1-.28,1.3l-.13.4-.16.53-.16.36a.8.8,0,0,1-.16.37v.16l.77-.53.2-.24a1.58,1.58,0,0,0,.61-.53l.16-.16c.08-.24.32-.2.56-.36l.21-.2a.55.55,0,0,0,.32-.17l.24-.12h0a.19.19,0,0,1,.21.16.31.31,0,0,1,0,.17v.16c-.13.12-.29.36-.53.61,0,.16-.12.2-.28.2a2.22,2.22,0,0,1-.61.68l-.12.09-.2.24-.17.08-.24.28a3,3,0,0,1-.77.49l-.2.28-.12.16-.2.08c-.12.21-.2.29-.37.29H58l-.28.4-.4.16-.17.12H57a.26.26,0,0,1-.28-.24v-.08l-.08-.12a3.57,3.57,0,0,1-.29-1.29l0-.21-.16-.4c.25-.41.53-.65.73-.65s.2.16.28.37h.09c.08-.17.12-.37.2-.57v-.32a3.71,3.71,0,0,0,.12-.89v-.21l0-.4-.12-.16-.24,0-.17.2L57,120c-.36.28-.69.73-1.21,1.13l-.24.21-.17.08v.08a2.69,2.69,0,0,1-.6.56Z"/><path class="cls-13" d="M60.75,121.9l-.24.16-.12.08-.2.17a1.68,1.68,0,0,1-.37.2l-.08.12-.2.08c-.08.16-.2.2-.41.2s-.12,0-.16-.16.08-.2.21-.28v-.2l.4-.41.12-.2.12,0a.63.63,0,0,1,.41-.37l0-.12.24-.16.2-.16a.21.21,0,0,0,.08-.16v-.08l.08-.16,0-.13,0-.16a2.52,2.52,0,0,1,.33-.93l.12-.08,0,0a6,6,0,0,1,1.33-1.54h.08l.09-.08h.08l0-.12a1.5,1.5,0,0,1,.93-.36h.24l.08,0,.37.12.12.16h0a1.61,1.61,0,0,1,.12.41v.16l0,.12v.2l-.08.24-.12.21,0,.2a3.16,3.16,0,0,1-.45.56l0,.08a9,9,0,0,1-1.25,1.18l-.17,0,0,.12-.32.2-.12.16s-.08.08-.08.12a1.21,1.21,0,0,0,.12.45l.08.12,0,.2a1.45,1.45,0,0,0,.85.33,1.41,1.41,0,0,0,.65-.21l.12,0,.32-.2h.25l0-.16.56-.49.16-.08.13-.16a1.24,1.24,0,0,1,.52-.24.54.54,0,0,1,.41-.28l.16-.17a.7.7,0,0,1,.24,0c.12,0,.2,0,.2.17a.57.57,0,0,1-.08.24l0,.12a3.57,3.57,0,0,1-.52.57v0c0,.16,0,.2-.25.2a2.54,2.54,0,0,1-.73.73l-.16.12-.08,0a2.59,2.59,0,0,1-.36.32l-.12.12-.21.17a2.18,2.18,0,0,1-1.29.6h-.08l-.2,0-.08,0h-.29a1.08,1.08,0,0,1-.89-.28h-.12l-.2-.2-.12-.21-.08-.08a1.39,1.39,0,0,1-.25-.48l-.08-.37Zm2.59-2.67c0-.16.16-.24.16-.52,0-.12,0-.17-.08-.17h0l-.12.09-.36.32-.33.32-.28.41a.89.89,0,0,0-.12.4,0,0,0,0,0,0,0,.15.15,0,0,0,.12,0h.16s.08,0,.12-.08l.08-.16.17-.16.36-.33Z"/><path class="cls-13" d="M66,120.53a16.53,16.53,0,0,1,2.51-2.67l.2,0,.2-.12.2-.09.13,0h.12c.36.24.48.44.48.68a1,1,0,0,1-.08.45l0,.32c0,.24-.12.45-.16.61l-.12.2v.16a13.34,13.34,0,0,0-.49,1.26l-.08.12s0,.08,0,.16-.16.2-.16.4v.08l.41-.36a5.18,5.18,0,0,1,.6-.69l.12,0,0-.08v-.12a.74.74,0,0,1,.21-.28l.28-.17.12-.2a2.38,2.38,0,0,1,1.62-.89c.32,0,.56.12.61.33l.16.2c.12.28.28.61.4.93l0,.2c.24.16.24.65.57.65a.51.51,0,0,0,.24,0l.08,0,.08-.12.2-.17.17-.16c.6-.16.93-.69,1.25-.69.12,0,.16,0,.16.21a2.94,2.94,0,0,0-.08.32l-.12.16a15.71,15.71,0,0,1-1.13,1.22l-.08.08-.17.08c0,.2-.16.24-.36.36l-.12.12-.37.16a.86.86,0,0,0-.32,0c-.4,0-.85-.4-1.13-1.09v-.2a7.74,7.74,0,0,1-.61-.65.68.68,0,0,0-.2-.08c-.16,0-.41.2-.73.49l-.16,0-.16.2a.86.86,0,0,1-.45.32l-.24.41c-.61.65-1,1.09-1.25,1.33a1.09,1.09,0,0,1-1,.49c-.21,0-.29,0-.37-.28v-.25l0-.08,0-.16c.32-1.13.49-1.74.49-1.86l.12-.24.08-.16a.38.38,0,0,1,0-.13c0-.2.2-.44.2-.76,0,0-.08-.09-.16-.09-.49,0-.53.41-.77.57l-.2.28-.2.21-.13,0-.08,0-.08.08-.08.12c-.08,0-.16.08-.16.12l-.16.12a5.48,5.48,0,0,1-1.54,1,.19.19,0,0,1-.2-.2c0-.12.08-.2.24-.32v-.16a5.39,5.39,0,0,1,1-1.06v0s0,0,0,0,.08,0,.13-.2l.12-.12.2-.16Z"/><path class="cls-13" d="M79.72,115a.48.48,0,0,1,.32.08c.09,0,.13,0,.13.08v0a5.7,5.7,0,0,0,.08.85c0,.36-.12.44-.49.44h-.48a3.07,3.07,0,0,1-.29.69c0,.08,0,.12,0,.16s0,.12-.12.2a32.22,32.22,0,0,0-.85,4v0s0,.12,0,.16v.08a4.16,4.16,0,0,0-.12,1,.28.28,0,0,0,.16.2.84.84,0,0,0,.37-.2h.24s0-.12,0-.16a.12.12,0,0,1,0-.08c.28-.24.57-.45.81-.65,0-.12,0-.16.16-.2a3,3,0,0,0,.49-.4h.08l0-.13a1.35,1.35,0,0,1,.48-.24,1.62,1.62,0,0,1,.41-.32l.12,0a.72.72,0,0,1,.36-.16c.08,0,.2,0,.2.12a.57.57,0,0,1-.08.24l0,.12a3.88,3.88,0,0,1-.56.61c0,.16,0,.2-.25.2l-.12.2-.28.28c-.24.29-.4.45-.53.49a.11.11,0,0,0-.12.12,2.48,2.48,0,0,1-.73.77c-.12,0-.16.08-.2.2a3.68,3.68,0,0,1-1.13,1h0a.45.45,0,0,1-.32.12h-.13l0,0a.31.31,0,0,0-.12,0c-.08,0-.12,0-.16-.12-.52-.12-.61-.36-.61-1v-.32c0-.08,0-.12,0-.16v-.29a1.44,1.44,0,0,1,.13-.6l0-.13s0-.08,0-.16v-.08a6.41,6.41,0,0,1,.4-1.49c.12-.13.2-.21.2-.25a.15.15,0,0,0,0-.12l0-.28-.12.2c-.16.08-.24.24-.36.49s-.33.16-.37.4l-.2.2c-.08.16-.12.25-.24.25s-.2,0-.2.2l0,.16-.21.16c-.12.08-.2.16-.2.28l-.12.09a.87.87,0,0,0-.41.28.71.71,0,0,0-.32.2,1.4,1.4,0,0,0-.36.24l-.16.12a.41.41,0,0,1-.21.05c-.16,0-.2-.05-.2-.21v0a.25.25,0,0,1,.24-.2v-.24A1.73,1.73,0,0,0,74,122v-.12l.28-.16a1,1,0,0,1,.37-.36l.12-.17a.4.4,0,0,0,.2-.16l.2,0v-.16a8,8,0,0,1,.73-.85,2.86,2.86,0,0,1,.61-.89c.12,0,.16,0,.16-.12a.31.31,0,0,0,0-.12,2.15,2.15,0,0,0,.4-.73c.24,0,.24-.48.69-1.21a1,1,0,0,0,.24-.41l-.24,0a1.21,1.21,0,0,1-.45.12c-.12,0-.28,0-.4,0a.31.31,0,0,0-.12,0h-.12a.3.3,0,0,0-.16,0h-1a.28.28,0,0,1-.16-.2.7.7,0,0,1-.16.2H75a1,1,0,0,1-.4-.16c-.21,0-.21-.08-.21-.28s0-.36,0-.69v-.24h.08s0,0,.13-.08a4.59,4.59,0,0,1,.56-.08,3.13,3.13,0,0,1,.61,0c.24,0,.48,0,.73,0a2.32,2.32,0,0,1,.4,0h.08a.3.3,0,0,0,.16,0h.37a1.84,1.84,0,0,1,.4,0l.08.08a1.09,1.09,0,0,0,.45-.08c.24-.53.36-.85.4-1a.62.62,0,0,1,.33-.33v0c0-.16.28-.28.48-.28s.2,0,.28.2a.59.59,0,0,1,.09.24A2.23,2.23,0,0,0,79.72,115Z"/><path class="cls-13" d="M80.61,121.9l-.24.16-.12.08-.21.17a1.62,1.62,0,0,1-.36.2l-.12.08-.2.08c-.08.16-.2.2-.41.2s-.12,0-.16-.16.08-.2.2-.28v-.21l.41-.4.12-.2.12,0a.62.62,0,0,1,.4-.37l0-.12.24-.16.2-.16a.21.21,0,0,0,.08-.16v-.08l.08-.17,0-.12,0-.16a2.35,2.35,0,0,1,.33-.93l.12-.08,0-.12a6,6,0,0,1,1.33-1.54h.08l.08-.08h.08l0-.12a1.54,1.54,0,0,1,.93-.36h.25l.08,0,.36.12.12.16h0a2,2,0,0,1,.13.4v.16l0,.13v.2l-.09.24-.12.2,0,.21a2.69,2.69,0,0,1-.44.56l0,.12a9.08,9.08,0,0,1-1.26,1.18l-.16,0,0,.12-.32.2-.12.16s-.08.08-.08.12a1.25,1.25,0,0,0,.12.45l.08.12,0,.2a1.18,1.18,0,0,0,1.49.12l.13,0,.32-.2h.24l0-.16s.25-.2.57-.49l.16-.08.12-.16a1.28,1.28,0,0,1,.53-.24.58.58,0,0,1,.4-.29l.16-.16a.78.78,0,0,1,.25,0c.12,0,.2,0,.2.16a.57.57,0,0,1-.08.25l0,.12a3.29,3.29,0,0,1-.53.56v0c0,.16,0,.2-.24.2-.16.32-.45.48-.73.73l-.16.12-.08,0a2.17,2.17,0,0,1-.37.32l-.12.12-.2.16a2.14,2.14,0,0,1-1.29.61h-.08l-.21,0-.08,0h-.2a1.08,1.08,0,0,1-.89-.28h-.12l-.2-.2-.12-.21-.08-.08a1.23,1.23,0,0,1-.25-.48l-.08-.37Zm2.59-2.67c0-.16.16-.24.16-.52,0-.13,0-.17-.08-.17h0l-.16.08-.37.33-.32.32-.28.41a.89.89,0,0,0-.12.4,0,0,0,0,0,0,0,.15.15,0,0,0,.12,0h.16s.08,0,.12-.08l.08-.16.16-.16.37-.33Z"/><path class="cls-13" d="M93.47,121.3l.21-.13c.12-.16.2-.2.28-.2l.4-.2.2-.24a.25.25,0,0,0,.25-.12.47.47,0,0,1,.28-.17h.12a.21.21,0,0,1,.08.17s0,.16-.08.32l-.2.32-.28.29c0,.2-.08.24-.29.24a.51.51,0,0,1-.44.4l-.08.08-.16.08a.49.49,0,0,1-.33.17,1.69,1.69,0,0,0-.28.2.73.73,0,0,0-.41.12l-.12,0h-.4a2.14,2.14,0,0,1-.93-.32l0-.08A1.88,1.88,0,0,1,91,122l0-.12,0,0a1.25,1.25,0,0,1-.2-.4s0-.08,0-.12,0-.13-.12-.21a.53.53,0,0,0-.12-.4l0-.2-.08-.21a2.77,2.77,0,0,0-.28.37.48.48,0,0,0-.25.32c-.16.08-.24.16-.24.33l0,.12c-.12.12-.24.28-.4.44l-.21.12-.08.21a10.43,10.43,0,0,1-.77.89l-.28.2-.2.2a2.15,2.15,0,0,0-.45.4L87,124h-.52a1.31,1.31,0,0,0-.21.05.48.48,0,0,1-.36-.33v-.08l0,0v-.12l0-.08a4,4,0,0,1,.32-1.42l.08-.32a6.84,6.84,0,0,0-.56.44l-.21.08a.41.41,0,0,1-.36.21c-.44.32-.69.52-.81.52s-.12,0-.16-.12l0-.16a.33.33,0,0,1,.2-.2v-.2a.41.41,0,0,1,.29-.25,1.9,1.9,0,0,1,.4-.4c.08-.2.16-.33.4-.37l.09-.2.16,0q0-.18.24-.24H86s.08,0,.12-.16c.2-.21.41-.37.65-.61.24-.08.36-.12.36-.28v0s.29-.25.73-.69l.08-.12.29-.2.32-.29a9.43,9.43,0,0,1,1.17-1l.77-.61a.89.89,0,0,1,.4-.12,3.37,3.37,0,0,0,.25-.85l.08-.12a13.73,13.73,0,0,1,.81-2.22l.12-.12v-.08a.58.58,0,0,1,.2-.45.72.72,0,0,0,.2-.28l.16-.2,0-.25a3.42,3.42,0,0,1,.49-.73l.16-.2.2-.12.09,0,.08-.08a.94.94,0,0,1,.32.08l.08.16,0,.08.08.09v.08A2.1,2.1,0,0,1,94,112v.21a1.71,1.71,0,0,1-.24.68v.17a2.84,2.84,0,0,1-.21.68l-.08.08v.08l-.2.25v.12a.36.36,0,0,0-.16.32v.16a2.39,2.39,0,0,1-.36.89.23.23,0,0,0-.13.21V116a3.37,3.37,0,0,1-.24.56c-.12,0-.16,0-.16.08a.46.46,0,0,0,0,.17,6.94,6.94,0,0,1-.4.89l-.09.2a1.81,1.81,0,0,0-.12.64v.13l0,.2,0,.2a4.74,4.74,0,0,0,.17,1.34s0,.08,0,.12,0,.08.13.12l.12.28a.87.87,0,0,1,.2.32,1.76,1.76,0,0,0,.44.21c.13,0,.21,0,.29,0a1.73,1.73,0,0,1,.2,0Zm-5,0c.36-.37.6-.73.81-1l.12,0,.12-.2c.36-.48.61-1,.85-1.29a3.74,3.74,0,0,1,.12-1h-.2l-.08.16-.12.16c-.17.2-.33.32-.41.45l-.08.08-.16.08v.12l-.77,1a.83.83,0,0,0-.24.4,2,2,0,0,0-.29.41.58.58,0,0,0-.24.36.44.44,0,0,1-.2.37,3.7,3.7,0,0,1-.2.4c0,.16-.16.28-.16.49a.3.3,0,0,0,.16,0c.08,0,.16-.08.28-.25l.16-.12c.2-.24.29-.44.45-.44Z"/><path class="cls-13" d="M98.77,121.94l-.2.2s-.08.09-.12.09h0s-.57.24-.61.36a2.15,2.15,0,0,0-.32,0,.18.18,0,0,1-.12-.16c0-.12.16-.12.16-.29v-.12l.16-.16s.24-.36.85-1l.2-.12c.24-.28.49-.45.57-.77v-.16c.16-.65.12-1,.28-1.25v-.21c.08-.36.2-.89.4-1.53l.21-.53v-.16a17.63,17.63,0,0,1,1.13-2.91l0-.16a6.06,6.06,0,0,1,.89-1.54l.12-.2a.65.65,0,0,1,.41-.33l.2,0a2,2,0,0,1,1-.4.36.36,0,0,1,.4.4.43.43,0,0,1,0,.2.83.83,0,0,1,.08.21.57.57,0,0,1-.08.24v.24c-.08.53-.28,1-.32,1.42l-.08.08a12,12,0,0,1-.69,1.7l-.28.68c-.12.21-.12.33-.2.33s0,0-.09,0,0,0,0,.12a.51.51,0,0,1,0,.24,1.06,1.06,0,0,0-.2.24c-.08.33-.12.49-.24.49a.3.3,0,0,1-.16,0l0,.16v.12a.73.73,0,0,1-.21.49l0,.16a8,8,0,0,0-.85,1.42l-.2.16a.64.64,0,0,1-.24.52,4.24,4.24,0,0,0,0,.77v.61c0,1,.28,1.53.65,1.53a1.53,1.53,0,0,0,.68-.28c.65-.77,1.06-1.13,1.06-1.21l-.21-.24s0,.12-.2.32l-.16.2,0,.12c-.08.08-.12.16-.2.16s-.41-.16-.41-.4a.67.67,0,0,1,.16-.44,2.36,2.36,0,0,1,.61-1l.2-.24c.33-.4.49-.61.81-.61a.73.73,0,0,1,.28,0h.45c.16,0,.24.08.24.28a.9.9,0,0,1,0,.28l-.08.41a1.4,1.4,0,0,1-.24.56l-.16.33a9.6,9.6,0,0,1-1,1.65l-.21.17a5.06,5.06,0,0,1-.93.93l-.2,0-.08.12a1.62,1.62,0,0,1-.89.32c-.93,0-1.33-1-1.33-2.91v-.12A1.33,1.33,0,0,1,98.77,121.94Zm4.33-9.06a3.29,3.29,0,0,1-.45.57v0a14.83,14.83,0,0,1-.85,1.66v.12c-.32.44-.2.81-.48.85v.2a10.54,10.54,0,0,0-.65,2.22s0,0,0,0,.16-.21.37-.57c0-.2.16-.41.4-.69l0-.28c.16-.61.57-.85.57-1.21.08,0,.12-.09.12-.17v-.08c0-.12.16-.2.16-.4l.08-.12v-.17a8.81,8.81,0,0,0,.65-1.69Z"/><path class="cls-13" d="M113.21,122.15l0,.08a1.19,1.19,0,0,1-.53.4v.08a.27.27,0,0,0-.28.2l0,0,0,.09a1,1,0,0,0-.36.36c-.21.12-.33.2-.37.32-.24.25-.52.57-.85.93a2.36,2.36,0,0,1-.24.33,3.8,3.8,0,0,1-.4.68.75.75,0,0,1-.29.49l0,.12-.12.08,0,.12,0,0a.3.3,0,0,1-.2.33,1.37,1.37,0,0,1-.29.48l-.24.41-.28.36-.24.32-.09.17a.82.82,0,0,0-.32.32,2.29,2.29,0,0,1-.85.81,3.46,3.46,0,0,1-.65.16.65.65,0,0,1-.36-.12l0-.12v-.16l0-.17c.16-.28.28-.6.53-1,0-.08.16-.12.28-.2a.18.18,0,0,0,0-.12c0-.08.12-.16.32-.32v-.08a.2.2,0,0,1,.08-.17l.81-1,.16-.12a.74.74,0,0,1,.17-.36c.36-.45.72-.89,1.13-1.34.08-.2.16-.4.2-.52l0,0,.16-.41v-.08a1.71,1.71,0,0,0,.2-.65.49.49,0,0,0,.17-.4v-.16a1,1,0,0,0,.08-.37l0-.08v0a2.13,2.13,0,0,0,.08-.69v-.08h-.08l-.08.17a8.56,8.56,0,0,1-.69.56l0,.12-.08,0-.2.29c-.17.16-.41.36-.69.64-.2.12-.37.12-.41.29a1.59,1.59,0,0,1-1,.64h-.08c-.57,0-.73,0-.73-.76v-.13a.18.18,0,0,1,0-.12s0-.08-.12-.12v-.24a3.34,3.34,0,0,0,0-.65l-.08,0h-.08l-.08,0,0,.12c-.24,0-.37.25-.53.25a.74.74,0,0,1-.48.28l-.2.2a.49.49,0,0,0-.33.24,1.63,1.63,0,0,1-.28.08.18.18,0,0,1-.16-.2v-.08l.24-.2v-.2a1.73,1.73,0,0,1,.4-.41l.08-.2.21,0a.36.36,0,0,1,.36-.36h0l0-.21.12-.08a2.63,2.63,0,0,0,.49-.36l.2-.12,0-.21c.81-.8,1.13-1.41,1.58-1.41a.57.57,0,0,1,.56.57v.12l0,.12v.08a.22.22,0,0,1-.08.2l-.08.41a7.29,7.29,0,0,0-.36,1.53.43.43,0,0,0,0,.2l0,.05.12-.05a2.89,2.89,0,0,1,.73-.56,2.61,2.61,0,0,0,.52-.61l.21-.16.2-.2a5.79,5.79,0,0,1,.69-.73l.08-.12c.32-.32.6-.61.89-.85l0-.16c.36-.29.52-.49.85-.49s.56.16.56.33a2.84,2.84,0,0,0-.08.56l-.12.33,0,.16a16.22,16.22,0,0,1-.85,2.59v.08l-.12.4.16,0c.16,0,.2,0,.2-.16v0a2.08,2.08,0,0,1,.93-.81,2.35,2.35,0,0,1,.61-.61l.28-.12c.17,0,.21-.12.29-.24l.28-.16c.12-.12.2-.21.32-.21s.29,0,.29.13a.12.12,0,0,1,0,.08.51.51,0,0,0,0,.24,3.18,3.18,0,0,1-.61.61c0,.2,0,.24-.24.24a2,2,0,0,1-.49.52Z"/></g></g><g class="cls-12"><path class="cls-13" d="M303.13,122c-.08,0-.08-.08-.16-.08s-.08,0-.12.08l-.12.12c-.17.17-.33.13-.41.29l-.16.08-.12.12-.16.12a.47.47,0,0,1-.21,0h-.12l0-.08c0-.2,0-.32.16-.36v-.21c.17-.12.29-.28.45-.4l0-.2h.08c.12,0,.16,0,.2-.16l.08-.17.29-.12a1.09,1.09,0,0,1,.32-.4,3.32,3.32,0,0,1,.53-.41l.12,0a.88.88,0,0,1,.36-.44l.28-.24c.21-.25.41-.45.49-.53l.16,0v-.12l.65-.49.24-.16a.4.4,0,0,1,.2-.16l.17-.16.12-.08a1,1,0,0,1,.4-.33l.08,0,.08-.12.85-.61.25-.16a.53.53,0,0,1,.28-.12c.12,0,.16-.08.24-.08h.24c.21,0,.41.16.41.24a.12.12,0,0,1,0,.08s.08,0,.08.09-.16.48-.77.76l-.12.17c0,.12-.28.28-.73.68l-.16.08-.12.17-.16.16-.17.2-.16.08,0,.12-.24.24-.16.21-.16.08c-.17.2-.33.44-.61.77l-.32.28-.29.28a.75.75,0,0,1-.16.29l-.12.32h.08a.3.3,0,0,0,.16,0l.2-.16.17,0,.12-.08.16-.21.08,0H306c0-.16.12-.16.24-.24l0-.12.21-.16a5,5,0,0,1,.77-.61l.28-.32.36-.33a1,1,0,0,1,.81-.32c.16,0,.32.16.32.49v0l0,.16v.52l0,.16,0,.13v.24c.13.36.33.57.65.57.16,0,.65-.37.65-.49s.16-.08.48-.24l.21-.25a.32.32,0,0,0,.32-.16l.12-.08h.12c.12,0,.16,0,.2.16v0a.37.37,0,0,1-.12.25,2.27,2.27,0,0,1-.48.6l0,.21-.2,0a.59.59,0,0,1-.45.4.94.94,0,0,1-.4.32,1.22,1.22,0,0,1-1,.53,1.39,1.39,0,0,1-1.45-1.54v-.36a.72.72,0,0,0-.28.2l-.17.16-.32.16-.2.21c-.08.08-.16.16-.2.16h-.13c0,.32-.68,1-1.65,1.41a1.48,1.48,0,0,1-.73.29.83.83,0,0,1-.73-.69,2.57,2.57,0,0,1,.24-.81l.16-.4C303.25,121.66,303.25,122,303.13,122Z"/><path class="cls-13" d="M310.69,120.41a13.75,13.75,0,0,1,2.47-2.59l.16,0,.2-.12.21-.09.12.05H314c.32.24.48.44.48.64a1,1,0,0,1-.08.45l0,.32c0,.24-.12.45-.16.61l-.12.16V120c-.2.45-.32.85-.49,1.25l-.08.09s0,.08,0,.16-.16.2-.16.36v.08l.37-.32a2.84,2.84,0,0,1,.56-.65l.12,0,0-.08v-.12a.74.74,0,0,1,.21-.28l.28-.17.12-.2a2.58,2.58,0,0,1,1.58-.89.59.59,0,0,1,.61.33l.16.16c.12.28.28.56.4.89l0,.2c.24.16.24.65.57.65a.51.51,0,0,0,.24,0l.08,0,.08-.13.2-.16.17-.16c.6-.16.89-.65,1.25-.65.12,0,.16,0,.16.17a2.94,2.94,0,0,0-.08.32l-.12.16a9.22,9.22,0,0,1-1.09,1.17l-.08.08-.17.09c0,.2-.16.24-.36.32l-.12.12-.37.16a.8.8,0,0,1-.32.12c-.36,0-.81-.36-1.09-1.09v-.16a4.3,4.3,0,0,1-.61-.65.43.43,0,0,0-.2,0c-.16,0-.36.16-.73.49H315l-.16.2a.82.82,0,0,1-.45.32l-.24.37a9.79,9.79,0,0,1-1.25,1.29,1,1,0,0,1-1,.49c-.21,0-.29,0-.33-.29v-.24l0-.08,0-.16c.33-1.09.49-1.7.49-1.78l.12-.24.08-.17a.31.31,0,0,1,0-.12c0-.16.2-.44.2-.77,0,0-.08-.08-.16-.08-.48,0-.52.41-.73.53l-.2.28-.2.16-.12,0,0,.05,0,.08-.08.12c-.09,0-.17.08-.17.12l-.16.16a6.11,6.11,0,0,1-1.49,1,.15.15,0,0,1-.17-.16c0-.12.08-.2.25-.32v-.17c.6-.72,1-1,1-1v0s0,0,0,0,.08,0,.12-.16l.12-.12.16-.16Z"/><path class="cls-13" d="M327,121.17l.2-.12c.13-.16.21-.2.29-.2l.4-.16.2-.24a.28.28,0,0,0,.25-.13.4.4,0,0,1,.28-.16h.12a.21.21,0,0,1,.08.16,2.77,2.77,0,0,1-.08.33l-.2.32-.28.28c0,.17-.08.25-.29.25a.51.51,0,0,1-.44.4l-.08.08-.16.08a.56.56,0,0,1-.33.17,1.69,1.69,0,0,0-.28.2.73.73,0,0,0-.41.12l-.12,0h-.4a2.32,2.32,0,0,1-.93-.32l0-.08a1.33,1.33,0,0,1-.29-.29l0-.12,0,0a1.25,1.25,0,0,1-.2-.4s0-.09,0-.13,0-.12-.12-.16a.53.53,0,0,0-.12-.4l0-.2-.08-.21c-.12.13-.2.25-.29.33a.68.68,0,0,0-.24.32c-.16.08-.24.16-.24.32l0,.13c-.12.12-.24.28-.41.44l-.2.12-.08.16a5,5,0,0,1-.73.85l-.28.16-.16.17a2.43,2.43,0,0,0-.45.4l-.2.08H320a1.58,1.58,0,0,0-.21,0,.38.38,0,0,1-.32-.32v-.08l0,0v-.12l0-.08a3.63,3.63,0,0,1,.32-1.38l.08-.32-.56.44-.2.08a.49.49,0,0,1-.33.2c-.44.33-.65.49-.81.49s-.12,0-.16-.12l0-.16a.2.2,0,0,1,.2-.16V122c0-.12.17-.16.29-.24a1.9,1.9,0,0,1,.4-.4c.08-.21.16-.33.37-.37l.08-.16.16,0c0-.12.08-.16.24-.24h.08s.08,0,.12-.16a4.38,4.38,0,0,1,.65-.57c.24-.08.32-.12.32-.28v0s.29-.25.69-.65l.08-.12.28-.21.33-.28a10.78,10.78,0,0,1,1.13-1l.77-.61a.89.89,0,0,1,.4-.12,6.15,6.15,0,0,0,.25-.81l.08-.12a11.67,11.67,0,0,1,.81-2.14l.12-.12v.12a.87.87,0,0,1,.16-.45.4.4,0,0,0,.16-.28l.16-.16,0-.24a2.11,2.11,0,0,1,.49-.69l.16-.2.16-.13.08,0,.08-.08a.94.94,0,0,1,.33.08l.08.17,0,.08.08.08v.08a1.78,1.78,0,0,1-.16.65v.16a1.67,1.67,0,0,1-.25.69v.16a2.41,2.41,0,0,1-.2.64l-.08.09v.08l0,.12v.12a.36.36,0,0,0-.16.32v.16a1.87,1.87,0,0,1-.36.89.22.22,0,0,0-.13.17V116a3,3,0,0,1-.24.52c-.12,0-.16,0-.16.08a.46.46,0,0,0,0,.17,3.76,3.76,0,0,1-.4.89l-.09.2a1.81,1.81,0,0,0-.12.64v.13l0,.2,0,.2a4.7,4.7,0,0,0,.16,1.29c0,.05,0,.09,0,.13s0,.08.13.12l.12.28a.49.49,0,0,1,.16.32,2.2,2.2,0,0,0,.44.21c.13,0,.21,0,.29,0s.12,0,.16,0Zm-4.85,0a5.71,5.71,0,0,0,.77-.93l.12,0,.12-.2c.36-.48.57-.93.81-1.25a3.43,3.43,0,0,1,.12-.93h-.16l-.08.16-.12.16a2.65,2.65,0,0,0-.41.45l-.08.08-.16.08v.12c-.12.16-.36.48-.77,1a.83.83,0,0,0-.24.4,2,2,0,0,0-.29.41.62.62,0,0,0-.24.32.45.45,0,0,1-.2.37,1.62,1.62,0,0,1-.2.36c0,.16-.16.28-.16.49a.3.3,0,0,0,.16,0c.08,0,.16-.09.28-.25l.16-.12c.2-.24.29-.44.45-.44Z"/></g><path class="cls-10" d="M271.21,115.24a1.17,1.17,0,0,0-.67-.36l-1-.15L268.6,121l1,.15a1.29,1.29,0,0,0,.73-.15.93.93,0,0,0,.45-.73l.61-4.15A.84.84,0,0,0,271.21,115.24Zm18.51-8.06L268.21,104a2.64,2.64,0,0,0-3,2.24l-3.16,21.55a2.64,2.64,0,0,0,2.25,3L285.81,134a2.64,2.64,0,0,0,3-2.24L292,110.18A2.66,2.66,0,0,0,289.72,107.18Zm-17.18,13.33a2.73,2.73,0,0,1-3.3,2.4l-2.76-.39,1.45-9.88,2.82.42a2.77,2.77,0,0,1,2.43,3.24Zm6.79-4.42-3.18-.45-.34,2.3,1.94.27-.27,1.76-1.94-.27-.33,2.3,3.18.45-.27,1.76-3.73-.54a1.23,1.23,0,0,1-1.06-1.37l1.09-7.48a1.22,1.22,0,0,1,1.36-1.06l3.79.54Zm5.18,7.79c-1.06,1.73-2.42,1.15-2.85-.43l-1-9,1.94.28.79,7.06,2.76-6.55,1.94.27Z"/><path class="cls-10" d="M343.37,110.43a2.52,2.52,0,1,1-2.52-2.51,2.52,2.52,0,0,1,2.52,2.51"/><path class="cls-10" d="M346.35,119.81l1.7-5.53a3.72,3.72,0,0,1,7.1,0l1.72,5.53L360,109.67a2.51,2.51,0,0,1,4.91.76,2.18,2.18,0,0,1-.08.63L360.22,126a3.49,3.49,0,0,1-6.71,0l-1.9-6.2L349.7,126a3.49,3.49,0,0,1-6.71,0l-2.44-8a2.35,2.35,0,0,1-.11-.75,2.51,2.51,0,0,1,4.92-.73Z"/><path class="cls-9" d="M377.57,113.68a.82.82,0,0,1-.25-.61V113a.82.82,0,0,1,.25-.61.87.87,0,0,1,.62-.26h.1a.89.89,0,0,1,.87.87v.07a.89.89,0,0,1-.87.87h-.1a.87.87,0,0,1-.62-.26m.11,10.58a.72.72,0,0,1-.22-.54v-7.31a.78.78,0,0,1,.22-.56.73.73,0,0,1,.54-.23.79.79,0,0,1,.79.79v7.31a.73.73,0,0,1-.23.54.79.79,0,0,1-.56.23.73.73,0,0,1-.54-.23"/><path class="cls-9" d="M383.29,124a4,4,0,0,1-1.53-1.56,5.24,5.24,0,0,1,0-4.83,4,4,0,0,1,1.53-1.56,4,4,0,0,1,2-.54,3.93,3.93,0,0,1,2.92,1.29v-4.17a.7.7,0,0,1,.23-.56.76.76,0,0,1,.55-.23.75.75,0,0,1,.55.23.82.82,0,0,1,.22.56v11.06a.76.76,0,0,1-.22.54.74.74,0,0,1-.55.22.75.75,0,0,1-.55-.22.69.69,0,0,1-.23-.54v-.44a3.93,3.93,0,0,1-2.92,1.29,4,4,0,0,1-2-.54m3.7-1.26a4.08,4.08,0,0,0,1.22-.93v-3.57a4.08,4.08,0,0,0-1.22-.93,3.12,3.12,0,0,0-1.47-.35,2.64,2.64,0,0,0-2,.8,3.72,3.72,0,0,0,0,4.53,2.68,2.68,0,0,0,2,.8,3.12,3.12,0,0,0,1.47-.35"/><path class="cls-9" d="M393.09,123.39a4.55,4.55,0,0,1-1.17-3.34,5.49,5.49,0,0,1,.45-2.23,3.77,3.77,0,0,1,1.36-1.65,4.36,4.36,0,0,1,4.45,0,3.74,3.74,0,0,1,1.39,1.56,4.83,4.83,0,0,1,.48,2.14.77.77,0,0,1-.21.55.74.74,0,0,1-.57.22h-5.78a2.83,2.83,0,0,0,.89,1.86,3.06,3.06,0,0,0,2.09.66,5.25,5.25,0,0,0,1.26-.13,6,6,0,0,0,1-.4.78.78,0,0,1,.31-.06.72.72,0,0,1,.48.18.66.66,0,0,1,.2.48.74.74,0,0,1-.44.63,5.87,5.87,0,0,1-1.31.56,6,6,0,0,1-1.67.19,4.35,4.35,0,0,1-3.25-1.18m5.43-4a2.76,2.76,0,0,0-.44-1.4,2.4,2.4,0,0,0-.94-.83,2.65,2.65,0,0,0-2.29,0,2.38,2.38,0,0,0-.93.83,2.86,2.86,0,0,0-.43,1.4Z"/><path class="cls-9" d="M402.92,124.26a2.42,2.42,0,0,1-1-.89,2.46,2.46,0,0,1-.38-1.36,2.4,2.4,0,0,1,1-2,4.82,4.82,0,0,1,2.92-.75h2.07v-.13a2.08,2.08,0,0,0-.56-1.62,2.53,2.53,0,0,0-1.73-.5,5.68,5.68,0,0,0-1.15.11,8.92,8.92,0,0,0-1.11.3.79.79,0,0,1-.23,0,.63.63,0,0,1-.44-.19.68.68,0,0,1,.26-1.11,7.41,7.41,0,0,1,2.94-.61,3.83,3.83,0,0,1,2,.48,2.93,2.93,0,0,1,1.19,1.23,3.55,3.55,0,0,1,.39,1.65v4.82a.73.73,0,0,1-.23.54.78.78,0,0,1-.56.22.75.75,0,0,1-.76-.76v-.44a4.31,4.31,0,0,1-3.21,1.29,3.11,3.11,0,0,1-1.39-.31m3.42-1.42a4,4,0,0,0,1.18-.91V120.5h-1.86c-1.72,0-2.57.45-2.57,1.34a1.26,1.26,0,0,0,.41,1,2.06,2.06,0,0,0,1.39.38,3,3,0,0,0,1.45-.37"/><path class="cls-9" d="M413.5,124.28a1.11,1.11,0,0,1-.38-.51l-2.42-7.09a1,1,0,0,1-.05-.29.7.7,0,0,1,.22-.54.75.75,0,0,1,.55-.23.8.8,0,0,1,.43.13.71.71,0,0,1,.27.33l2,6.56,2-6.4a.88.88,0,0,1,.31-.45.9.9,0,0,1,.52-.17.85.85,0,0,1,.52.17.9.9,0,0,1,.32.45l2,6.4,2-6.56a.63.63,0,0,1,.26-.33.84.84,0,0,1,.44-.13.74.74,0,0,1,.54.23.7.7,0,0,1,.22.54.77.77,0,0,1-.05.29l-2.42,7.09a1.09,1.09,0,0,1-.37.51,1,1,0,0,1-1.23,0,1.15,1.15,0,0,1-.39-.53l-1.81-5.64-1.8,5.64a1.11,1.11,0,0,1-.4.53,1,1,0,0,1-1.22,0"/><path class="cls-9" d="M425.74,124.26a2.36,2.36,0,0,1-1-.89,2.46,2.46,0,0,1-.38-1.36,2.38,2.38,0,0,1,1-2,4.8,4.8,0,0,1,2.92-.75h2.06v-.13a2.07,2.07,0,0,0-.55-1.62,2.55,2.55,0,0,0-1.73-.5,5.61,5.61,0,0,0-1.15.11,9,9,0,0,0-1.12.3.69.69,0,0,1-.22,0,.65.65,0,0,1-.63-.65.67.67,0,0,1,.44-.65,7.5,7.5,0,0,1,2.95-.61,3.83,3.83,0,0,1,2,.48,2.93,2.93,0,0,1,1.19,1.23,3.54,3.54,0,0,1,.38,1.65v4.82a.69.69,0,0,1-.23.54.74.74,0,0,1-.55.22.7.7,0,0,1-.54-.22.73.73,0,0,1-.23-.54v-.44a4.29,4.29,0,0,1-3.2,1.29,3.11,3.11,0,0,1-1.39-.31m3.42-1.42a4,4,0,0,0,1.17-.91V120.5h-1.85c-1.72,0-2.58.45-2.58,1.34a1.26,1.26,0,0,0,.42,1,2.06,2.06,0,0,0,1.39.38,3,3,0,0,0,1.45-.37"/><path class="cls-9" d="M434.71,124.26a.76.76,0,0,1-.22-.54v-7.31a.82.82,0,0,1,.22-.56.75.75,0,0,1,.55-.23.76.76,0,0,1,.55.23.75.75,0,0,1,.23.56v.73a3.36,3.36,0,0,1,2.68-1.6h.08a.7.7,0,0,1,.54.22.77.77,0,0,1,.21.55.66.66,0,0,1-.22.52.78.78,0,0,1-.56.21h-.09a2.91,2.91,0,0,0-1.5.4,3.51,3.51,0,0,0-1.14,1.1v5.18a.69.69,0,0,1-.23.54.76.76,0,0,1-.55.23.75.75,0,0,1-.55-.23"/><path class="cls-9" d="M441.4,123.39a4.55,4.55,0,0,1-1.17-3.34,5.49,5.49,0,0,1,.45-2.23,3.77,3.77,0,0,1,1.36-1.65,4.36,4.36,0,0,1,4.45,0,3.83,3.83,0,0,1,1.4,1.56,5,5,0,0,1,.47,2.14.77.77,0,0,1-.21.55.74.74,0,0,1-.57.22H441.8a2.83,2.83,0,0,0,.89,1.86,3.06,3.06,0,0,0,2.09.66A5.25,5.25,0,0,0,446,123a6,6,0,0,0,1-.4.81.81,0,0,1,.31-.06.72.72,0,0,1,.48.18.62.62,0,0,1,.2.48.72.72,0,0,1-.44.63,5.87,5.87,0,0,1-1.31.56,6,6,0,0,1-1.67.19,4.35,4.35,0,0,1-3.25-1.18m5.43-4a2.67,2.67,0,0,0-.44-1.4,2.4,2.4,0,0,0-.94-.83,2.78,2.78,0,0,0-1.14-.26,2.71,2.71,0,0,0-1.14.26,2.34,2.34,0,0,0-.94.83,2.86,2.86,0,0,0-.43,1.4Z"/></svg>