<svg id="background" xmlns="http://www.w3.org/2000/svg" xmlns:xlink="http://www.w3.org/1999/xlink" viewBox="0 0 30 30"><defs><style>.cls-1{fill:none;}.cls-2,.cls-4{opacity:0.5;}.cls-3{clip-path:url(#clip-path);}.cls-4{fill:url(#linear-gradient);}.cls-5{fill:#fff;}</style><clipPath id="clip-path"><polygon class="cls-1" points="-1542.85 203.73 -1584.47 312.61 -1510.99 403.1 -1395.88 384.7 -1354.26 275.82 -1427.74 185.33 -1542.85 203.73"/></clipPath><linearGradient id="linear-gradient" x1="-2008.83" y1="60.83" x2="515.37" y2="212.02" gradientTransform="translate(24.42 334.06) rotate(4.52)" gradientUnits="userSpaceOnUse"><stop offset="0" stop-color="#f0a"/><stop offset="1" stop-color="#2445ea"/></linearGradient></defs><title>iw-logo</title><g class="cls-2"><g class="cls-3"><path class="cls-4" d="M-1158.11,329.58c-.29-4.38-1.57-6.53-3.73-6.38s-4.5-.8-6.82-2.86q6.36-3.69,23-3.18c11.06.41,19.69-2.94,25.85-10q53.17,3.19,85.34-12.22a177,177,0,0,0-43.43-5.44A67.16,67.16,0,0,0-1120,303.89l-20.23-5.31c-4.13,4.72-8.38,7.19-12.76,7.47s-7.87-1.66-10.33-5.95q-15.47,17.64-41,6t-41.68-3.91c2.46,4.29,5.38,6.29,8.69,6.07a11.36,11.36,0,0,1,8.46,2.75c-10.6,7.32-24.13,11-40.7,10.95s-30.15,3.65-40.7,11l-33,2.16c-11,.72-19.65,3.52-26,8.34-8.81.58-13.27-.22-13.41-2.44-4.14,4.73-7.85,6.64-11.23,5.71s-7.19,0-11.43,2.4q-7.51-12.69-20.56-10.24c-8.74,1.72-15.16,4.88-19.25,9.56q6.8,2.88,14.85-1t15.06,2.32c-12.91,5.3-23.87,7.11-32.78,5.47s-19-3.16-30.12-4.65c-1.93,4.58.4,6.09,6.92,4.52s12-1.32,16.6.56c-4.14,4.72-10,7.86-17.6,9.45s-12.71.31-15.17-4c-2.22.15-2.18.72.11,1.66s2.35,2.64.32,4.94q-26.88-4.81-40.45-10.59t-39.59,2.6c.43,6.59,3.27,8.07,8.56,4.42s9.16-3.35,11.66.88c-1.92,4.57-4.58,5.84-8,3.84s-7.31-1.69-11.55.76c-9.1-3.8-16.22-2.75-21.33,3.07s-12.07,10.22-20.69,12.95q6.8,2.88,14.85-1c5.32-2.52,11.4-2.92,18.14-1.2A423.26,423.26,0,0,1-1629.16,397q-27.85,5.16-50.71,9.95-11-15.82-36.94-7.51c.15,2.22,1.3,3.24,3.52,3.09-8.53,5-13.9,7.53-16.07,7.67.58,8.83,3.95,9.68,10.11,2.66.29,4.43-2.85,6.81-9.45,7.25q-14.31-15.62-28.48-4.76t-31.13,5.36q-9.45,7.29-19.58,4.6c-6.74-1.73-12.18-.28-16.27,4.38-4.73-4.08-8.62-4.92-11.77-2.54s-7.09,1.6-11.76-2.55c-2.08,2.37-2,3.45.21,3.31L-1844,431c.73,11-3.31,17.36-12,19a83.19,83.19,0,0,0-25.85,10c-4.72-4.09-9.17-4.88-13.41-2.42a21.45,21.45,0,0,0-9.25,10.54,60.63,60.63,0,0,0-31.23,3.72q-14.54,5.93-21.34,3.06c-.28-4.4,2.33-6.22,7.92-5.51s8.22-1,7.93-5.48l18.14-1.19c7.68-.51,12.49-3,14.42-7.57a30,30,0,0,0-13.42-2.44c-4.43.29-7.88-1.66-10.33-5.95-2.22.15-2.18.72.11,1.65s2.34,2.64.33,4.95a124.57,124.57,0,0,0-29.48,5.26,122.63,122.63,0,0,1-29.48,5.24c2.46,4.3,4.82,6.31,7,6.17s3.45,2,3.74,6.38c-6.6.44-12.12.79-16.5,1.09s-9-1.59-13.63-5.73c-4.28,2.49-8,3.83-11.33,4.05s-5.94,2.62-7.82,7.14c-11,.72-18.75.73-23.2-.13s-12.3-1.93-23.42-3.44c.43,6.6-.48,10-2.65,10.13,2.31,2.07,5.13,2.44,8.36,1.1s5,.24,5.27,4.62c-6.59.43-13.61,3.12-21,8s-16.77,5.56-28,1.84c1.88-4.52,5.67-5.86,11.33-4.06s9.4.53,11.33-4.06c6.59-.43,9.82-1.72,9.68-3.95s-2.44-3.15-6.82-2.85-5.37,2.58-2.86,6.8q-13.65-5.7-28.15.2c-9.68,4-19.1,4-28.16.2-2.06,2.36-2,4,.33,5a5.41,5.41,0,0,1,3.63,4.73c-6.61.43-9.83,1.78-9.69,4a15.88,15.88,0,0,1,11.88,4.17q5.27,4.64,15.17,4c-2.51-4.24-4.83-5.74-6.92-4.52s-2.26-.36-.33-4.94c4.52,1.92,6.89,4,7,6.16s2.32,2.07,6.6-.44c-3.85,9.11-10.28,12.27-19.26,9.56a74.93,74.93,0,0,0-26.71-3.22c-6.45,2.64-14,5.38-22.66,8.12s-16.36,3.29-23.1,1.51c-4.14,4.73-9.92,8.94-17.38,12.74s-13.59,3.69-18.26-.45c2.31,2.07,1.33,3.79-3,5.16s-7.7,1.08-10-1c-.3-4.37,1.25-6.14,4.61-5.27s4.92-.85,4.63-5.28c-2.36-2-4.58-1.87-6.6.43s-4.22,3.61-6.38,3.74c-1.93,4.58-.7,6.67,3.74,6.38l.21,3.3q-20.23-5.26-29.48,5.24-17-5.46-27.93,3.5t-18.26-.46c-1.93,4.58.54,8.26,7.36,11.13s12.38,4.15,16.82,3.85c-4.14,4.74-7.3,7.11-9.46,7.26l-9.91.64q-3.75-6.36-.32-4.94c2.25,1,3.34.35,3.19-1.87a54.71,54.71,0,0,0-13.08,2.52c-4.36,1.42-8.93-1.08-13.75-7.38-2.35-2-2.89-1.47-1.54,1.76s.85,4.91-1.31,5c-4.73-4.09-9.18-4.89-13.42-2.43s-8.74,1.72-13.42-2.42c4.68,4.14,5,9.6,1.09,16.49-4.58-1.88-5.23-4.07-2.09-6.49s2.45-4.56-2.08-6.5c-6.6.44-7.58,2.73-2.87,6.83l-6.38,3.72c-4.57-1.87-7.34-2.26-8.35-1.11s-3.83.82-8.36-1.1l.43,6.6c-9-1.59-15.51-.65-19.68,2.94s-8.63,3.37-13.31-.77l.44,6.59c-11.32-3.66-21.19-2.43-29.59,3.61s-19.26,9.54-32.45,10.41c-2.06,2.36-2.56,3.48-1.43,3.4s.59,1.1-1.43,3.42a25.16,25.16,0,0,0-19.69,2.95c-6.39,3.72-11.87,4.66-16.39,2.73-4.14,4.73-9.95,8.43-17.49,11.09s-13.69,2-18.36-2.1c.14,2.2.73,3.25,1.86,3.18s1.72,1,1.87,3.2c-11,.72-20.29,2.47-27.83,5.14s-16.92,3.33-28.05,1.84c-.28-4.38.73-5.53,3.09-3.52s3.37.92,3.08-3.51c-2.36-2-5.62-1.29-9.79,2.29s-7.55,3.29-10-1c-2.08,2.36-2,4,.32,5s2.27,1.5.11,1.65l-41.24,2.7a180.74,180.74,0,0,0-34.43,5.57c-2.07,2.37-3.29.23-3.72-6.36-6.6.43-9.61,5.08-9,13.83a245,245,0,0,1-28.15.2q-15-.65-24.42,6.58c-4.43.28-6.16-.68-5.17-3s.3-3.34-1.86-3.19-2.11,1.8.32,5,1.34,3.79-3.19,1.85q-10.11-52.29,8-80a230.46,230.46,0,0,1,43.16-49.23c2.16-.14,3.34.35,3.41,1.43s1.19,1.59,3.41,1.44a122.51,122.51,0,0,0,10.67-14c3-4.61,6.83-4.86,11.56-.76,4.08-4.68,6.08-8.11,5.94-10.34,6.89,4,13.9,1.87,21.12-6.35s15.31-10.38,24.42-6.58c4.09-4.67,7.81-7.14,11.12-7.36s7-1.56,11.32-4.05c2.17-.15,2.13-.67-.11-1.65s-1.31-2.67,3-5.18c8.91,1.64,15.44.13,19.58-4.6s9.54-6.11,16.27-4.38l-.43-6.59c13.34,1.35,25.3-1.1,36-7.33s23.58-10.92,38.85-14.15c2.15-.15,3.22-1.32,3.07-3.52,6.31-4.82,15-7,26.07-6.69S-2484,439.91-2480,433c2.17-.13,3.34.36,3.42,1.44s1.18,1.58,3.4,1.43c-.28-4.38,1.77-6.17,6.27-5.38s7.65-1,9.57-5.6c4.24-2.45,6.47-2.59,6.61-.44s1.29,3.24,3.51,3.09c4.09-4.67,8.9-7.21,14.41-7.58s12.56-1.9,21.23-4.71c2.17-.13,3.23-1.29,3.08-3.5q10.13,2.67,14.52-5.94t14.74-2.61l-3.08,3.5-3.3.22c.29,4.45,2.53,5.38,6.82,2.87s5.1-5.82,2.64-10.11a72.85,72.85,0,0,0,22.89-4.82c6.45-2.6,15.21-3.17,26.39-1.73,6.16-7,15.81-11.49,28.93-13.5s22.84-5.34,29.15-10.2c9.06,3.85,16.75,2.77,23-3.17s15-7,26.28-3.39l-.43-6.6c4.53,1.94,9.44,1.05,14.74-2.62s10.23-3.41,15,.67c1.87-4.51,6.2-6.46,12.86-5.81s12.11-.22,16.39-2.73c2.17-.14,3.16-2.38,2.87-6.81,2-2.32,5.89-2.57,11.54-.76s9.41.52,11.34-4.06a22.27,22.27,0,0,0,15,.67c5.39-1.44,9.09-4.43,11-9,2.45,4.3,8,5,16.7,2.22s12.85-6.33,12.55-10.76c11.14,1.49,17.77,1.62,19.91.34s7.57-2.14,16.39-2.72c2-2.33,1.91-4-.32-5s-2.33-1.51-.11-1.65a114.9,114.9,0,0,0,32.66-7.12,67.93,67.93,0,0,1,32.89-3.82c2.16-.14,2.13-.64-.11-1.64s-2.4-2.59-.33-5q10.11,2.69,23.09-1.52c8.63-2.74,16.21-5.46,22.66-8.11l.44,6.6c2-2.31,4.21-3,6.49-2.08s2.13-.66-.32-5a29.29,29.29,0,0,0,13-4.16c4.25-2.45,8.7-1.66,13.42,2.43,4.23-2.45,5.24-3.65,3.08-3.51s-3.37-.87-3.51-3.09q52.51-6.71,107.57-27c4.67,4.15,9.16,5.51,13.52,4.09a54.9,54.9,0,0,1,13.09-2.53c4.38-.28,6.45-2.59,6.16-7,.15,2.22,3.52,3.09,10.11,2.65s8.63-2.74,6.17-7c4.68,4.15,8.58,4.42,11.66.89a44.3,44.3,0,0,1,11-9c2.45,4.3,6.39,5.13,11.76,2.55s10.34-1.77,15.07,2.32c4.09-4.66,6.08-8.11,5.94-10.33.29,4.43,2.57,5.95,6.93,4.51s6.34-4.24,6-8.68c4.38-.28,6.74,1.78,7,6.16a22.53,22.53,0,0,1,16.07-7.68c6.59-.43,12-1.87,16.28-4.38,4.67,4.14,10.77,4.83,18.35,2.1s12.28-6.29,14.2-10.86c2.17-.15,3.92,1.39,5.28,4.62s2.91,2.61,4.83-2l-3.29.21a175.94,175.94,0,0,1,35.64-12.29c13-3,25.19-2.75,36.5.92l-3.51-3.09-3.3.22a454.37,454.37,0,0,1,52.14-13.37q26.15-5,52.35-10.07c2.17-.14,4.46.85,6.81,2.87s4.46.84,6.39-3.74l-6.6.44q42-16,72.37-8.07c-.29-4.37-1.53-6-3.62-4.73s-3.27.79-3.41-1.44c2-2.3,6.41-3.16,13.09-2.51s9.86-1.17,9.57-5.6c9,3.86,19.09,5.38,30.13,4.64q-.43-6.57-5.28-4.62c-3.22,1.35-4.91.9-5.06-1.32,8.62-2.75,16.36-3.25,23.1-1.51s13.26.26,19.58-4.6c2.16-.14,3.33.35,3.41,1.43s1.19,1.58,3.4,1.43c6.17-7,15.32-10.37,27.5-10.1s23.72.1,34.76-.62c-2.22.14-1.28-2.08,2.86-6.81q69.29-4.56,128-18.36A560.16,560.16,0,0,0-984.8,92.87a402.24,402.24,0,0,1,88.87-9.15c4.23-2.45,7.5-3.24,9.78-2.29s5.51.2,9.8-2.31c4.67,4.15,10.26,4.86,16.71,2.22-.14-2.17.87-3.38,3.08-3.53,4.24-2.44,10.23-3.41,18-2.83s13.68-1.41,17.82-6.14q13.58,5.79,46.19-3a41.51,41.51,0,0,1,15.06,2.33c5.61,1.85,11.69,1.45,18.15-1.2-.14-2.17-1.79-2.05-5,.33s-3.78,1.39-1.86-3.19l28-1.84q11.51-.75,27.82-5.15l.44,6.6c2.16-.14,2.66-1.27,1.43-3.4s.29-3.34,4.73-3.63c4.53,1.92,10.08,2.13,16.6.56a125,125,0,0,1,19.69-3q46-6.27,80.62-8.6a341.56,341.56,0,0,0,67.19-11q10.56,9.26,10.34,6c10.69-5.11,22.73-7,36.08-5.7s25.33-.51,36.07-5.68q20.22,5.34,36.61,2.57a330.62,330.62,0,0,0,32.67-7.12,141.81,141.81,0,0,0,53-.18q26.16-5,56.31-.38c10.69-5.1,18.36-5.6,23.09-1.51,2.17-.14,2.7-.71,1.55-1.77s-.68-1.61,1.54-1.75Q-184,27-151.4,18.24t49.71,0c-.29-4.38,1.81-5.6,6.39-3.73a14,14,0,0,0,13.19-.86c4.53,1.92,11.2,2.57,20,2Q.54,11.55,72,13.49T199.19,8.44a11.08,11.08,0,0,0,8.46,2.76A11.4,11.4,0,0,1,216.12,14a1098.76,1098.76,0,0,1,117.56-1.1q61.44,2.64,111.82,12.54c2.46,4.29,8.27,8.3,17.37,12.11q1.31,19.78,24.39,18.27c-1.92,4.59.44,6.61,7,6.18a457.55,457.55,0,0,1,12.59,65.44q3.8,32.91-10.94,60.36l-3.3.22Q475,222.28,441.23,237.73t-76.55,19.94a767.77,767.77,0,0,1-87.54,4.1q-44.76-.3-84.35,2.23-23.55-5.06-29.69,2a49.64,49.64,0,0,0-28.36-3.12,48.69,48.69,0,0,1-28.37-3.1q-53,.22-109.1,3.85t-102.92-3.17c-2.07,2.36-3.66,3.55-4.74,3.62s-2.71,1.32-4.73,3.63q-20-1.95-39.91-2.35a163,163,0,0,0-39.48,4.24c-4.58-1.86-11.22-2-19.91-.33s-14.37.43-16.82-3.88c-4.44.29-8.67,2.81-12.77,7.47q-26.44,1.74-43.21-2.12c-11.25-2.59-23.27-1.22-36.18,4a53.34,53.34,0,0,0-34.75.63q-17.85,6.13-31.68-2.9-12.35,14.1-42.67,6.12c-10.74,5.16-22.72,7-36.07,5.69s-25.46-.51-36.29,2.39c-4.43.29-6.67-.66-6.82-2.88s-2.36-2-6.59.43c-4.43.3-4.29,2.53.43,6.6a97.4,97.4,0,0,0-39.49,4.26q-19.47,6.26-36.83-5.87a13.88,13.88,0,0,1-13.19.87c-4.58-1.87-7.8-.57-9.69,3.95-6.59.44-7.87-1.65-3.73-6.38-4.43.29-6.38,3.73-5.94,10.33-9-1.58-15.21-4.48-18.8-8.7s-10.83-4.78-21.67-1.88c-2.35-2-2.43-3.16-.21-3.31s3.23-1.31,3.08-3.51a199.16,199.16,0,0,1-28.15.19c-7.8-.57-13.73,1.46-17.82,6.14,4.67,4.14,9.2,6,13.63,5.73a30,30,0,0,1,13.41,2.43c.3,4.44-1.85,5.66-6.38,3.74s-6.67-.65-6.38,3.72c-9.1-3.8-15.85-5.59-20.23-5.29s-11.17-1.44-20.23-5.29c-.14-2.18.91-2.81,3.19-1.88s4.42.28,6.5-2.08c-4.73-4.09-9.75-4.84-15.07-2.31s-10.39,1.81-15.06-2.34q-22,18.07-46.19,3c-4.44.3-6,1.53-4.74,3.63a5.28,5.28,0,0,0,5.17,3,539.08,539.08,0,0,1-110,15.5q-54.54,2-110.63,5.63l-.44-6.6c-1.78,6.74-5.46,9.77-11,9s-10.42,1.25-14.51,5.93c-4.58-1.87-7.46-3.91-8.69-6.06a5.4,5.4,0,0,0-5.16-3c-2.22.15-3.16,2.42-2.87,6.8a177.6,177.6,0,0,0-43.43-5.42Q-1132.61,314.69-1158.11,329.58ZM-2634.62,651.92l3.3-.22.22,3.31-3.3.22Zm11-9c3.08-3.51,2.48-4-1.75-1.53C-2627.3,646-2626.7,646.43-2623.61,642.91Zm109.11-28.7,3.3-.21-.21-3.3-3.3.21Zm28.41-147.66c-1.28-2.08-2.86-.9-4.74,3.63,2.17-.15,2.81.95,1.87,3.18s.66,2.19,4.94-.32A15,15,0,0,0-2486.09,466.55Zm5.16,3c-1.93,4.59-1.32,5.06,1.76,1.55S-2476.69,467.08-2480.93,469.52Zm9.9-.64q2.81-6.78,9.68-4c4.53,1.94,7.69-.5,9.47-7.24-6.46,2.65-12,3-16.5,1.08C-2470.46,461.13-2471.32,464.49-2471,468.88Zm-1.57,26.61c6.6-.43,10.91-1.81,13-4.16a11.35,11.35,0,0,0-8.46-2.77C-2471.38,488.78-2472.88,491.11-2472.6,495.49Zm17.15,8.8,3.3-.21a3,3,0,0,0-3.52-3.08Zm2.43-13.4c2.16-.13,3.23-1.3,3.09-3.51l-3.3.21Zm20.18,55c-4.43.29-7.23-.62-8.46-2.76s-1.72-1-1.43,3.41c.14,2.21,1.9,3.76,5.27,4.62S-2432.55,550.33-2432.84,545.89Zm19.11-87.41c5.47-.36,9.19-2.78,11.11-7.35a32.72,32.72,0,0,1-14.62,4.27c-5.52.36-9.24,2.84-11.12,7.36A33.29,33.29,0,0,1-2413.73,458.48ZM-2426,548.75l-3.52-3.08C-2429.25,550.1-2428.09,551.12-2426,548.75Zm5.82-113c4.39-.28,6.53-1.52,6.39-3.73C-2418.25,432.27-2420.34,433.54-2420.2,435.72Zm15.2-20.89c-4.43.3-5.44,1.5-3.08,3.53s3.37.91,3.08-3.53c4.53,1.93,5.61,1.86,3.3-.21S-2405.14,412.67-2405,414.83Zm-5.78,63.34c2.17-.14,3.23-1.3,3.08-3.52q-3.54-3-5,.32C-2413.63,477.27-2413,478.32-2410.78,478.17Zm-1.83,73c-2.21.15-3.22,1.35-3.08,3.51C-2413.52,554.56-2412.46,553.4-2412.61,551.19Zm2.7-59.83a37.66,37.66,0,0,1,11.66.89q5.05,1.38,4.62-5.26C-2402.45,487.57-2407.88,489.06-2409.91,491.36Zm-.48,43.11c2.31,2.07,5.09,1.9,8.25-.54s3.52-4.63,1.21-6.69c-2.07,2.35-4.77,3.1-8.14,2.18S-2412.9,530.23-2410.39,534.47Zm26-107.74c.29,4.43-1.78,6.75-6.16,7-.58-8.78-3.95-9.69-10.12-2.65q10.56,9.24,25.18,5c9.75-2.81,16.66-6.59,20.8-11.31-4.72-4.09-9.71-4.34-15-.67S-2379.81,428.66-2384.34,426.73Zm-16.76,47.49c2.17-.14,4.32-1.36,6.38-3.74C-2401.32,470.91-2403.46,472.19-2401.1,474.22Zm1.78-23.31c8.91,1.65,16.34,5,22.21,10.13s14.11,5.19,24.85,0a6.88,6.88,0,0,1,5.06,1.32c1.15,1.06,2.83,1.47,5,1.32,2-2.31,1.4-3.92-2-4.84s-4-1.4-1.76-1.54c4.24-2.45,6.46-2.6,6.6-.44s1.3,3.24,3.51,3.09c-.28-4.38,1.74-6.74,6.17-7-.28-4.38-1-6-2-4.86s-1.68-.39-2-4.82c-4.28,2.5-8.07,3.32-11.44,2.4a37.31,37.31,0,0,0-11.65-.88l.65,9.89c-2.36-2-3.44-1.95-3.3.22s-2.07,2.36-6.6.44-7.45-3.92-8.68-6.07-3.94-.83-8,3.84l-.44-6.58c-4.29,2.49-8.1,2.74-11.55.75S-2399.6,446.53-2399.32,450.91Zm7.52-36.94,3.3-.22-.22-3.3-3.3.21Zm3.25,49.48a5.21,5.21,0,0,1-5.17-3c-1.27-2.08-1.72-1-1.43,3.41C-2392.84,466-2390.62,465.82-2388.55,463.45Zm-5.73,13.64c2.45,4.29,3.59,4.21,3.3-.22S-2392.41,472.56-2394.28,477.09Zm-6.48,103.14,3.3-.21Zm10.43-93.45q3-3.46,4.95-.33c1.22,2.14,2.8.95,4.73-3.63-2.07,2.36-4.25,3.07-6.49,2.07S-2390.47,484.61-2390.33,486.78Zm2.86-6.83,3.3-.21-.21-3.3-3.3.21Zm2.82,42.9c-4.43.29-6.52,1.55-6.38,3.73a3,3,0,0,1,3.52,3.08c.14,2.22,1.22,2.15,3.3-.22l-.44-6.59,6.6-.43-.22-3.31-6.6.44ZM-2380,443c-2.06,2.36-1.43,3.41,1.87,3.19s4.88-1.41,4.73-3.63Zm6.6-.44q6.59-.42,9.68-3.94C-2370.28,439.07-2373.5,440.41-2373.36,442.57Zm-4,89.74c2.17-.15,3.23-1.3,3.08-3.52C-2378.75,529.09-2379.76,530.29-2377.4,532.31Zm3.35-49.92.43,6.6c4.39-.29,6.53-1.53,6.38-3.73s1.95-3.45,6.38-3.74c.14,2.21,2.38,3.16,6.82,2.87l3.3-.21c2.16-.15,4.31-1.39,6.38-3.74a52.83,52.83,0,0,1-13.31-.79C-2362.17,478.86-2367.6,479.79-2374,482.39Zm-.09,99.41c.14,2.21-2,3.44-6.39,3.73,2.17-.15,3.23-1.31,3.08-3.51Zm6.42-53.44,3.3-.22-.22-3.29-3.29.21Zm10.21-96.76q6.57-.42,9.68-4C-2354.86,421.48-2358.09,422.82-2357.51,431.6Zm3.21,99.19c-.29-4.38-2.65-6.44-7-6.15-1.92,4.57-1.74,7.3.55,8.24S-2356.37,533.15-2354.3,530.79Zm14.1-37.37c-.28-4.39-2.08-6.5-5.38-6.27s-4.87,1.46-4.73,3.61,1.3,3.24,3.52,3.09Zm-7.89-19.37,3.3-.21-.22-3.31-3.3.22Zm-3.78,43.32.21,3.31,3.3-.22A3,3,0,0,0-2351.87,517.37Zm10.93,65.55c-1.92,4.59-6.16,7-12.77,7.47-.14-2.17-1.34-3.22-3.51-3.07,1.88-4.54,4-5.75,6.38-3.74S-2345.23,585.43-2340.94,582.92ZM-2342.1,414c2.46,4.3,3.59,4.22,3.3-.21S-2340.22,409.49-2342.1,414Zm4.6,19.59,13.2-.87c1.73-6.75-.1-9.38-5.49-7.93S-2337.79,429.21-2337.5,433.6Zm174.43-18.09q-2.89,6.87.32,4.94c2.1-1.22,3.27-.73,3.41,1.43-12.9,5.3-23.79,8.19-32.56,8.78q6.15-7,6-10.33t9.25-10.55a75.73,75.73,0,0,0-14.74,2.62c-5.44,1.5-9.13,4.49-11,9l7,6.16c-6.6.44-8.95-1.59-7-6.16-4.57-1.89-6.71-1.22-6.49,2.08s-1.89,5.1-6.27,5.39c-.14-2.17.3-3.34,1.44-3.42s1.57-1.2,1.43-3.4c-2.36-2-3.45-2-3.3.22s-1,2.28-3.3.21l.65,9.9-9.47,7.24c-2.5-4.23-5.95-6.23-10.33-5.94l-9.89.65c2.16-.14,3.33.35,3.41,1.43s-1,1.73-3.2,1.87c-6.6.44-12,1.93-16.28,4.38a14,14,0,0,1-13.2.87c2.46,4.29,1,7.13-4.4,8.57a65.08,65.08,0,0,1-11.44,2.41c-.29-4.38,4-6.89,12.76-7.47-4.87-6.3-11.07-8.64-18.68-7.06a29.49,29.49,0,0,1-21.78-3.53c.3,4.43,1.49,6,3.63,4.72s3.34.36,3.62,4.75c11-.73,16.57.05,16.71,2.21q-12.78,7.51-19.79,1.29c.15,2.23,2.53,5.39,7.25,9.47-4.14,4.73-6.84,5.43-8.14,2.2s-3-3.64-5.06-1.33c.15,2.22,1.3,3.23,3.51,3.08q-16.09,7.74-19.79,1.3c2.46,4.29,2.61,6.46.43,6.6s-2.14,1.28.22,3.3c1.89-4.52,4-5.76,6.39-3.74s3.59,4.22,3.73,6.4a233.43,233.43,0,0,0,34-12.19q17.67-7.75,41-6c-2.5-4.23-1-6.56,4.52-6.92s8.32.59,8.47,2.76c4.23-2.45,8.47-5,12.76-7.46s9.75-2.82,16.49-1.09c4.09-4.67,11.09-7.87,20.91-9.66s17.12.53,22,6.84c-.28-4.38-1.56-6.52-3.73-6.38s-2.36-2-.43-6.6q16-7.65,36.07-5.68c13.35,1.34,21.67-5.83,25.09-21.54-6.3,4.87-12.31,6.36-17.92,4.5a49.05,49.05,0,0,0-18.37-2.11C-2151.22,411.41-2156.48,415.07-2163.07,415.51Zm-176.26,91.11.65,9.89c4.39-.29,7.76.62,10.12,2.65s4.45.84,6.38-3.74c-4.44.3-6.74-1.73-7-6.17l3.3-.21q10.11,2.68,23.09-1.52-7.29-9.47-18.47-3.75T-2339.33,506.62Zm11.9-20.67q-9.26,10.56-9.47,7.25c4.39-.29,7.66-1,9.8-2.3s5.42-.88,10,1c3.95-6.89,11.49-9.56,22.66-8.12s18.59-2.31,22.44-11.41c-8.52,5-17.23,7.24-26.07,6.67s-15.37,1.59-19.46,6.25Zm-5.08,23.53c.15,2.22,1.3,3.21,3.52,3.07-2.07,2.37-4.25,3.09-6.5,2.1S-2336.8,512-2332.51,509.48Zm6.26-106.45c.29,4.44,1.44,5.45,3.51,3.08s5.4-1.43,10.12,2.65l-3.73-6.38Q-2322.56,409.48-2326.25,403Zm6.55,49.28-6.6.43c.15,2.21,1.29,3.22,3.52,3.08S-2319.56,454.53-2319.7,452.31Zm-3.73-6.38c.29,4.43.8,4.39,1.64-.12S-2321.56,441.39-2323.43,445.93Zm57.87-27,6.59-.44c.14,2.23-3.29.23-10.33-5.94.29,4.44-.7,6.68-2.87,6.81-4.57-1.87-5.62-1.27-3.19,1.88s1.34,3.79-3.19,1.86l-.43-6.6c4.38-.29,6.53-1.51,6.38-3.73-9-1.58-16.08-.6-21.33,3.05s-12.36,5.78-21.12,6.37c2.45,4.28,4.78,5.79,6.92,4.52s4.42.27,6.92,4.51l13.2-.87.22,3.3a32.59,32.59,0,0,0,15.06,2.33c5.47-.36,8.11-2.72,7.82-7.15l-6.6.44-.22-3.3,6.6-.43Zm-46.85-6.86c2.46,4.3,3.6,4.22,3.31-.21S-2310.53,407.54-2312.41,412.06Zm.56,109.32-.22-3.31-3.3.23.22,3.3Zm6-109.75,6.6-.43c-.29-4.39-2.65-6.45-7-6.17Zm-8.91,116.56,3.3-.22Zm4.66-30.12c.28,4.43,3.62,4.72,10,1s9.79-2.3,10.22,4.3c-4.43.29-6.53,1.56-6.38,3.73l9.9-.65c4.38-.29,7.61-1.58,9.67-3.95-4.43.3-6.73-1.73-7-6.16l49.48-3.25c2-2.32,2-3.45-.21-3.31s-3.37-.87-3.51-3.08l3.29-.21c2.17-.15,3.23-1.31,3.08-3.53q-16.32,4.43-39.37,5.92T-2310.06,498.07Zm5,75.88-3.09,3.51C-2308.31,575.29-2307.29,574.09-2305.08,574Zm15.56-166.71,3.3-.21a5.42,5.42,0,0,0-3.63-4.73c-2.29-.94-3.33-.3-3.19,1.87A3,3,0,0,1-2289.52,407.24Zm.86,13.2c-.14-2.17,1.43-3.41,4.73-3.62s4,2,2.08,6.49c-2.21.15-3.33-.3-3.4-1.43S-2286.5,420.3-2288.66,420.44Zm13.63,5.75c.29,4.43-.7,6.67-2.87,6.81s-3.37-.88-3.51-3.09C-2279.39,427.61-2277.25,426.33-2275,426.19Zm4.65-30.14,6.6-.43c-.14-2.17-2.44-3.15-6.82-2.86Zm4.6,19.58.22,3.29C-2267.93,416.9-2268,415.77-2265.78,415.63Zm8.37-23.74c-2.21.14-3.22,1.34-3.08,3.5C-2258.32,395.26-2257.26,394.09-2257.41,391.89Zm2.87-6.81c-2.21.14-3.23,1.35-3.08,3.5C-2255.46,388.44-2254.39,387.27-2254.54,385.08Zm3.3-.23c6.61-.43,9.83-1.73,9.68-4l-6.38,3.74Zm9.68-4c4.68,4.15,7.11,7.3,7.25,9.47-4.43.29-7.23-.62-8.46-2.77s-2.86-.9-4.73,3.64q23.25,1.78,39.15-9.2c-4.72-4.1-8.53-3.85-11.54.75s-6.88,4.91-11.56.77c-.28-4.39,1.3-5.57,4.74-3.64s3.89.89,1.44-3.4C-2234.09,377.1-2239.53,378.6-2241.56,380.9Zm-2.09,119.42-9.9.65c-1.92,4.59-1.25,6.2,2,4.85A20.61,20.61,0,0,0-2243.65,500.32Zm-2.34-86,3.3-.22-.21-3.31-3.3.23Zm-.26,46.39c4.67,4.15,6.82,2.87,6.38-3.73C-2244.3,457.29-2246.4,458.57-2246.25,460.72Zm12.59-60.46c-4.43.29-6,1.54-4.73,3.62S-2235.58,404.84-2233.66,400.26Zm-2,20c7,6.16,10.19,3.79,9.47-7.25-4.29,2.52-7,3.26-8.14,2.2S-2235.94,415.89-2235.66,420.27ZM-2241,539.92l3.31-.22a3,3,0,0,0-3.53-3.09Zm8-80.07,3.3-.21-.21-3.29-3.3.21Zm6-60c4.53,1.92,10,1.57,16.5-1.09a31,31,0,0,1,19.79-1.3l-.43-6.6q22.62-8.08,25.74-11.62a118.94,118.94,0,0,1-30.79,10.29A123.53,123.53,0,0,0-2227.06,399.83ZM-2231.37,536c2.46,4.29,3.59,4.21,3.3-.22S-2229.49,531.43-2231.37,536Zm13-53.87c-.28-4.38-1.42-4.31-3.3.22C-2219.18,486.61-2218,486.53-2218.34,482.09Zm6.64-50.14c4.25-2.45,5.33-2.52,3.31-.21s-.93,3.38,3.51,3.09c.15,2.2-1.43,3.4-4.73,3.62s-5-.77-5.17-3,.34-2.78,1.55-1.78S-2211.55,434.17-2211.7,432Zm-8.9,116.56-3.09,3.51Zm5.13-73.23c.14,2.21,2.38,3.16,6.81,2.86s6.46-2.59,6.17-7c-2.36-2-5.13-2.41-8.36-1.12S-2215.62,473.11-2215.47,475.28Zm6.76,52.57c-.28-4.38-2.65-6.46-7-6.17C-2215.44,526.13-2213.14,528.14-2208.71,527.85Zm8.43-73.46c2-2.3,5.86-3.12,11.44-2.4s10.38-1.21,14.52-5.93a147.74,147.74,0,0,1-21.55-.23Q-2207.58,445-2200.28,454.39Zm2-20c1.88-4.54,2.41-5.13,1.54-1.77S-2198.13,436.6-2198.28,434.39Zm-.75,89.52,6.6-.44c-.29-4.38-2.64-6.45-7-6.17Zm11.56-126.68c9.06,3.86,13.34,1.34,12.77-7.47-4.29,2.51-8.07,3.32-11.45,2.4S-2190,393-2187.47,397.23Zm5,26.17,3.3-.21-.22-3.3-3.3.22Zm731.92-207.15c2.3,2.09,4.59,3,6.81,2.86s3.45,2,3.74,6.39c-10.75,5.16-22.74,7-36.09,5.7a120.59,120.59,0,0,0-39.58,2.6c.29,4.43-.74,6.15-3,5.15s-3.33-.28-3.19,1.88c-2.22.15-3.37-.87-3.51-3.09-2.08,2.36-4.77,3.11-8.14,2.18s-5-.17-4.84,2a5.4,5.4,0,0,1,5.17,3c1.22,2.14.72,3.27-1.44,3.4-4.43.3-7.23-.6-8.47-2.74s-4.08-3-8.46-2.76c-4.29,2.5-4.69,4.18-1.33,5.05s4,2.54,2,4.84c-2.22.15-3.33-.3-3.41-1.43s-2.32-1.51-6.7-1.22q-12.36,14.1-29,11.86t-29.47,5.24c-2.51-4.23-6.41-4.56-11.66-.89s-10.28,3.47-14.95-.67l.65,9.9c-4.72-4.09-12.44-4.16-23.21-.13s-18.46,5.09-23,3.16l3.08-3.52c-15.41,1-23.23-.65-23.53-5.08,6.31-4.82,13.92-6.4,22.88-4.82s15.36-1,19.37-7.89c-17.78-1-33.08,1.08-46,6.34s-28.18,8.47-45.76,9.63l-.43-6.6c-4.43.29-7.8-.58-10.11-2.65-1.94,4.58-1.79,6.74.43,6.59a3,3,0,0,1,3.51,3.1,407.8,407.8,0,0,1-81.28,23.55,533.92,533.92,0,0,0-78.21,20.06q17.12,8.81,39.37-5.91c4.68,4.16,10.71,3.77,18.15-1.19s13.42-5.29,18.15-1.19c2-2.3,1.91-4-.33-5s-2.33-1.49-.11-1.64a14,14,0,0,0,13.2-.87c4.24-2.47,8.48-5,12.76-7.48,11.27,3.72,21.7,2.46,31.23-3.69s22.07-8.61,37.63-7.46q12.7-7.41,31-7a81.71,81.71,0,0,1,35.4,9.27,14,14,0,0,1-13.2.87,29.84,29.84,0,0,0-13.41-2.44c-.14-2.16-3.3.22-9.47,7.25,4.54,1.94,7.27,1.76,8.26-.54s3.66-2.41,8.24-.55c-10.59,7.34-22.58,9.26-36.08,5.7-2.06,2.35-.91,3.37,3.52,3.08s4.46.85.22,3.3a142.59,142.59,0,0,0-42.89,2.81,325,325,0,0,1-46,6.34c.29,4.43-2.87,6.82-9.47,7.26,6.9,4,15.62,2.85,26.29-3.4s19.47-6.24,26.5-.07a44.52,44.52,0,0,0,9.79-2.31c4.31-1.36,6.64.13,6.92,4.52-8.81.58-16.38,2.72-22.77,6.47s-15.08,5.94-26.06,6.67c-4.43.29-5.41,2-3,5.17s2.49,4.81.33,4.94c-2.51-4.23-10.47-8.1-24-11.68-1.93,4.59-5.12,6.45-9.57,5.62a18.89,18.89,0,0,0-13.1,2.5c-2.07,2.37-.91,3.37,3.52,3.08s4.46.85.21,3.31q-23.54-5.06-38.15-.82t-34.42,5.58c-2.22.16-2.71,1.32-1.44,3.41s.73,3.27-1.43,3.42q-6.42,3.75-5,.33c.94-2.25-.78-3.28-5.17-3,.14,2.22,1.27,2.72,3.42,1.44s3.33.35,3.62,4.73l-6.61.43c-4.72-4.09-9.24-6-13.62-5.73-4.14,4.72-6.27,5.39-6.49,2.08s-2.54-4.8-6.93-4.51c-4.14,4.72-4.51,6.93-1.21,6.71s4,2,2.08,6.49c6.31-4.82,11.92-2.95,16.93,5.51-11.32-3.66-23.38-2.87-36.29,2.38s-25,7.18-36.08,5.7l6.6-.44c2.16-.14,3.23-1.31,3.09-3.53-6.6.44-15.45.5-26.51.09s-18.82-.41-23.2-.12q7.22,9.45,18.8,8.7l18.15-1.2c-1.93,4.58-9.47,7.25-22.66,8.12q-2.48,13.44-12.77,7.47t-19.8,1.3c1.88-4.53.65-6.68-3.73-6.38s-5.66-1.8-3.73-6.39c2-2.3,5.28-3.08,9.79-2.3a18.42,18.42,0,0,0,13.08-2.51c-6.74-1.73-11.71-2-15-.68s-8.14,2.2-14.74,2.63c-1.92,4.58-3.47,6.33-4.62,5.26s-2.75.76-4.63,5.28a48.89,48.89,0,0,0-33.1.53c-10.81,4-21.54,8.62-32.23,13.71,4.24-2.45,7-2.63,8.25-.55a23.92,23.92,0,0,0,5.38,6.27c2.16-.13,3.27-.71,3.19-1.85s2.05-1.79,6.49-2.09c-.29-4.38-2.57-5.32-6.81-2.87s-5.45,1.51-3.52-3.08c11-.72,19.19-1.78,24.63-3.26a94,94,0,0,1,18.05-2.86c.14,2.23,4.59,3,13.41,2.44l.43,6.6,9.9-.65c.15,2.21.73,3.26,1.86,3.18s1.73,1,1.87,3.2c-4.58-1.88-7.34-2.27-8.36-1.11a6.62,6.62,0,0,1-4.84,2c.29,4.45,1.53,6.53,3.74,6.39,1.87-4.53,5.21-4.18,10,1s9.09,4.38,13.09-2.51c-.15-2.15-1.87-3.19-5.17-3s-4-1.92-2.09-6.49q29.27-8.52,57.09-13.7A230.8,230.8,0,0,0-1980,377c11.27,3.7,20.63,3.62,28.15-.2a131.85,131.85,0,0,0,20.69-12.94c-2.36-2-5.09-1.85-8.25.53s-4.88,1.47-5.16-3c4.52,1.94,8.39,1.68,11.54-.75s4.95-.33,5.38,6.27q16-7.65,31-7c10,.48,20.28-1.85,31-7,.14,2.21-1.86,5.65-5.94,10.33-11.18-1.44-19.91-.36-26.29,3.37a25.05,25.05,0,0,1-19.69,3c5,8.52,10,10.41,15.28,5.6S-1891,370-1884.16,374q25.29-18.2,61.71-19a138,138,0,0,0,68.31-19.4A73.46,73.46,0,0,0-1739.4,333a77.39,77.39,0,0,1,14.73-2.63c2.32,2.08,4.61,3,6.82,2.87a20.21,20.21,0,0,0,11.33-4.06,20.53,20.53,0,0,1,11.34-4.05c.29,4.43,2,5.4,5.16,3s7-2.62,11.54-.75c-.28-4.38-1.52-6-3.62-4.73s-2.18.71-.11-1.66a88.58,88.58,0,0,1,32.57-8.75,87.94,87.94,0,0,0,32.55-8.78c-4.72-4.08-9.17-4.88-13.41-2.43s-7.66,1.65-10.12-2.65c6.31-4.81,12.88-5.81,19.69-2.94s12.39,4.15,16.82,3.86c-2.21.14-3.4-1.44-3.62-4.73s.76-5,3-5.16c11-.73,19.72-2.4,26.17-5s15.29-2.09,26.61,1.57c-1.92,4.57-5.72,5.9-11.33,4.05s-7.24-.61-4.73,3.63c8.76-.58,14.42,1.27,16.92,5.51l-13.19.87c.29,4.43,1.49,6,3.63,4.72s3.26-.72,3.4,1.45q-26,8.38-44.21,7.87t-37.62,7.43l.43,6.6c-4.72-4.08-10.18-3.72-16.5,1.09l-.43-6.59c-6.16,7-9.31,9.46-9.46,7.24,6.6-.43,11.06.4,13.41,2.43-1.92,4.57-4.11,5.25-6.49,2.08s-2.39-2.58.11,1.67,4.71,4.64,6.71,1.2,5.29-3.09,10,1c2.16-.15,2.62-1.84,1.32-5.07s.19-5,4.62-5.27q-2.88,6.85.65,9.9c4.24-2.47,10.17-4.5,17.83-6.15a120.22,120.22,0,0,0,21.11-6.35l-3.51-3.09c2.16-.14,3.26-.72,3.19-1.86s1-1.72,3.19-1.87,2.81,1,1.87,3.19-.35,3.34,1.86,3.19l-.43-6.59c4.09-4.67,8.41-6,13-4.18s9.05,3.87,13.63,5.74c4.38-.29,6-1.48,4.74-3.63s.22-4.4,4.51-6.92c2.31,2.09,3,3.69,2,4.84s.63,1.62,5.06,1.32c6.31-4.8,12.23-6.86,17.82-6.14a88.58,88.58,0,0,0,18.26.46c-7-6.15-6.17-9.54,2.64-10.11,4.38-.29,7.72.06,10,1s5.58,1.3,10,1l-.44-6.59c4.38-.3,7.05-1.56,8-3.85s1.57-1.19,1.86,3.19-1.29,5.62-4.73,3.63-3.94-.85-1.43,3.4c8.47-5,15.53-7.07,21.11-6.36s11.59-.2,18-2.84c.44,6.6,3.81,7.52,10.12,2.65,2.16-.15,2.66-1.27,1.43-3.41s-.79-3.26,1.43-3.41,2.77.39,1.76,1.55-.46,1.68,1.75,1.54q33-2.16,54-10.18t47.41-9.74c-.14-2.17-1.87-3.19-5.17-3l1.65-.11c2.17-.14,3.38.91,3.52,3.08,10.83-2.9,21.2-5.23,31-7s21.41-1.92,34.75-.61q22.38-11.43,50.59-11.61a131.56,131.56,0,0,0,53.9-11.83L-1126,238c9.9-.64,20.17-3.5,30.91-8.66a109.08,109.08,0,0,0,37.94-2.49,93.3,93.3,0,0,1,34.64-2.28c10.7-5.11,19.44-6.76,26.18-5s16.57.05,29.47-5.24l.44,6.6c4.38-.29,7.15.09,8.35,1.11s3.93,1.39,8.36,1.09q2.81-6.78-5.27-4.62t-5.28-4.61a47.13,47.13,0,0,1,21.34-3.07q11.63.93,17.82-6.13A261.58,261.58,0,0,0-829,195.3a261.83,261.83,0,0,1,92.16-9.37q16-7.67,44.32-6.23t44.32-6.24a128.87,128.87,0,0,0,54.55-1.92q27.68-6.78,61.15-2.35,12.93-4.12,29.26-8.56a84.72,84.72,0,0,1,33-2.17l3.08-3.53q23.06-1.5,41.35-1c12.14.34,24.64-3.29,37.4-10.74-8.53,5-12.91,5.3-13.2.86,8.48-4.95,16.25-4.9,23.2.14s14.69,5.13,23.2.12q-40.21-7.29-69.71-2,3.25-.21,5.28,4.63c1.3,3.23-.25,5-4.62,5.26-.59-8.75-4.18-13-10.77-12.54-2.07,2.36-4.22,3.59-6.39,3.73q-9.89.66-25-1.66a41.38,41.38,0,0,0-27.82,5.13c-4.43.29-6.67-.64-6.81-2.86s-1.28-2.09-3.31.21c-2.21.15-3.22,1.36-3.08,3.52s-1,2.3-3.3.21q-6.65.45-8.57-4.4c-1.36-3.23-4.19-4.69-8.57-4.41.29,4.44-.7,6.68-2.87,6.82s-3.22,1.35-3.08,3.51a53.08,53.08,0,0,1-26.4,1.73c-9-1.57-17.7.09-26.18,5q-10.1-2.61-20.23-5.3c-6.73-1.74-12.18-.29-16.27,4.38q-29.91-1.29-49.49,3.25c6.6-.44,10,.49,10.12,2.65l-161.67,10.63c.3,4.43,2.08,6.48,5.38,6.26s5.1,1.91,5.38,6.28c-2.36-2-5.73-2.94-10.11-2.65s-5.65-1.81-3.73-6.38c-4.29,2.52-7,3.26-8.14,2.19a6.88,6.88,0,0,0-5.06-1.32q-28.61,18.48-59.17,7.2c-6.3,4.86-15,7.61-26,8.32a170.62,170.62,0,0,0-32.77,5.48l-.44-6.6c-4.43.29-6,1.53-4.73,3.61s.73,3.29-1.43,3.43c-4.72-4.09-8.17-6.1-10.33-6s-4.51-.78-6.82-2.87a117.34,117.34,0,0,0,19.69-2.94c6.52-1.52,12.1-.22,16.82,3.87,3.95-6.89,9.8-10,17.6-9.44a147.88,147.88,0,0,0,21.56.23q22.6-8.07,39.26-7.55t42.79-4.47c-4.72-4.09-12.44-4.15-23.2-.12s-18.61,2.87-23.43-3.44a193.75,193.75,0,0,0,34.42-5.57q17.89-4.44,25,1.67c.29,4.44-1.86,5.66-6.38,3.74s-5.59-.73-3.08,3.5l42.89-2.81a96.35,96.35,0,0,0,35.85-9q26.37-1.73,61.14-2.35c23.18-.39,43.3-4.51,60.5-12.26a40.76,40.76,0,0,0,28.26,1.45c9.76-2.81,20.24-2.42,31.56,1.24q25.5-14.86,49.16-8.2t39.05-10.84l-6.6.43-.43-6.61q46.16-3,102.38-5.07a1007,1007,0,0,0,102.17-8.37l-.65-9.9a14.27,14.27,0,0,1,13.2-.86,13.93,13.93,0,0,0,13.19-.87c-.28-4.38-2.57-5.31-6.81-2.86s-4.43.28-.43-6.6c-4.43.28-6,2.06-4.63,5.28s-.31,3.9-4.84,2c1.87-4.51,1.7-7.25-.54-8.24s-2.39-2.59-.32-5c11.13,1.49,25.47,1.64,43.1.48-4.72-4.09-9.24-6-13.63-5.73s-9-1.59-13.63-5.73c.29,4.43-.7,6.67-2.87,6.81q-13.65-5.7-20.12-3.65c-4.35,1.42-9.93.14-16.82-3.85l-.43-6.6c-4.43.29-5.44,1.49-3.09,3.5s1.23,2.15-3.29.23c-4.72-4.1-7.52-5-8.47-2.76s-3.79,1.38-8.47-2.76q-46,6.36-103.69,10.14l-107.23,7a408.13,408.13,0,0,1,82.15-10.37q42.94-1.11,79.29-3.56l-.22-3.3c-.14-2.17.87-3.37,3.09-3.51a5.33,5.33,0,0,1-3,5.16c-2.15,1.29-1,1.72,3.41,1.44,2-2.32,5.89-2.56,11.55-.76s10.48.44,14.62-4.29c-4.43.3-7.8-.57-10.11-2.64s-5.66-1.81-9.9.65l-.43-6.6c-6.46,2.65-10.84,3.52-13.09,2.53s-5.69-2.38-10.22-4.31q3.9,9.69-12.54,10.77c-.29-4.38.64-6.67,2.86-6.82s4.31-1.36,6.37-3.74c-4.43.3-7.12,1-8.13,2.21s-3.75,1.9-8.14,2.19q-2.88,6.85,1.87,3.18c3.15-2.38,4.88-1.4,5.17,3a243.26,243.26,0,0,0-39.82-.7A184.6,184.6,0,0,1-467,55.54l3.09-3.53c-6.6.44-11,1.86-13,4.18l6.6-.44c-1.93,4.58-4.08,5.82-6.39,3.73s-5.66-1.79-9.89.65l-.43-6.6q-6.43,3.78-9.8,2.32c-2.28-.94-5.62-1.3-10-1,.29,4.44,3.1,5.34,8.46,2.75s8.18-1.61,8.47,2.76q-10.33-5.91-26.5.09c-10.82,4-19.68,3-26.73-3.23-2.21.16-2.14,1.29.22,3.31s1.31,3.22-3.08,3.52a147.81,147.81,0,0,1-21.55-.24q-11.72-.87-14.52,5.93-17-5.49-19.8,1.29a40.6,40.6,0,0,0-10.33-6c-4.58-1.87-7.8-.57-9.68,4,8.76-.58,13.34,1.36,13.63,5.73-17.92-3.21-33.88-2.74-48,1.51s-29,4.69-44.65,1.27c-4.14,4.72-5.08,7-2.86,6.81-2.07,2.37-3.3.22-3.74-6.38-4.43.29-6,1.53-4.72,3.62s.73,3.27-1.44,3.42c-.14-2.17-2.43-3.16-6.81-2.87-2.23.14-2.71,1.31-1.44,3.4s.74,3.28-1.43,3.42c-17.92-3.23-35-2.68-51.25,1.71s-30.07,4.76-41.35,1.06c-4.14,4.72-5.08,7-2.86,6.82-2.22.14-3.33-.31-3.41-1.44s-1.24-1.57-3.4-1.43c-4.29,2.51-10.82,4-19.58,4.6S-860.7,99.11-865.37,95c-4.15,4.73-11.82,5.24-23.1,1.52.29,4.43-.74,6.16-3,5.17s-3.33-.3-3.19,1.86c4.52,1.94,8.43,2.25,11.65.9s6-.92,8.36,1.11q-36.12,5.7-62.8,2.47c-17.85-2.15-33.16-.57-46.08,4.69.15,2.2,1.84,2.67,5.06,1.32s5,.24,5.27,4.63c-8.81.58-15.55-1.16-20.22-5.3-1.78,6.74-1,10,2.3,9.78a11.39,11.39,0,0,1,8.46,2.75c-4.14,4.73-10.06,6.78-17.82,6.15s-13.79.39-18,2.84q-4.18-12.91-15.82-13.88a142.38,142.38,0,0,0-18.25-.45,5.43,5.43,0,0,1,5.17,3c1.22,2.13.72,3.25-1.44,3.39a341.28,341.28,0,0,0-38.26-2.46,105.05,105.05,0,0,0-40.92,7.67c-1.93,4.58-1.28,5.61,1.87,3.18s4.88-1.4,5.16,3a23,23,0,0,0-15-.68,22.18,22.18,0,0,1-15-.67,18.92,18.92,0,0,1,13.09-2.52q6.69,1.28,6.28-5.37a55.17,55.17,0,0,0-13.09,2.51,52.93,52.93,0,0,1-13.1,2.52c-1.92,4.58-1.28,5.62,1.87,3.19s4.88-1.41,5.17,3l-9.9.65c-.29-4.39-1.57-6.53-3.73-6.39.29,4.43-2.94,5.73-9.68,3.95s-11.11-.36-13,4.17c2.3,2.08,5.09,1.9,8.24-.54s5.89-2.56,8.25-.55c-10.89,3-19.54,5.18-26.06,6.7s-15.31,2.66-26.29,3.37l-.43-6.6a293.27,293.27,0,0,1-41,6,120.55,120.55,0,0,0-37.5,9.09,20.19,20.19,0,0,1-11.77-2.54c-3.44-1.94-6.15-.68-8,3.84q7,6.21,13.41,2.44A14.23,14.23,0,0,1-1295,163a148.83,148.83,0,0,1-17.81,6.13,90,90,0,0,1-18,2.83c-2.36-2-3.07-4.18-2.08-6.47s.3-3.35-1.87-3.2c-2.07,2.37-5.33,3.15-9.79,2.3s-7.69,1.09-9.57,5.6c2.46,4.29,5.27,4.63,8.36,1.11s5.85-3.13,8.35,1.1c-6.3,4.87-12.32,6.35-17.92,4.5s-10.61-1.48-14.85,1l-.44-6.6c-4.28,2.52-10.24,4-17.93,4.49s-12.53,3.06-14.4,7.59a40.5,40.5,0,0,0,14.62-4.29q8-3.79,11.77,2.55c-11.32-3.65-16.72-2.22-16.28,4.38q-13.65-5.72-23.1,1.52t-19.79,1.31c2-2.31,4.76-3.06,8.14-2.21s7.08-1,11.22-5.71q-26.44,1.74-32.56,8.79c2.31,2.05,5.13,2.45,8.36,1.09s5,.24,5.27,4.63a59.09,59.09,0,0,0-18.36-2.11c-5.51.36-10.61-1.47-15.28-5.62-8.52,5-16.63,7.72-24.31,8.23a37.94,37.94,0,0,0-21,8,35.28,35.28,0,0,0,11.43-2.41c3.23-1.29,9.23-2.26,18-2.84.28,4.43,1.51,6.52,3.72,6.38-4.43.29-6.52,1.57-6.38,3.74,4.68,4.14,8.62,5,11.77,2.53a51.75,51.75,0,0,0,7.81-7.14c4.67,4.16,10.73,4.27,18.26.46s13.53-3.63,18.25.47q-45.81,9.66-90,17.5t-80.07,16.87c-.15-2.18-1.35-3.24-3.52-3.1s-3.36-.85-3.51-3.08c4.38-.29,5.43-.87,3.19-1.86s-1.32-2.66,3-5.17c.14,2.23,2.38,3.15,6.81,2.86s6.47-2.59,6.18-7q-9.69,4-14.85,1t-11.34,4.06c4.38-.29,6.68.7,6.82,2.86l-6.6.43.65,9.92,9.9-.66q-26,8.39-39.16,9.2c.29,4.43-1.29,5.62-4.73,3.62s-5.09-1.84-5,.33q13.59,5.77,19.8-1.3a122.84,122.84,0,0,0,29.47-5.25,110.15,110.15,0,0,1,26.18-5c2.16-.14,4.49,1.35,6.92,4.52s5.65,2.42,9.79-2.29c-2.36-2-4.61-2.45-6.71-1.23s-2.24-.36-.32-4.94l21.44-1.41a146.09,146.09,0,0,0,27.83-5.16c4-6.89,13.7-9.7,29.26-8.55s28.71.35,39.59-2.6Zm-725.76,200.13c2.46,4.29,3.59,4.21,3.3-.23S-2174.39,411.85-2176.27,416.38Zm11.73-73.68c1.88-4.52,3-4.6,3.29-.21S-2162.08,347-2164.54,342.7ZM-2173,465.87c2.46,4.28,3.59,4.21,3.3-.22S-2171.14,461.33-2173,465.87Zm20.76-87.52c-6.6.43-9.82,1.78-9.68,3.94q6.57-.42,9.68-3.94,16.91,5.56,26.29-3.38c6.24-5.9,14.89-8.14,26.07-6.69,2-2.32,4.19-3,6.48-2.09s3.27-.74,3-5.17a45,45,0,0,0-31,7A63.53,63.53,0,0,1-2152.26,378.35Zm-9.29,60.25c4.37-.3,6.52-1.52,6.37-3.73C-2161.77,435.3-2163.91,436.58-2161.55,438.6Zm-1.57,26.61q.23,3.32,20,2c-2.5-4.24-5.94-6.24-10.33-5.95S-2161.1,462.9-2163.12,465.21Zm5.9,39.37-3.3.21c-2.07,2.37-2,3.46.22,3.31S-2157.07,506.8-2157.22,504.58Zm5.56-66.63,3.3-.22-.21-3.3-3.3.22Zm17.68-84c4.38-.29,6.52-1.51,6.38-3.74l-6.6.44Zm-10,149.76c6.6-.43,10,1.57,10.33,6C-2140.29,510.11-2143.73,508.14-2144,503.71Zm4.38,16.29-.21-3.3c-2.36-2-4-1.4-4.84,2S-2143.92,522.49-2139.64,520Zm7.34-89.95,3.3-.21-.21-3.3-3.3.21Zm5.52-16.93c.29,4.44-.85,4.51-3.3.22C-2128.2,408.81-2127.07,408.73-2126.78,413.12Zm2.91-56.53c2.16-.14,3.27-.72,3.19-1.86s1-1.72,3.19-1.87C-2121.92,353.16-2124,354.43-2123.87,356.59Zm14,62c-6.6.44-9.31,1.76-8,3.85S-2114,423.36-2109.85,418.63Zm-1-66.19c-2.08,2.35.21,3.29,6.81,2.85-.29-4.37-1.57-6.52-3.73-6.38S-2111,350.27-2110.88,352.44Zm-6.7,99.82c2.31,2.09,4.49,1.38,6.49-2.06s4.2-3,6.71,1.2l-.22-3.29-.21-3.29C-2111.42,445.24-2115.7,447.75-2117.58,452.26Zm16.76-47.47c-2.36-2-.25-3.81,6.27-5.38s9.94-.09,10.23,4.3c-4.29,2.5-7.55,3.29-9.8,2.3A14.76,14.76,0,0,0-2100.82,404.79Zm8.68,6c1.37,4.37.81,4.42-1.65.11C-2094.08,406.57-2093.56,406.53-2092.14,410.84Zm-2.78,33.32.22,3.29,3.07-3.51c2.17-.13,3.23-1.29,3.09-3.52l-3.09,3.52Zm7.34-90,.65,9.91a22.43,22.43,0,0,1,16.06-7.69,22.33,22.33,0,0,0,16.07-7.69C-2069.93,354.19-2080.83,356-2087.58,354.21Zm14.33-34.06-3.3.21c-2.07,2.36-2,3.44.22,3.29S-2073.11,322.36-2073.25,320.15Zm1.25,69.49c.15,2.21,2.91,2.61,8.36,1.1s5.78-4.21,1.11-8.35c-2.07,2.36-4.25,3.07-6.49,2.07S-2072.29,385.26-2072,389.64Zm0,49.7c-.15-2.16,1.4-3.92,4.62-5.26s2.55-2.93-2-4.85C-2073.54,434-2074.4,437.33-2072,439.34Zm23.19-100.93c-.15-2.15.86-3.37,3.08-3.51l-3.52-3.08-3.08,3.51Zm.65,9.9,3.29-.22c2-2.3,1.44-3.41-1.86-3.19S-2050.56,346.29-2048.2,348.31Zm3.66,80.93c-3.37-.85-4.92.9-4.63,5.28,11.28,3.72,23.35,2.35,36.19-4s23.56-10.93,32.24-13.73c-2.22.16-3.34-.29-3.42-1.43s-1.24-1.56-3.41-1.43c-21.71,5.88-39.15,9.2-52.35,10.07Q-2039.48,430.63-2044.54,429.24Zm2.94-81.36c6.59-.43,10.9-1.8,13-4.17C-2037.44,344.29-2041.74,345.71-2041.6,347.88Zm2.65-10.11,3.29-.22c-.14-2.16.3-3.34,1.44-3.41s1.57-1.2,1.43-3.41l-6.6.44Zm13.63,5.72,3.29-.22-.21-3.29-3.3.22Zm-3.87,142.74c-.15-2.17,1.94-3.44,6.37-3.74C-2024.89,484.87-2027,486.09-2029.19,486.23Zm12.2-116.77,6.59-.43a5.41,5.41,0,0,0-3.62-4.74C-2016.3,363.35-2017.28,365.08-2017,369.46Zm14.76-27.49c-.29-4.38-2.65-6.44-7-6.16C-2009,340.25-2006.67,342.26-2002.23,342Zm3.08-3.51c-2.22.14-3.22,1.35-3.08,3.51C-2000.06,341.83-1999,340.69-1999.15,338.46Zm-8,129.75c4.38-.28,7.19.68,8.47,2.77s4,3,8.46,2.75c-.29-4.39-2.72-7.54-7.25-9.46S-2005.31,463.69-2007.19,468.21Zm14.42-133.48,3.3-.21-.22-3.31-3.29.22Zm6.6-.43q3.47,3.1,5-.33c.94-2.23.3-3.33-1.87-3.19.15,2.21-1,2.85-3.19,1.85S-1988.53,332.28-1986.17,334.3Zm-2,20,3.52,3.1c-.29-4.4-1.57-6.54-3.73-6.39Zm8.6-20.44c6.6-.42,7.54-2.67,2.86-6.81.15,2.21-.34,3.34-1.43,3.4S-1979.71,331.7-1979.57,333.86Zm-1.66,126c-2.21.15-3.33-.31-3.41-1.45s-1.24-1.56-3.4-1.42c-1.93,4.58-1.79,6.74.43,6.6S-1983.3,462.24-1981.23,459.89Zm46-56c-4.43.29-6.63-.09-6.71-1.22s-1.24-1.58-3.4-1.43q-6,10.32-19.8,1.29t-19.36,7.91a49.51,49.51,0,0,0,13.85,9q6.14-7,19.47-6.25c8.84.55,14.17-2.58,16-9.33,2.16-.14,3.23-1.31,3.08-3.52a3,3,0,0,0-3.51-3.09ZM-1970.37,373c-4.43.28-6.15-.69-5.17-3S-1972.87,368.78-1970.37,373Zm-1.61,76.3c-.29-4.37-1.57-6.52-3.73-6.38C-1979.86,447.67-1978.58,449.77-1972,449.33Zm1.61-76.3c4.38-.29,5,.8,1.87,3.18S-1972.29,377.6-1970.37,373Zm3.78-43.33c6.75,1.78,12.78,1.38,18.15-1.2a49.3,49.3,0,0,1,17.92-4.49c-4.72-4.08-10.85-5.34-18.46-3.76S-1962.49,325-1966.59,329.7Zm-10.47,143.16c2.16-.14,3.45,2,3.73,6.38C-1977.76,479.53-1979,477.44-1977.06,472.86Zm14.93,25.54q-9.67,3.94-16.93-5.52c9,3.84,16.79,3.34,23.09-1.52s13-4.18,20,2C-1947,494.08-1955.67,495.79-1962.13,498.4Zm4.52-132.84c-2.35-2-1.83-2.62,1.54-1.76s4,2.54,2,4.83l-3.3.22Zm-3,106.21c4.39-.28,5.5.22,3.41,1.44a5.33,5.33,0,0,0-3,5.16Zm25.45-167.34-6.59.43c-2.07,2.38-2,4,.33,4.95S-1937,309-1935.12,304.43Zm-12.59,60.48c1.88-4.53,3-4.6,3.3-.22S-1945.25,369.19-1947.71,364.91Zm-1.83,73,.22,3.29,3.29-.22-.43-6.59-3.29.22ZM-1940,381a37,37,0,0,1,11.65.89c3.38.92,7.15.09,11.44-2.41-2.5-4.24-7.06-6.68-13.75-7.38S-1940.46,374.37-1940,381Zm10.45,108.65c2.16-.14,4.45.85,6.81,2.88.14,2.21-1.43,3.4-4.73,3.62S-1931.5,494.2-1929.57,489.62Zm3.77-43.32q6.81,2.9,20.24,5.3c8.91,1.64,15.43.13,19.58-4.6a29.07,29.07,0,0,0,13.41,2.43c4.38-.29,7.54-2.67,9.46-7.25q-17-5.48-30-3C-1901.87,440.89-1912.74,443.27-1925.8,446.3Zm19.73-153.71c8.76-.59,13.12-1.95,13-4.17C-1899.69,288.86-1904,290.27-1906.07,292.59Zm-14,189.78c4.38-.29,7.15.09,8.36,1.12s3.85.31,8.14-2.2c.29,4.43-2.38,6.27-7.92,5.5S-1920,484.6-1920.11,482.37Zm167.27-127c-4.28,2.51-6.45,2.65-6.6.43s-2.43-3.15-6.81-2.86q-9,13.86-29,11.85t-29,11.84c-2.65-6.45-5.08-9.6-7.24-9.45l-13.2.86c-1.93,4.58-1.29,5.63,1.87,3.19s4.87-1.4,5.16,3a40.12,40.12,0,0,1-19.69,3c-6.67-.66-14.36.43-23,3.16-4.15,4.73-14.83,9.83-32.13,15.36a61.91,61.91,0,0,0,20,2c6.15-7,15.31-10.38,27.5-10.09a73.33,73.33,0,0,0,34.31-7.23,295.65,295.65,0,0,1,52.24-11.71,183,183,0,0,0,52-15,324.93,324.93,0,0,0,32.88-3.82,58.45,58.45,0,0,0,28.94-13.49c-15.13,5.45-26.18,5-33.22-1.15-4.14,4.73-11,9-20.68,13a60.22,60.22,0,0,1-31.24,3.72Zm-143.86,29.33-9.91.66c2-2.31,3.69-2.43,5-.33S-1898.77,387.1-1896.7,384.74Zm1-86.21c.29,4.43,2,6,5.27,4.62a20.39,20.39,0,0,0,7.93-5.48Zm-4.58,182.54,3.3-.22.22,3.3-3.3.22Zm21.08-183.63,3.3-.21-.22-3.3-3.3.21Zm2.86-6.81q10.34,6,19.8-1.3a20.19,20.19,0,0,1-11.77-2.54C-1871.79,284.85-1874.5,286.11-1876.38,290.63Zm7,55.86c.3,4.43-1.28,5.63-4.73,3.64s-4-1.92-1.64.11c-4.44.3-5.59-.72-3.52-3.09S-1874,344.62-1869.4,346.49ZM-1877.66,473c.44,6.59-3.78,10.18-12.54,10.75-.28-4.37.69-6.09,3-5.15S-1881.79,477.68-1877.66,473Zm9.83-153.06c-4.58-1.88-6.7-1.22-6.49,2.07s2.49,4.81,6.92,4.52Zm8.65,30.9a51.91,51.91,0,0,0,13.31.78q-9.24,10.56-19.79,1.31C-1865.81,350.71-1863.68,350-1859.18,350.8Zm-5.4,18.58c.14,2.22,1.3,3.23,3.52,3.07l-.22-3.28-3.52-3.08Zm8-80.05c2.31,2.08,5.68,2.93,10.11,2.64s6.45-2.59,6.17-7C-1845,280.85-1850.42,282.29-1856.58,289.33Zm-10.48,143.17c4.53,1.93,6.71,1.21,6.49-2.08S-1863,427.83-1867.06,432.5Zm12.55-10.77c2.45,4.3,3.63,4.74,3.41,1.44S-1852.49,419.43-1854.51,421.73Zm30.7-137.86c-4.72-4.1-10.18-3.74-16.49,1.08Q-1833.08,294.4-1823.81,283.87Zm-7.74,159.56c-1.13.07-1.57,1.23-1.43,3.4q-10.11-2.61-10.33-5.95l13.19-.87C-1830,442.23-1830.46,443.36-1831.55,443.43Zm9.06-164.62c3.37.91,4.93-.85,4.63-5.28-2.22.14-3.33-.29-3.41-1.43s-1.25-1.57-3.41-1.43c.15,2.21-.91,3.37-3.08,3.51C-1827.61,276.39-1825.85,277.94-1822.49,278.81Zm-10.18,71.91c1.88-4.53,2.41-5.13,1.54-1.76S-1832.52,352.94-1832.67,350.72Zm1.31,19.79-3.09,3.52Zm15.86-35.83a6.9,6.9,0,0,1,2,4.84l-3.52-3.09C-1817.19,334.28-1816.7,333.67-1815.5,334.68Zm-8.23,101.59.43,6.61C-1825.66,440.85-1825.8,438.63-1823.73,436.27Zm25.23-170.63c-1.93,4.58-1.29,5.61,1.86,3.19s4.89-1.41,5.17,3c-4.43.29-7.8-.58-10.11-2.65s-5.66-1.8-9.9.65q7.44,12.79,15.5,8.92c5.32-2.53,12.41-4.12,21.23-4.7-.58-8.76-1.86-10.92-3.74-6.39l.22,3.3A35.78,35.78,0,0,1-1788.6,265C-1791,263-1794.26,263.19-1798.5,265.64Zm-8.64,70.14-3.3.22ZM-1816,452.34l3.3-.21.21,3.29-3.3.21Zm12.2-116.78,9.9-.64a20.37,20.37,0,0,1-7.92,5.49C-1805.09,341.77-1805.77,340.14-1803.85,335.56Zm-5.39,119.65,9.9-.66c.29,4.44-1.21,6.71-4.51,6.92S-1808.95,459.65-1809.24,455.21Zm21.46-127.33c-2.07,2.37-5.3,3.66-9.69,3.95C-1797.6,329.67-1794.38,328.32-1787.78,327.88Zm-12.86,106.88c4.24-2.45,4.81-2.49,1.65-.11S-1802.71,437.12-1800.64,434.76Zm11.73-73.66c-4.73-4.1-6.93-4.52-6.71-1.23S-1793.2,363.6-1788.91,361.1Zm1.78-23.31q-2.89,6.85-4.95.32T-1787.13,337.79Zm12.33-14.07q6.78,2.89.32,4.95T-1774.8,323.72Zm4.43-33.43c.3,4.43,3.73,6.4,10.33,6C-1760.33,291.86-1763.77,289.86-1770.37,290.29Zm18,22a63.27,63.27,0,0,0-19.58,4.6c-.14-2.16,1.82-5.61,6-10.33,4.68,4.14,9.13,4.93,13.42,2.42s9.68-3.94,16.28-4.37A22.42,22.42,0,0,1-1752.36,312.31Zm13.42,2.42c.29,4.43-1.78,6.74-6.17,7s-4.36,1.43.22,3.29q-6.43,3.78-14.84,1c-5.66-1.8-9.6-2.68-11.77-2.53q6.15-7,16.17-6.05C-1748.65,318.17-1743.23,317.25-1738.94,314.73Zm-22.62-41.58c-2.21.14-2.74.75-1.54,1.75s.63,1.62-1.54,1.76C-1764.78,274.49-1763.77,273.29-1761.56,273.15Zm.39,56.3c.15,2.21-1.43,3.4-4.73,3.62s-3.94-.83-1.87-3.19Zm.56,109.31a28.94,28.94,0,0,0,13.41,2.43c.29,4.43-2.38,6.27-7.92,5.49S-1762.54,443.34-1760.61,438.76Zm20.54-90.81c-.29-4.39-1.64-7.6-4-9.69l-9.46,7.25A30.18,30.18,0,0,1-1740.07,348Zm-3-95.9c-2.22.14-3.23,1.36-3.08,3.53C-1744,255.43-1742.92,254.27-1743.06,252.05Zm-10.69,139.88c11-.73,16.42-2.18,16.28-4.39l-16.5,1.08Zm-1.57,26.59c2-2.29,2.66-1.26,1.87,3.21S-1754.88,425.12-1755.32,418.52ZM-1728,254.38a20.27,20.27,0,0,0,11.77,2.54c-2.51-4.24-6.55-6.72-12.1-7.49s-9.34,1.17-11.21,5.71C-1735.31,252.68-1731.44,252.43-1728,254.38Zm-13.59,70.47,6.6-.44c.14,2.23-1.44,3.42-4.73,3.63S-1743.66,327.22-1741.59,324.85Zm-7.13,93.24,13.2-.86c.14,2.22-2,3.45-6.38,3.74S-1748.57,420.31-1748.72,418.09Zm12.21-116.77,3.3-.22.21,3.3-3.29.23Zm4-40,3.3-.22-.21-3.29-3.3.21Zm32.73,44.23c2.32,2.08.22,3.31-6.38,3.74.29,4.43,2.57,5.94,6.93,4.5s7.65-1,10,1c-6.3,4.86-12.84,6.39-19.57,4.59s-14.48-1.22-23.1,1.52c-.29-4.39.68-6.1,3-5.17s3.25-.72,3-5.15c2.47,4.28,4.18,5.25,5.18,3s3.74-1.34,8.46,2.77a21.51,21.51,0,0,0,4.4-8.58C-1707.06,304.35-1704.36,303.67-1699.79,305.53Zm-41,131.94,6.6-.44c.15,2.21-.91,3.37-3.09,3.51S-1740.67,439.67-1740.82,437.47Zm25.45-167.35-6.38,3.73C-1721.89,271.68-1719.8,270.4-1715.37,270.12Zm-1.08-16.5,3.3-.22-.22-3.3-3.3.22Zm9.2,39.16.22,3.3-3.08,3.5c-6.6.44-8.89-.5-6.82-2.86Q-1710.36,296.3-1707.25,292.78Zm6.86-46.84c.15,2.21,1.3,3.22,3.52,3.07s3.16-2.37,2.86-6.82C-1698.44,242.48-1700.53,243.77-1700.39,245.94ZM-1710,402.3c4.24-2.45,4.8-2.49,1.64-.11S-1712.06,404.65-1710,402.3Zm9.77-103.37c1.88-4.52,3-5.15,3.19-1.86S-1697.91,301-1700.22,298.93Zm16.28-4.37-9.9.65-.43-6.61C-1688.11,281.56-1684.66,283.58-1683.94,294.56Zm-3.47-52.8c.15,2.22,2.39,3.17,6.82,2.88s7.6-1.6,9.68-4c-.14-2.16-3-3.64-8.57-4.4S-1687.7,237.39-1687.41,241.76Zm-12.25,166.48,3.29-.21.22,3.3-3.29.22Zm16.15-107.08c1.88-4.53,3-4.6,3.3-.22S-1681,305.45-1683.51,301.16Zm7,6.16c2.16-.14,2.8,1,1.87,3.18s-2.64,2.4-5,.34l-.22-3.3Zm-4,89.72c-.29-4.38-1.58-6.52-3.74-6.37C-1688.4,395.39-1687.11,397.48-1680.51,397Zm6-109.74c-.29-4.37,2.33-6.2,7.92-5.48s9.59,3.24,12.08,7.49C-1665.5,290-1672.17,289.38-1674.47,287.3Zm7.29-40.24c2.46,4.3,3.59,4.22,3.3-.21S-1665.3,242.54-1667.18,247.06Zm.17,53c-4.43.29-3.94-.83,1.43-3.41s8.18-1.62,8.46,2.77Zm.69-39.81,3.3-.21-.21-3.31-3.3.22Zm32,133.75c-.14-2.17,1.44-3.4,4.73-3.62s4.81-2.49,4.52-6.92c-8.52,5-16.13,6.59-22.88,4.81s-15.63-2.28-26.61-1.56c4.68,4.15,10.85,5.91,18.58,5.41A68.81,68.81,0,0,1-1634.33,394Zm-32.46-90.64c2-2.31,3.15-2.38,3.3-.22s1.22,2.14,3.29-.22q.23,3.33-4.62,5.27C-1668,309.55-1668.72,308-1666.79,303.37Zm6.64-50.13.22,3.29c2.31,2.07,3.44,2,3.29-.22S-1658,253.09-1660.15,253.24Zm15.15,28.81c-2.07,2.36-4.8,2.54-8.25.54s-6.3-2.9-8.47-2.76C-1657.62,275.17-1652,275.89-1645,282.05Zm-2.65,10.12,6.6-.44c.29,4.44-1.22,6.71-4.51,6.94S-1649.57,296.74-1647.65,292.17Zm19.52-56c2.09-1.23,6.56-1,13.3.78-.14-2.15-.78-3.26-1.87-3.19s-1.71-1-1.86-3.19c-4.14,4.73-7.4,5.46-9.78,2.31s-4.62-2.44-6.5,2.07C-1632.53,237.08-1630.27,237.49-1628.13,236.21Zm-17.18,142c-1.92,4.58.44,6.61,7,6.18s8.62-2.76,6.16-7q-3.53-3-4.94.33C-1638,379.92-1640.78,380.1-1645.31,378.16Zm25.23-170.63q-3.11,3.53-9.68,3.94C-1629.9,209.3-1626.68,208-1620.08,207.53Zm-5.39,119.63c-4.28,2.5-6.49,2.09-6.71-1.22S-1630.19,323.07-1625.47,327.16Zm5.47,32.77a5.41,5.41,0,0,0-3.62-4.73c-2.29-.94-3.34-.29-3.19,1.86,2.16-.13,3.33.36,3.41,1.45S-1622.22,360.08-1620,359.93Zm-5.51,16.93,9.89-.65Q-1616.26,366.31-1625.51,376.86Zm48.14,26.66c-6.17,7-13.76,9.76-22.66,8.12s-17.92-3.23-26.83-4.86q16.24-4.33,29.37-6.91T-1577.37,403.52Zm-49.06,9.86,13.2-.87c.14,2.21-2.54,4-7.92,5.48S-1628.36,418-1626.43,413.38Zm16.11-57.4c-2.07,2.37.22,3.3,6.82,2.87l-.22-3.3Zm-1.57,26.62c4.39-.28,6.46-2.6,6.17-7l-6.6.43Zm9.47-7.26c.3,4.43,2.46,4.29,6.6-.43C-1600.54,370.83-1602.7,371-1602.42,375.34Zm5.51-16.93,3.09-3.51-6.6.43Zm8.05-129.76,3.29-.21-.21-3.29-3.3.21Zm-1.62,76.33,6.6-.44-3.73-6.37c.14,2.21-.92,3.37-3.09,3.51S-1592.84,303-1590.48,305Zm14.59-80.49a2.93,2.93,0,0,0-3.51-3.07l.22,3.29Zm4.34,66q-3.1,3.54-5,.33c-1.27-2.09-2.85-.9-4.73,3.63.14,2.21,1.87,3.18,5.17,3S-1571.26,294.92-1571.55,290.48ZM-1580.8,301c.29,4.43,2.6,6.45,7,6.16s6.46-2.6,6.17-7Zm8.38-23.76c-2.21.15-3.26.78-3.19,1.87s-1,1.72-3.19,1.86C-1578.94,278.85-1576.85,277.58-1572.42,277.28Zm6.65-50.14c-.29-4.38-2.09-6.48-5.38-6.27s-3.79,1.38-1.43,3.41S-1568,227.28-1565.77,227.14Zm-7.25-9.46c4.53,1.93,7.79,1.15,9.79-2.29s5.21-4.18,9.79-2.31c-.29-4.38-2.58-5.31-6.82-2.87S-1568.78,215.23-1573,217.68Zm13.36,52.14a29.8,29.8,0,0,0-13.41-2.43c-.29-4.39,2.34-6.21,7.92-5.49S-1557.77,265.3-1559.66,269.82Zm50.92,119.26c-4.14,4.72-9,7.21-14.41,7.56s-11.55.77-18.15,1.19a47.36,47.36,0,0,0-21.55-.24c-7.66,1.64-13.8.4-18.48-3.74q16.47-1.08,34.75-.63A147.3,147.3,0,0,0-1508.74,389.08Zm-35.81-166.64c7.69-.51,13.58-3.08,17.72-7.8q-23.55-5.05-35.86,9Zm-5,50c-2.07,2.38-5.26,4.23-9.57,5.61s-6.64-.08-6.93-4.52Zm16.4,98.33.44,6.61a186.52,186.52,0,0,1-36.08,5.68c-.29-4.38,2.87-6.82,9.47-7.25s11,.4,13.41,2.44C-1541.8,373.59-1537.57,371.08-1533.14,370.79Zm-17.22-161.23c6.6-.43,9.83-1.72,9.68-3.94C-1547.28,206.06-1550.5,207.4-1550.36,209.56Zm10.07,52.36c-4.14,4.72-8.45,6.09-13,4.17Q-1553.93,256.19-1540.29,261.92ZM-1552.62,276c8.76-.57,13.41,2.43,13.85,9-4.58-1.89-6.74-1.75-6.6.43s-1,2.29-3.3.21c-.14-2.17-.79-3.25-1.87-3.18S-1552.33,280.41-1552.62,276Zm200.82-19.82c-2.22.14-2.75.74-1.54,1.75s.62,1.62-1.54,1.76c-4.44.29-7.24-.6-8.47-2.75s-4-1.91-8.25.54c-2.22.14-3.15,2.44-2.87,6.82-17.33,5.59-33.12,8.8-47.4,9.74a319.08,319.08,0,0,0-44.32,6.23l.43,6.6c-4.43.29-6.74-1.73-7-6.16-4.29,2.5-8,3.83-11.33,4.05a11.27,11.27,0,0,0-8,3.84c-6.6.43-11,1.86-13,4.16q-16.75-2.14-28,1.85t-15.28-5.63a126.85,126.85,0,0,1,44.21-7.87,52.11,52.11,0,0,0,37.18-14c-13.19.86-24.15,2.73-32.77,5.47s-20.71,4.67-36.08,5.69c23.75-8.2,45.51-13.44,65.23-15.88a533.69,533.69,0,0,0,65.44-12.58c-1.93,4.57-5.65,7-11.11,7.36s-10.46.68-14.85,1c-4.14,4.72-9.53,6.16-16.28,4.37s-12.19-.27-16.28,4.38c2.46,4.3,8,5,16.72,2.22s15.14-4.31,19.57-4.6l.43,6.6c4.39-.29,6.46-2.59,6.17-7q16.69,2.25,34.43-5.57t24.74-1.63Q-1358.66,253.35-1351.8,256.16Zm-179-51.2-6.6.44c.29,4.43,1.52,6.53,3.73,6.38S-1530.49,209.39-1530.78,205Zm-16.9,196.61-3.08,3.52C-1550.91,402.93-1549.9,401.71-1547.68,401.57Zm10.6-40.45c.28,4.43-1.79,6.74-6.17,7C-1548,364.06-1545.9,361.7-1537.08,361.12Zm3.17-102.93-3.08,3.51Zm15.46-67.28c-4.43.28-6,1.53-4.73,3.62S-1520.37,195.48-1518.45,190.91ZM-1528,297.57l-3.08,3.5C-1531.23,298.92-1530.23,297.71-1528,297.57Zm-5.56,66.62,3.3-.21,3.3-.23-3.09,3.53C-1532.27,367.42-1533.42,366.42-1533.57,364.19Zm10.33,5.95.22,3.3-3.3.22C-1526.46,371.49-1525.45,370.28-1523.24,370.14Zm4.51-6.92c3.3-.22,5.1,1.9,5.38,6.27l-9.89.65C-1523.53,365.77-1522,363.43-1518.73,363.22Zm6.25,19.48q6.81,2.87,14.85-1t15.06,2.32C-1497.69,389.49-1507.66,389-1512.48,382.7Zm14.34-34.1-9.9.66Q-1501,355.49-1498.14,348.6Zm-13.47,47.29a2.94,2.94,0,0,1,3.52,3.08l-3.3.22Zm13-4.17c6.6-.43,10,.49,10.11,2.65-.14-2.16-1.79-2.06-4.94.32S-1498.33,396.15-1498.63,391.72Zm7.3-40.24-3.52-3.09C-1494.55,352.83-1493.41,353.84-1491.33,351.48Zm2-20c2.45,4.3,3.59,4.22,3.3-.22S-1487.45,326.94-1489.33,331.47Zm11.11-133.26c-.13-2.17.92-2.81,3.2-1.89a5.45,5.45,0,0,1,3.63,4.75q-6.43,3.75-5,.32C-1475.4,199.15-1476,198.06-1478.22,198.21Zm6.4-3.74c-.3-4.38,1.87-4.53,6.59-.44Zm11.7,178.16q.43,6.64,10.22,4.28a108.55,108.55,0,0,1,16.39-2.72c-4.14,4.72-9.5,6.74-16.17,6s-11,1.3-12.87,5.83c-4.72-4.1-8.65-5.49-11.88-4.2s-7.19,0-11.86-4.18a14.28,14.28,0,0,1,13.19-.87C-1468.58,378.72-1464.26,377.35-1460.12,372.63Zm-10.1-128.58c3.29-.21,5.09,1.9,5.38,6.28l-6.82-2.86C-1474,245.45-1473.53,244.28-1470.22,244.05Zm-1.92,46.53-3.09,3.51C-1475.36,291.93-1474.36,290.72-1472.14,290.58Zm-.31,96.11c.14,2.2-1.4,4-4.62,5.27s-5-.18-5.28-4.61c2-2.32,3.16-2.39,3.3-.23S-1476.74,389.19-1472.45,386.69Zm5.56-66.64c2-2.31,5.4-1.44,10.12,2.66,4.09-4.68,8.33-7.19,12.76-7.48l16.49-1.08Q-1454.82,302.74-1466.89,320.05Zm11.42,22.45c-1.93,4.57-1.22,6.71,2.08,6.48s4.8-2.49,4.51-6.92ZM-1436.89,222c1.88-4.51,3-4.58,3.3-.21S-1434.43,226.28-1436.89,222Zm11-9c-3.37-.86-6.11-.12-8.14,2.19,1.73-6.75,7.18-8.18,16.28-4.38C-1419.81,213.15-1422.51,213.91-1425.88,213Zm-1.85,97.87q16.68,2.25,25.07,3.32t24.41-6.57c-6.59.42-10-.43-10.11-2.65l16.5-1.08a22.38,22.38,0,0,0,16.06-7.68c-15.27,3.23-27.82,5.13-37.72,5.78S-1414.82,305.6-1427.73,310.85Zm17.94-130.4-6.6.42c-2.08,2.37-1.43,3.42,1.87,3.21S-1409.65,182.66-1409.79,180.45Zm-7.65,186.05-13.2.87c-.29-4.38,1.73-6.74,6.16-7S-1417.73,362.12-1417.44,366.5ZM-1430,377.28c4.37-.29,6.67.69,6.81,2.86C-1429.78,380.57-1432.07,379.63-1430,377.28Zm18.85-166.92c2.31,2.07.22,3.29-6.38,3.73C-1417.66,211.92-1415.57,210.65-1411.14,210.36Zm.69-39.81c2.17-.14,3.28-.73,3.2-1.87s2.13-.65,6.7,1.22c-.29-4.39-2.64-6.46-7-6.17S-1412.95,166.32-1410.45,170.55Zm14.72,22.23q6.8,2.88-4.62,5.27c-7.66,1.64-11.59.25-11.88-4.18a28.43,28.43,0,0,1,8.36,1.09C-1400.49,195.89-1397.8,195.13-1395.73,192.78ZM-1397,375.11a36.91,36.91,0,0,0-11.43,2.4c-3.22,1.35-7.12,1-11.66-.88,2-2.32,6.35-4.26,12.87-5.83S-1397.29,370.72-1397,375.11ZM-1410.54,270l3.3-.21c-.14-2.16-1.35-3.22-3.52-3.09Zm-2.26,66.43a74.25,74.25,0,0,1,22.88-4.82C-1401.39,325.68-1409,327.33-1412.8,336.38Zm30.87-84.87c-4.72-4.09-9.14-4.37-13.31-.78s-7.54,3.29-10-1C-1394.7,242.41-1386.94,243.05-1381.93,251.51Zm-19.53-45.1c-.14-2.16.9-2.81,3.19-1.87s4.42.28,6.49-2.08C-1393.85,204.82-1397.08,206.12-1401.46,206.41Zm-9.6,156.36,3.29-.22.22,3.31-3.3.21Zm23.5-197c2.16-.14,3.23-1.3,3.08-3.51C-1386.7,162.36-1387.71,163.58-1387.56,165.73Zm-1.57,26.62c-.14-2.17,1.43-3.42,4.73-3.63s5,.81,5.16,3c-4.28,2.5-6.41,3.22-6.48,2.08S-1387,192.21-1389.13,192.35Zm7,6.15,6.59-.43.43,6.6-6.59.43Zm-5.45,169.36c8.76-.58,13.34,1.34,13.63,5.73a11.34,11.34,0,0,0-8.46-2.76Q-1387.32,371.16-1387.54,367.86Zm10.81-37.16-6.6.42c-1.92,4.59-1.21,6.71,2.09,6.5S-1376.44,335.13-1376.73,330.7Zm10.48-143.17-3.08,3.51C-1369.48,188.88-1368.47,187.67-1366.25,187.53Zm24.18,15q-7.1-6.13-15-.67c-5.3,3.66-9.28,2.26-11.87-4.2a13.9,13.9,0,0,0,13.19-.86C-1351.47,194.32-1346.94,196.19-1342.07,202.5Zm-1.3-19.78c-1.93,4.57-5.12,6.44-9.58,5.58a56.47,56.47,0,0,0-13.3-.77c1.88-4.53,5.1-5.82,9.68-3.94A14.07,14.07,0,0,0-1343.37,182.72Zm-13.85-9.05-.22-3.29-.22-3.3c-4.14,4.72-6.3,4.87-6.6.44C-1364,172-1361.65,174-1357.22,173.67Zm18.08,174.44q3-3.48,10.55,9.24a138.18,138.18,0,0,0-18,2.84,130.88,130.88,0,0,1-18,2.84c1.88-4.52.69-6.1-3.62-4.72s-6.64-.09-6.93-4.52c13.2-.87,20.81-2.45,22.88-4.81a3,3,0,0,1,3.52,3.07c.15,2.22,1.3,3.23,3.51,3.09s3.27-.74,3.19-1.87,2.06-1.79,6.49-2.09Zm-33.07-24.34c1.23,2.14,2.81,1,4.73-3.62C-1371.91,320.44-1373.48,321.68-1372.21,323.77Zm20.41-67.61c-2.5-4.23-2-5.36,1.43-3.4S-1347.42,255.87-1351.8,256.16Zm-9.78,103.36,3.3-.23c2.16-.13,3.23-1.29,3.08-3.5C-1359.63,356.07-1361.72,357.35-1361.58,359.52Zm23.07-203.64q-6.87-2.79-5,.32T-1338.51,155.88Zm6.12,42.68c-2.36-2-4.61-2.44-6.71-1.22s-2.26-.37-.33-4.94C-1335,192.1-1332.68,194.18-1332.39,198.56Zm-5.25-29.49c1.88-4.51,3-4.58,3.29-.21S-1335.19,173.37-1337.64,169.07Zm-1.18,82.93c2.31,2.07,4,2.54,5.06,1.32s1.68.46,2,4.83q-6.87-2.79-5,.32c1.23,2.16-.35,3.35-4.73,3.63-2.51-4.22-2.62-5.88-.33-4.94S-1338.53,256.43-1338.82,252Zm-10.42,93.45,3.29-.21.22,3.3-3.3.21Zm35.51-115c.29,4.43-2.35,6.77-7.82,7.13s-9.44-.46-11.75-2.54c-.3-4.38,1.8-5.6,6.38-3.73A14,14,0,0,0-1313.73,230.47Zm-15.36-32.13c1.87-4.52,3-5.17,3.19-1.87S-1326.78,200.41-1329.09,198.34Zm13.65-19.13c1-1.14,3.71-1.89,8.14-2.19-6.16,7-11.68,7.4-16.49,1.09C-1319.27,180-1316.5,180.42-1315.44,179.21Zm-19.31,185.18c1.88-4.53,3-4.6,3.3-.22S-1332.29,368.68-1334.75,364.39Zm10.21-96.76q6.15-7,6.49-2.1C-1317.83,268.84-1320,269.55-1324.54,267.63Zm38.63,83.6c-4.15,4.72-9.57,5.6-16.39,2.74s-13.37-1.86-19.69,2.95c-.28-4.38-2.08-6.5-5.38-6.28s-3.94-.82-1.86-3.18Q-1312.76,346.37-1285.91,351.23Zm-33.55-107.14c2.16-.14,3.45,2,3.73,6.39l-3.51-3.09Zm-4.91,76.54c-2.07,2.36-.85,4.51,3.74,6.38,4.23-2.44,8-3.84,11.32-4.06s5.89-2.56,7.82-7.13c-4.29,2.5-8.07,3.31-11.45,2.4S-1320.13,318.18-1324.37,320.63Zm18.11-77.4c.14,2.22-2,3.44-6.39,3.73l3.09-3.52ZM-1297,183c4.68,4.15,8,5,10.11,2.66s4.32-1.38,6.82,2.86q-10.55-9.24-9.46,7.25c-4.43.29-7.24-.62-8.47-2.76s-4.09-3-8.46-2.76c-.29-4.38,1.32-5.06,4.84-2a15.73,15.73,0,0,0,11.87,4.19c-.29-4.38-1.52-6-3.63-4.72S-1296.67,187.41-1297,183Zm-.48,43.11-3.08,3.52-.22-3.29Zm3.13-53.22c2.32,2.07,4.6,3,6.82,2.87.14,2.21-1.43,3.4-4.73,3.63S-1296.25,177.44-1294.32,172.86Zm1,66.2.21,3.3-3.08,3.51a2.93,2.93,0,0,0-3.51-3.07C-1299.81,240.63-1297.72,239.34-1293.28,239.06Zm15.85-11c-2.08,2.36-4.26,3.07-6.5,2.08s-4.46-.22-6.49,2.09l-3.51-3.08Q-1288,218.84-1277.43,228.08Zm-15.85,11,3.29-.22.22,3.31-3.3.21Zm135.17,90.52c-4,6.89-9.46,7.25-16.49,1.08,4.67,4.15,9.76,6,15.28,5.63s9.19-2.78,11.11-7.36c6.89,4,14,3.54,21.44-1.41s15.64-5.43,24.75-1.62q-6.21,7.07-22.77,6.47t-22.77,6.45l-36.29,2.39-.43-6.6c-11,.73-20.29,2.48-27.84,5.15s-17,2.26-28.25-1.46c.14,2.22,1.29,3.23,3.51,3.09a60.12,60.12,0,0,1-31.45.41c-10.11-2.66-20.83-5.79-32.1-9.49a94.36,94.36,0,0,1,46.08-4.69,251.14,251.14,0,0,1,40.35,8.95c2.17-.15,3.16-2.38,2.87-6.83,4.67,4.15,8,4.46,10,1s5.29-3.1,10,1c2.17-.14,3.16-2.39,2.87-6.82A66,66,0,0,1-1158.11,329.58Zm-119.71-157.81c-4.15,4.73-6.81,6-8,3.85S-1284.42,172.2-1277.82,171.77Zm-12.86,106.88.43,6.6c4.53,1.92,10.56,1.53,18.15-1.2s14.56-5.35,21-8q-7.08-6.15-18.26-.46C-1276.86,279.4-1283.93,280.43-1290.68,278.65Zm-1.35,29.9,3.08-3.51C-1291.17,305.19-1292.17,306.38-1292,308.55Zm34.82-75.17c-4.29,2.5-9.09,5.05-14.41,7.58s-9.31,1.73-11.76-2.55c4.52,1.92,8.86,1.06,13.08-2.52S-1261.78,231.51-1257.21,233.38Zm-5-75.89c.29,4.43-.78,5.59-3.09,3.52s-5.72-2.94-10.12-2.65C-1273.36,156.05-1268.93,155.76-1262.19,157.49Zm-2.44,13.42c-2.07,2.36-5.29,3.66-9.68,4C-1274.89,166.09-1271.66,164.74-1264.63,170.91Zm27.27,11.46c2.16-.14,1.61-.62-1.76-1.55s-4.05-2.47-2-4.82a22.3,22.3,0,0,0,15,.66c5.39-1.44,8.36,1.11,8.79,7.71-10.89,2.94-20.26,3-28.15.19s-15.1-2.84-21.56-.23Q-1260.91,177.31-1237.36,182.37Zm-24.83-24.88c4.23-2.44,10.19-4,17.93-4.49a67.1,67.1,0,0,0,21.23-4.71l-6.39,3.74.21,3.29c-4.71-4.08-10.21-4.29-16.6-.56S-1257.67,159.43-1262.19,157.49Zm.86,13.19c-2.35-2-1.35-3.23,3.09-3.51s5.53.77,3.51,3.08Zm13-4.16-3.08,3.52C-1251.58,167.87-1250.57,166.66-1248.35,166.52Zm-6.42,53.45,3.29-.23,6.6-.42c.14,2.21-1.43,3.4-4.73,3.63S-1254.63,222.18-1254.77,220Zm55.48-63.3c-4.15,4.72-10.6,7.31-19.36,7.9l-23.1,1.51a63.54,63.54,0,0,1,19.58-4.59A96.53,96.53,0,0,0-1199.29,156.67Zm-44.29,82.44c1.88-4.54,3-4.61,3.3-.22S-1241.12,243.4-1243.58,239.11Zm-2.05,69.72c-2.21.15-3.22,1.34-3.07,3.52C-1246.54,312.2-1245.48,311-1245.63,308.83Zm4.44-33.43a166.66,166.66,0,0,0,32.78-5.47c-2.51-4.24-8.1-4.95-16.72-2.22S-1239.17,273.1-1241.19,275.4Zm21.24-130.62c4.67,4.14,6.81,2.86,6.37-3.74C-1218,141.33-1220.1,142.61-1219.95,144.78Zm32.07,34.35c-4.57-1.88-8.38-1.64-11.54.75s-7.1,1.6-11.77-2.54q2.82-6.79,11.22-5.72C-1194.43,172.4-1190.38,174.88-1187.88,179.13Zm-24.22,34.72c4.24-2.46,7-2.64,8.24-.54s4,2,8.26-.54c.29,4.43-1.86,5.65-6.39,3.73S-1209.94,213.71-1212.1,213.85Zm21.62-74.33-13.2.87q.43,6.66,5.28,4.63A20.5,20.5,0,0,0-1190.48,139.52Zm-20.58,140.53,3.3-.22a3,3,0,0,0-3.52-3.08Zm16.63-150.21c6.6-.43,9.83-1.73,9.68-3.94C-1191.35,126.34-1194.57,127.69-1194.43,129.84Zm87.08,14.16q-45.37,16.27-88.64,12.46a286,286,0,0,0,39.37-5.9A355.18,355.18,0,0,1-1107.35,144Zm-89.77,45.67c1.87-4.52,3-4.6,3.3-.22S-1194.67,194-1197.12,189.67Zm2-20c-.29-4.39.15-5.51,1.43-3.42a5.23,5.23,0,0,0,5.16,3l-3.3.22Zm3.47,52.79-3.08,3.5C-1194.88,223.8-1193.87,222.59-1191.65,222.45Zm-3.14,53.22,6.6-.43c-.14-2.17-2.43-3.17-6.81-2.87Zm9.34-110c4.39-.29,6.68.71,6.82,2.87l-6.6.43ZM-1186.89,295c-.28-4.37-1.42-4.3-3.29.21C-1187.73,299.53-1186.59,299.45-1186.89,295Zm-.48,43.11c-1.92,4.58-3.54,5.2-4.84,2S-1191.94,336.26-1187.37,338.13Zm-2.16-33,.21,3.29c2.31,2.08,3.41,1.43,3.19-1.86s-1.46-4.89-3.62-4.75Zm17.19-40.9c-2.36-2-5.73-2.94-10.12-2.65-1.92,4.58-.7,6.68,3.74,6.38S-1172.2,266.47-1172.34,264.25Zm.09-99.41-3.08,3.51C-1175.47,166.19-1174.46,165-1172.25,164.84Zm-11.34,130c.29,4.43,3.73,6.38,10.33,5.95-.29-4.37-1-6.56-2.08-6.49s-1.72-1-1.87-3.19c-2.21.15-3.26.79-3.19,1.87S-1181.42,294.66-1183.59,294.8Zm24.71-77.82c-2.07,2.36-6.38,3.73-13,4.16C-1172,219-1167.7,217.57-1158.88,217Zm-10.77-12.55a2.94,2.94,0,0,1,3.52,3.07l-3.3.22Zm-4.47,83.12c4.81,6.31,11.56,8.11,20.22,5.3s16.43-2.17,23.32,1.78c1.87-4.52,4.59-5.78,8-3.84s6.1.75,8-3.84q-16.34,4.43-29.9-1.35T-1174.12,287.55Zm153.2-139.29q3.46,3.13,9.9-.65-12.79,7.51-35.75,10.63c-15.34,2.15-25.42,0-30.23-6.3-4.14,4.73-11.15,6.85-21.13,6.38s-18.17.66-24.63,3.26c.14,2.21,1.3,3.23,3.52,3.09s3.37.91,3.51,3.08q-12.78,7.51-7-6.17c-4.43.3-11,1.87-19.58,4.61s-15.34,2.15-20-2A319.08,319.08,0,0,1-1118,158c14.28-.94,30.07-4.14,47.41-9.74,2.16-.13,3.33.35,3.4,1.44s1.19,1.58,3.41,1.43q6.36-3.68,14.85-1c5.61,1.87,8.32.6,8-3.83l3.53,3.07c4.37-.28,6.45-2.6,6.16-7A40.78,40.78,0,0,1-1020.92,148.26Zm-145,62.55c1.89-4.52,3-4.59,3.3-.21S-1163.46,215.11-1165.92,210.81Zm.18,53c6.45-2.59,11.36-3.49,14.73-2.63a35,35,0,0,0,11.66.89c-2.5-4.23-6.52-6.19-12-5.83S-1161.65,259.14-1165.74,263.81Zm25.74-11.64,3.3-.21c2-2.31,1.4-3.92-2-4.83s-3.91-.28-1.55,1.75Zm9.73-53.65c4.38-.29,6.74,1.79,7,6.17-.14-2.16-1.31-2.66-3.41-1.43S-1130,203-1130.27,198.52Zm-.27,46.41c-2.21.14-3.22,1.35-3.08,3.51C-1131.46,248.3-1130.39,247.15-1130.54,244.93ZM-1116,138c-.84,4.51-1.36,4.53-1.65.1C-1115.8,133.53-1115.24,133.49-1116,138Zm10.83,63.9c-5.59-.72-9.57-2.12-11.88-4.2,4.24-2.45,8.07-3.27,11.45-2.4s8.35,1.1,15,.66Q-1096.9,203-1105.2,201.85Zm-7.44-37.62,6.59-.43-3.08,3.53-3.3.21Zm34.67,73.93c2.46,4.29,5.31,5.2,8.47,2.76s4.88-1.4,5.17,3c-11,.73-17.7.09-20-2-2.07,2.37-1.43,3.42,1.87,3.19s3.89.89,1.86,3.2c-4.57-1.87-10.68-2.62-18.36-2.11s-13.61,3.12-17.71,7.8q16.9,5.57,26.61,1.56c6.46-2.61,15.22-3.18,26.4-1.74-.29-4.38,2.86-6.82,9.46-7.25a22.35,22.35,0,0,0,16.06-7.69c-8.82.58-14.55-2.35-17.14-8.81-1.93,4.58-5.69,6.5-11.23,5.72S-1075.94,235.86-1078,238.16Zm-29.59-97.46,9.89-.65c.15,2.23-1.39,4-4.62,5.28S-1107.27,145.14-1107.56,140.7Zm-7,146.25c.29,4.43,1.48,6,3.62,4.74s5.43-.88,10,1l-.43-6.6c-2.36-2-4-1.91-4.94.32S-1110,288.89-1114.52,287Zm39.73-151.71c-11.17-1.45-19.94-.87-26.39,1.73,1.72-6.74,5.41-9.72,11-9A29.46,29.46,0,0,1-1074.79,135.24Zm52.79-3.47c-10.89,2.95-22.81,5.95-35.86,9s-24.15,2.73-33.21-1.14a236.13,236.13,0,0,0,29.59-3.6Q-1048.44,133.53-1022,131.77Zm-35,71.89c.15,2.21,4.6,3,13.41,2.42,2.46,4.3.44,6.6-6.16,7s-9-1.59-7-6.17a13.93,13.93,0,0,1-13.2.87c-4.29,2.51-5.3,3.67-3.08,3.52s2.24,1,.22,3.3a37.26,37.26,0,0,0-11.44,2.4c-3.23,1.36-7.2,0-11.87-4.18q-.43-6.59,4.61-5.28A21.61,21.61,0,0,1-1083,212c4.39-.29,8.62-2.75,12.76-7.47s9.61-5,16.5-1.08Zm-40.51,39.1,6.6-.43c-.14-2.16-2.43-3.16-6.81-2.86Zm20.06-47.71c-1.92,4.59-3.5,5.79-4.73,3.63s-4-1.91-8.25.54c-.28-4.38,1.22-6.7,4.52-6.93A11.42,11.42,0,0,1-1077.49,195.05Zm-9-35.85c-.15-2.17.41-1.68,1.76,1.54S-1084,163.49-1086.47,159.2Zm3.52,3.08c-.14-2.17.3-3.34,1.43-3.41s1.73,1,1.87,3.2Zm5.21-46.73c-1.13.08-1.57,1.23-1.43,3.41l3.3-.21C-1076,116.57-1076.66,115.48-1077.74,115.55Zm-12.6,186.39c1.87-4.53,2.41-5.14,1.54-1.76S-1090.2,304.15-1090.34,301.94Zm24.58-180.55c-.14-2.15-1.35-3.21-3.52-3.08s-3.22,1.35-3.07,3.51l3.29-.21Zm-5.87,162.75c7,6.16,13.7,6.85,20,2-2.5-4.23-6-6.23-10.33-5.95S-1069.61,281.82-1071.63,284.14Zm17-93.9c-.14-2.17,1.44-3.41,4.73-3.62s3.9.87,1.87,3.19Zm-8,129.75c1.88-4.53,3-4.6,3.3-.22S-1060.19,324.28-1062.65,320Zm6.16-7c4.39-.29,7.16.09,8.36,1.09s3.93,1.41,8.36,1.12l-.43-6.6C-1046.95,306.86-1052.39,308.28-1056.49,313Zm18.37-123.81-3.29.21ZM-838,258.85c.29,4.43,1.51,6.52,3.73,6.37-4.29,2.51-6,2.06-5.06-1.32s-.89-4.9-5.27-4.62c-6.31,4.87-11.19,6.28-14.64,4.28a115,115,0,0,0-12-5.84q-28.82,15.18-72.58,4.76c2.17-.14.22,3.31-5.95,10.33-6.88-3.94-15.17-4-24.85,0s-16.88,3.89-21.55-.25q-15.47,17.63-49.27,6.54c.14,2.23-.36,3.35-1.44,3.42s-1.57,1.25-1.43,3.41c4.38-.3,7.71.06,10,1s5.51.22,9.8-2.3c.29,4.43,1,6.56,2.08,6.49s1.72,1,1.87,3.21c10.69-5.12,19.4-7.35,26.07-6.7s15.54,1.77,26.71,3.23q25.29-18.21,56.09-3.68c2-2.33,3.6-3.58,4.73-3.65s2.67-1.26,4.73-3.62q-23.55-5.06-23.74-8.38c4.24-2.44,10.86-2.36,19.9.36s15.55,1.77,19.69-3c4.82,6.3,9.95,8.77,15.39,7.27s10.45-.11,15.17,4c-4.44.3-6.52,1.57-6.38,3.75,2.31,2.07,4.53,1.92,6.6-.44s5.39-1.44,10.11,2.65c1.88-4.52,9.32-9.42,22.22-14.72l.44,6.59c-8.82.58-13,3.1-12.76,7.48,6.46-2.61,12.34-5.21,17.72-7.8a176.45,176.45,0,0,1,21-8c-2.36-2-1.87-3.2,1.44-3.41s4.81-2.49,4.51-6.92c-9.11-3.81-16.89-4.95-23.41-3.44A116.67,116.67,0,0,1-838,258.85Zm-120.2-114.71q-6.43,3.78-20-2t-23.09,1.52a19,19,0,0,0-13.3-.78,18.34,18.34,0,0,1-13.31-.78Q-982.21,132.5-958.23,144.14Zm-61,129.93-16.51,1.08c-1.92,4.58.44,6.6,7,6.17S-1019,278.5-1019.27,274.07Zm-17.2,40.89c2.46,4.29,3.59,4.21,3.29-.22S-1034.59,310.44-1036.47,315Zm18.15-127.11-3.51-3.08c-.29-4.38,1.88-4.52,6.6-.42Zm45.76-9.63c-4.14,4.72-10.06,6.78-17.82,6.15a155.37,155.37,0,0,0-21.55-.25q6.13-7,19.47-6.24A168,168,0,0,0-972.56,178.22Zm-41.68,122c.14,2.22,1.86,3.2,5.16,3a11.17,11.17,0,0,0,8-3.84c-2.22.15-5.59-.72-10.12-2.65S-1016.75,296-1014.24,300.24Zm11.42-103.47c1.09-.07,1.72,1,1.86,3.21l-3.29.21q-3.54-3-.43-6.61C-1004.54,195.81-1004,196.85-1002.82,196.77Zm8.59,105.48,3.29-.22-.21-3.31-3.3.23Zm91.65-168.39.22,3.31-3.3.21c-2.22.14-3.37-.87-3.52-3.09-8.52,5-19,6.22-31.23,3.71a133.24,133.24,0,0,0-35-2.67q16.47-1.07,44.32-6.23t45.19,7C-894.68,136.65-900.27,135.94-902.58,133.86ZM-975.26,238q10.54,9.26,9.9-.65c-4.44.29-7.24-.61-8.46-2.76S-975.55,233.67-975.26,238Zm12.6-60.47c-2.08,2.37-3.72,2.48-5,.32S-967.24,175.7-962.66,177.57Zm124.76-67.84a207,207,0,0,0-27.93,3.49c-7.66,1.65-17,1.69-28.15.2a79.67,79.67,0,0,0-21.23,4.71q-11.38,4.07-27.83,5.13c-8.81.58-13.27-.21-13.41-2.43,8.76-.57,18.15-1.18,28-1.84a61.7,61.7,0,0,0,27.62-8.44,22.27,22.27,0,0,0,14.95.67,23,23,0,0,1,15,.68Q-844.94,103.59-837.9,109.73ZM-958.54,240.25l3.3-.22-.22-3.29-3.3.22Zm54.83-73.18q-2.89,6.87-19.25,9.55T-943.08,173c8.76-.57,15.32-1.53,19.68-2.95S-912.52,167.65-903.71,167.07Zm-32.39,61.77c-.14-2.17-1.89-3.71-5.27-4.62s-5-.19-4.84,2l.21,3.29ZM-938.92,186l.22,3.3,3.3-.22C-935.55,186.86-936.75,185.8-938.92,186Zm-.26,46.4.44,6.6Zm16.76-47.49c-4.58-1.87-6.19-1.24-4.84,2S-924.35,189.45-922.42,184.86Zm7.25,9.48q3.46,3.09,5.17,3c1.08-.08,2.8,1,5.16,3-4.29,2.5-8.74,1.72-13.41-2.43-2.36-2-1.79-2.06,1.65-.11S-912.71,198.62-915.17,194.34Zm10.42-93.46c4.39-.29,6.53-1.53,6.38-3.74l-6.59.43Zm-1.65,126c-2.51-4.23-2-5.35,1.43-3.41s5,.81,4.73-3.62c-4.44.28-7.7,1.08-9.79,2.3S-911,225-906.4,226.89Zm9.77-103.36,6.6-.43,6.81,2.86C-889.81,126.39-894.32,125.61-896.63,123.53Zm5.9,39.37c4.52,1.94,8.43,2.25,11.65.89s6.08.18,8.58,4.42a18.48,18.48,0,0,1-13.09,2.51C-888.1,169.93-890.44,167.33-890.73,162.9ZM-895.21,246q10.56,9.24,9.9-.66c-4.29,2.51-6.52,1.57-6.81-2.86s-1.42-4.31-3.3.22C-897.64,242.89-897.57,244-895.21,246Zm-5.12,73.23c11-.73,22-.88,33.09-.51s23.14-1,36.19-4Q-873.09,330.76-900.33,319.27Zm14.54-30.77c-.29-4.38-2.65-6.47-7-6.18C-894.75,286.9-892.39,288.93-885.79,288.5Zm62-166.45a203.28,203.28,0,0,0-27.93,3.51,45.78,45.78,0,0,1-21.56-.25c-2.36-2-3.4-1.43-3.19,1.87s1.41,4.87,3.63,4.73c-4.29,2.51-6.68-.65-7.26-9.46,8.62-2.75,19-4.57,31.13-5.37S-828.56,118-823.83,122.05Zm-49.32,56.26c-2.22.14-3.23,1.36-3.09,3.52C-874.07,181.68-873,180.54-873.15,178.31ZM-882.71,285c2.46,4.29,3.59,4.22,3.3-.21S-880.83,280.45-882.71,285Zm10.81-37.16c11-.72,12.21,1.42,3.74,6.38,4.67,4.14,10.74,4.25,18.25.45s13.46-4.71,18-2.84l-.21-3.3-.22-3.29c-4.57-1.88-11.24-2.58-20-2s-15.48-.06-20-2Zm17-93.89c.14,2.21-1.43,3.4-4.74,3.62s-3.93-.83-1.86-3.19Zm6,142.07c-.15-2.15-2.44-3.15-6.81-2.86C-857.73,295.49-855.45,296.44-848.85,296Zm-1.74-26.39-3.08,3.51Zm15.78-163.39,6.6-.44c.14,2.22-1.44,3.41-4.73,3.63S-836.88,108.58-834.81,106.22Zm-9.61,156.36,3.3-.22.22,3.3-3.3.21Zm19.29-160.31a62.4,62.4,0,0,0,20,2,77.46,77.46,0,0,0-14.74,2.61Q-828,109.13-825.13,102.27Zm2,29.68c6.59-.43,11,.42,13.41,2.44q-2.88,6.86-8,3.83C-821.24,136.28-823,134.17-823.18,132Zm-12.47,163.18q9.9-.63,9.68-3.94C-832.57,291.63-835.79,293-835.65,295.13Zm16.76-47.48q-6.43,3.75-5,.32c.94-2.22-.78-3.26-5.17-3-1.93,4.58-1.21,6.71,2.09,6.49A11.15,11.15,0,0,0-818.89,247.65Zm17.63-34.3a35.51,35.51,0,0,1-11.66-.88,37,37,0,0,0-11.65-.9c2.45,4.3,6.5,6.77,12.08,7.49S-803.18,217.93-801.26,213.35ZM-822.68,291q.45,6.64,5.28,4.6c3.23-1.28,4.7-4.12,4.41-8.56C-817.42,287.31-820.65,288.66-822.68,291Zm14.91-176.61c1.88-4.52,3-4.59,3.3-.21S-805.31,118.67-807.77,114.37Zm-2.48,63.12c2.31,2.08,4.6,3,6.82,2.87-2.07,2.37-4.25,3.08-6.49,2.08S-812.32,179.86-810.25,177.49Zm8.22-76.74c1.87-4.52,3-4.6,3.29-.21S-799.58,105-802,100.75Zm.86,13.19c1.88-4.53,3-4.6,3.3-.22S-798.71,118.24-801.17,113.94Zm3.3-.22,9.89-.64Zm-.7,39.82c-2.36-2-1.83-2.62,1.54-1.77s4,2.53,2,4.85l-3.29.21Zm1.78-23.32c2.17-.13,3.37.91,3.52,3.09l-3.3.21Zm2.65-10.11q3-3.47,20,2c-1.92,4.57-4.07,5.81-6.37,3.73s-5.66-1.8-9.9.65C-790.7,122.11-792,120-794.14,120.11Zm-9,166.26c4.38-.29,6.53-1.51,6.38-3.73l-3.3.22C-802.23,283-803.24,284.21-803.09,286.37Zm16.68-199.91,9.9-.65-.22-3.29C-783.76,76.35-787,77.7-786.41,86.46Zm7.86,69.08-13.21.86c-.28-4.38,2.3-6.77,7.82-7.14S-776.68,151-778.55,155.54Zm17.5,90q-21.16,6.35-37.61,7.43c2.6,6.46,10.55,9.25,23.75,8.38,2.16-.14,2.65-1.25,1.43-3.41s-.79-3.25,1.43-3.39a43,43,0,0,1,33-2.17q16.9,5.55,32.56-8.77a11.14,11.14,0,0,0,8.47,2.75c3.29-.22,4.8-2.48,4.51-6.93-13.19.87-21,.3-23.31-1.77.14,2.22-.93,3.37-3.08,3.51A106,106,0,0,0-761,245.51Zm-28.84,40c2.16-.14,3.33.36,3.4,1.44s1.19,1.58,3.4,1.43l-.43-6.59c-2.21.14-3.26.78-3.19,1.85s-1,1.73-3.18,1.87l-.22-3.29-3.3.22C-795.48,284.79-794.33,285.8-789.89,285.5ZM-775.64,99l3.29-.21.22,3.28-3.3.22Zm.64,9.89,3.3-.21.22,3.28-3.3.23ZM-673.37,92.3q-20-2-49.49,3.25t-49.7,0a173.54,173.54,0,0,0,47.84-3.15A136.75,136.75,0,0,1-673.37,92.3Zm-56.13,53.38c2.17-.14,3.34.36,3.41,1.43s1.18,1.59,3.4,1.45a222.61,222.61,0,0,1-26.07,6.67q-13.11,2.57-26.72-3.21,16.28-4.32,26.4-1.73C-742.34,152.06-735.8,150.55-729.5,145.68Zm-52.45,109.48c-.14-2.16.91-2.8,3.19-1.87s2.35,2.64.33,5A3,3,0,0,0-781.95,255.16Zm8-80.06c1.88-4.51,3-4.59,3.3-.21S-771.5,179.4-774,175.1ZM-567.36,92A297.45,297.45,0,0,1-630,96.07c-4.14,4.73-10.59,7.32-19.36,7.9s-15.48-.07-20-2c-2.21.14-3.19,1.86-3,5.17s-.88,4-3.19,1.86q-26.45,1.74-47.73,4.8a125,125,0,0,1-44.87-2,133.61,133.61,0,0,1,45.87-8c15.43.13,29.8-.3,43-1.16l-.43-6.61q26.81,4.92,56.2-2T-567.36,92ZM-769.62,241.1l-6.38,3.73C-773.84,244.69-771.69,243.46-769.62,241.1Zm-.91,36.52,3.29-.23-.21-3.31-3.3.22Zm11.72-73.68-3.3.21-3.08,3.52C-760.81,207.39-758.66,206.15-758.81,203.94ZM-753.64,81l3.3-.21c-.14-2.18-1.35-3.24-3.51-3.1Zm-3.6,96.32c4.52,2,5.24,4.11,2.08,6.5s-4.87,1.46-5.16-3C-758.16,180.69-757.09,179.55-757.24,177.32ZM-763,240.67l3.29-.22c-.13-2.17-1.34-3.23-3.51-3.08Zm1.14,67.85a5.38,5.38,0,0,1,3.62,4.73l-3.29.21-3.52-3.08C-765.21,308.21-764.16,307.58-761.88,308.52Zm12.06-68.72q-.45-6.57-2-4.85c-1.06,1.21-2.75.75-5.05-1.31C-756.56,238.07-754.26,240.09-749.82,239.8ZM-737.28,229c-.29-4.4-2.65-6.47-7-6.18C-748.45,227.58-746.09,229.62-737.28,229Zm-8,80,3.29-.22.22,3.29-3.3.23ZM-723.12,142c2.31,2.07,7.9,2.79,16.72,2.21-4.14,4.73-8.39,7.18-12.77,7.47C-721.53,149.61-722.83,146.38-723.12,142Zm8.89,135.28c-4.29,2.5-6.42,3.2-6.49,2.06s-1.17-.43-3.19,1.88l3.3-.22C-716.23,280.66-714.09,279.44-714.23,277.23Zm-9,13.84,6.6-.43-.44-6.6-3.29.21-3.09,3.52Zm24.63-230.25c-2.22.15-3.23,1.34-3.08,3.51C-699.55,64.19-698.48,63-698.63,60.82ZM-703.11,144c1.87-4.52,3-4.61,3.3-.21S-700.65,148.23-703.11,144Zm.22,3.3,3.3-.21.21,3.29-3.3.22ZM-711.8,263.8c6.6-.44,8.7-1.65,6.38-3.73C-709.85,260.36-711.94,261.64-711.8,263.8Zm20.85-186.92c4.38-.29,6.53-1.51,6.38-3.74C-691.17,73.58-693.31,74.86-690.95,76.88Zm-5.77,63.34c4.52,1.91,10.11,2.65,16.71,2.21.29,4.43-2.39,6.27-7.92,5.49S-696.43,144.65-696.72,140.22Zm15.46-67.29,3.29-.22Zm-9.39,159.66c-1.93,4.59-2.35,6.79-1.23,6.71s1.73,1,1.87,3.19q22.85-4.76,39.49-4.25a136.43,136.43,0,0,0,36.19-4c-4.58-1.86-12.3-1.93-23.21-.13s-18.75.73-23.42-3.43c6.6-.44,7.83,1.71,3.73,6.38-4.57-1.87-7.87-1.64-9.89.65-2.52-4.24-6.56-6.71-12.09-7.49S-688.63,230.3-690.65,232.59Zm24.34-159c1.15,1.07,3.85.32,8.14-2.19l-16.5,1.08C-670.28,72.2-667.52,72.6-666.31,73.6Zm-8.84,42a3,3,0,0,1,3.52,3.08l-3.3.22Zm-11,186.27.22,3.31-3.31.21-.21-3.31Zm15.82-213.1c1.87-4.52,2.4-5.12,1.54-1.76S-670.14,91-670.28,88.77Zm1.73,26.4,6.6-.44c.14,2.22-2,3.45-6.39,3.73ZM-614,138.09a244.16,244.16,0,0,0-24.64,3.27,77.76,77.76,0,0,1-28.15.2c4.09-4.66,10-6.14,17.92-4.49s16,.09,24.53-4.92C-624.07,136.58-620.62,138.53-614,138.09Zm-13.59-55.42q-6.21,7-13,4.15a14.25,14.25,0,0,0-13.2.87q2.82-6.78,9.68-3.94T-627.61,82.67Zm-1.08-16.51c-2.22.15-3.23,1.35-3.09,3.51C-629.61,69.53-628.55,68.38-628.69,66.16Zm4,211.81q-6.85-2.82-10-1t-10-1c.29,4.45,3.2,7,8.8,7.7S-626.65,282.54-624.72,278Zm10.08-199.48.44,6.6-9.89.65c-.15-2.17,1.46-2.85,4.84-2S-614.34,82.92-614.64,78.49ZM-626.88,245l6.59-.43-.44-6.6-3.29.21-3.08,3.52Zm35.56-164.69c-4.29,2.5-7.55,3.29-9.79,2.29s-5.62-1.28-10-1c1.89-4.52,4.63-5.28,8.15-2.19S-595.61,82.78-591.32,80.28ZM-601,133.94c-1.92,4.57-4.59,5.83-8,3.83s-5.24-4.06-5.38-6.28c4.38-.28,6.63.15,6.7,1.22S-605.48,134.22-601,133.94Zm-.58,142.51c-2.35-2-5.73-2.94-10.1-2.66-1.93,4.59-.71,6.68,3.73,6.39S-601.47,278.66-601.63,276.45Zm.58-142.51a62.08,62.08,0,0,1,34.43-5.58q18.32,2.13,31.34-2.07c.29,4.43-1.22,6.71-4.51,6.92s-3.94-.83-1.88-3.18c-10.73,5.15-21.08,6.92-31.12,5.35A131.51,131.51,0,0,0-601,133.94Zm-3.83,93c-2.21.15-3.22,1.35-3.08,3.52C-605.79,230.33-604.73,229.17-604.88,227Zm13.56-146.67,3.3-.22c.14,2.21-.35,3.33-1.43,3.4S-591.17,82.49-591.32,80.28Zm3.3-.22q22.6-8.1,49.49-3.25a77.94,77.94,0,0,1-27.93,3.48Q-581.43,79.63-588,80.06Zm-10.26,146.46c4.39-.29,6.64.14,6.71,1.22s1.19,1.58,3.41,1.44c-.14-2.17.3-3.34,1.43-3.42s1.58-1.19,1.44-3.4C-591.89,222.79-596.26,224.22-598.28,226.52Zm-1.56,26.62.21,3.28,3.31-.21A3,3,0,0,0-599.84,253.14Zm6.38-3.74c.15,2.22,2.38,3.15,6.82,2.87l-.44-6.6C-591.51,246-593.6,247.24-593.46,249.4Zm87.08,14.17q-22.68,8.15-40.92,7.65c-12.18-.28-27.07.12-44.64,1.28,11.27,3.71,26.26,4.9,45,3.66s33.44-3.29,44.32-6.22C-502.79,267.78-504.07,265.64-506.38,263.57Zm-61.2-174.92c13.06-3,25.26-1.65,36.73,4.21q-13.44-2.37-21.56-.24T-567.58,88.65Zm-12.25,166.48c-1.92,4.57-.71,6.67,3.73,6.38s6.53-1.51,6.39-3.73C-572.07,255.76-575.45,254.83-579.83,255.13Zm43.51-195c2.17-.14,3.24-1.3,3.09-3.52C-535.45,56.71-536.46,57.93-536.32,60.09Zm4.17,13-3.08,3.53C-537.59,74.56-536.58,73.36-532.15,73.07Zm-3.13,53.22,52.79-3.47Q-498.18,137.13-535.28,126.29ZM-520,55.7c-2.07,2.38-4.24,3.08-6.49,2.09s-3.34-.3-3.19,1.87C-523.12,59.22-519.9,57.93-520,55.7Zm-1.35,29.92c-2.06,2.36-4.24,3.06-6.49,2.07s-1.31-2.65,3-5.15C-524.76,84.74-523.61,85.76-521.39,85.62Zm-14,140.09c2.15-.15,4.3-1.38,6.37-3.74C-533.43,222.25-535.52,223.54-535.37,225.71Zm19.79-1.31c-6.73-1.73-9.52-1.55-8.25.55S-519.87,226.91-515.58,224.4Zm25.32-144.14c1.23,2.14,2.87,2,4.94-.32l-3.08,3.51c-2.21.15-3.36-.87-3.51-3.08S-491.54,78.16-490.26,80.26Zm24.74-1.62,6.6-.44c.14,2.21-1.43,3.41-4.72,3.62S-467.58,81-465.52,78.64Zm-3.34,49.92q10.33,6,20.12,3.64a144.94,144.94,0,0,1,23-3.16c-4.72-4.1-12-6.36-22-6.85S-464.77,123.89-468.86,128.56Zm10.64-90.17c-2.21.15-3.23,1.36-3.08,3.52C-459.14,41.76-458.07,40.6-458.22,38.39Zm9.2,39.17-3.08,3.5C-452.25,78.91-451.24,77.7-449,77.56Zm4.86-26.84c2.46,4.29,3.59,4.22,3.31-.22S-442.27,46.19-444.16,50.72ZM-429,79.55c-4.14,4.72-6.3,4.86-6.6.43S-433.73,75.45-429,79.55Zm-.42-6.6,6.58-.44L-425.93,76Zm6.8,2.87A297.08,297.08,0,0,0-393,72.21q16.37-2.68,30,3a158.71,158.71,0,0,1-31.13,5.36A61.47,61.47,0,0,1-422.63,75.82ZM-417.76,49l3.3-.21,6.59-.44Q-418.41,39.11-417.76,49Zm-1.62,76.32a214.21,214.21,0,0,0,26.72,3.22q13.26.82,19.48-6.25c-10.89,2.93-20.25,3-28.15.19S-415.27,120.63-419.38,125.3Zm18.54-70.81c-.14-2.15-1.41-4.29-3.73-6.38C-404.28,52.56-403,54.64-400.84,54.49ZM-401,253.33c-4.3,2.5-5.94,2.61-5,.33s-.79-3.29-5.17-3c-1.93,4.57-.66,7.24,3.85,8S-400.73,257.76-401,253.33Zm36.9-194.62c-7-6.17-10.47-8.1-10.32-6C-367.84,52.33-364.4,54.33-364.11,58.71Zm11,15.85c-4.13,4.73-7.4,5.45-9.79,2.29s-3.69-5.8-3.83-8Q-360.19,68.4-353.13,74.56Zm-17.5,137q3.69,6.44,1.65-.12C-370.4,207.15-370.92,207.17-370.63,211.57Zm63.69-140Q-319.72,79-331.36,78.1a119.14,119.14,0,0,1-21.77-3.54c4.1-4.68,10.62-6.19,19.58-4.59A108.53,108.53,0,0,0-306.94,71.52ZM-338,52c-.22-3.3-2.47-3.67-6.7-1.22C-340.07,55-337.82,55.33-338,52Zm20.94,66.55q-6.86-2.82-14.84,1T-347,117.24c.28,4.43,4.24,6.35,12,5.84S-321.39,121.09-317.1,118.58Zm-14.23-65.34c.29,4.44,3.73,6.39,10.33,6C-321.29,54.81-324.73,52.81-331.33,53.24Zm9,35.86c2.17-.14,3.37.92,3.52,3.09l-3.3.21Zm3.69,56.08,3.3-.21a3,3,0,0,0-3.52-3.08Zm8-80,3.3-.23-3.09,3.53Zm1.52,23.09a100.26,100.26,0,0,0,16.39-2.74c6.52-1.52,12.1-.21,16.81,3.87a93,93,0,0,0-18,2.84C-299.41,93.72-304.48,92.39-309.15,88.24Zm11.68-24c.28,4.44-.7,6.67-2.87,6.81-.14-2.16.3-3.32,1.44-3.41S-297.33,66.49-297.47,64.28Zm18.14-1.2c1.23,2.15,4,2,8.25-.54C-277.82,60.8-280.6,61-279.33,63.08Zm9.77,22.55-3.08,3.52C-272.79,87-271.78,85.78-269.56,85.63Zm75.67-8.28q16.47-1.08,19.57-4.61Q-184.64,66.83-193.89,77.35Z"/></g></g><path class="cls-5" d="M5.69,6.2A2.85,2.85,0,1,1,2.85,3.35,2.84,2.84,0,0,1,5.69,6.2"/><path class="cls-5" d="M9.07,16.79,11,10.54a4.21,4.21,0,0,1,8,0L21,16.77,24.44,5.33A2.85,2.85,0,0,1,30,6.2a2.74,2.74,0,0,1-.09.7L24.74,23.79a3.94,3.94,0,0,1-7.58,0l-2.15-7-2.16,7a4,4,0,0,1-7.59-.06l-2.75-9a2.55,2.55,0,0,1-.13-.84A2.85,2.85,0,0,1,8,13.09Z"/></svg>